<svg width="3234" height="108" viewBox="0 0 3234 108" fill="none" xmlns="http://www.w3.org/2000/svg">
<path d="M0 53.9258L3234 53.9261" stroke="url(#paint0_linear_2620_70)" stroke-width="107.85"/>
<path d="M0 53.9258L3234 53.9261" stroke="#FFC83D" stroke-width="107.85"/>
<rect x="1223.12" y="19.9238" width="19.3858" height="67.5471" rx="9.6929" fill="#A2A792"/>
<rect x="1771.12" y="19.9238" width="19.3858" height="67.5471" rx="9.6929" fill="#A2A792"/>
<rect x="1086.05" y="19.9238" width="19.3858" height="67.5471" rx="9.6929" fill="#A2A792"/>
<rect x="1634.05" y="19.9238" width="19.3858" height="67.5471" rx="9.6929" fill="#A2A792"/>
<rect x="949" y="19.9238" width="19.3858" height="67.5471" rx="9.6929" fill="#A2A792"/>
<rect x="1497" y="19.9238" width="19.3858" height="67.5471" rx="9.6929" fill="#A2A792"/>
<rect x="1360.18" y="19.9238" width="19.3858" height="67.5472" rx="9.6929" fill="#A2A792"/>
<rect x="1908.18" y="19.9238" width="19.3858" height="67.5472" rx="9.6929" fill="#A2A792"/>
<rect x="1259.12" y="19.9238" width="19.3858" height="67.5471" rx="9.6929" fill="#A2A792" fill-opacity="0.7"/>
<rect x="1807.12" y="19.9238" width="19.3858" height="67.5471" rx="9.6929" fill="#A2A792" fill-opacity="0.7"/>
<rect x="1122.05" y="19.9238" width="19.3858" height="67.5471" rx="9.6929" fill="#A2A792" fill-opacity="0.7"/>
<rect x="1670.05" y="19.9238" width="19.3858" height="67.5471" rx="9.6929" fill="#A2A792" fill-opacity="0.7"/>
<rect x="985" y="19.9238" width="19.3858" height="67.5471" rx="9.6929" fill="#A2A792" fill-opacity="0.7"/>
<rect x="1533" y="19.9238" width="19.3858" height="67.5471" rx="9.6929" fill="#A2A792" fill-opacity="0.7"/>
<rect x="1396.18" y="19.9238" width="19.3858" height="67.5472" rx="9.6929" fill="#A2A792" fill-opacity="0.7"/>
<rect x="1944.18" y="19.9238" width="19.3858" height="67.5472" rx="9.6929" fill="#A2A792" fill-opacity="0.7"/>
<defs>
<linearGradient id="paint0_linear_2620_70" x1="936.137" y1="314.928" x2="2460.66" y2="220.415" gradientUnits="userSpaceOnUse">
<stop offset="0.311935" stop-color="#1F2528" stop-opacity="0"/>
<stop offset="1" stop-color="#DAC27A" stop-opacity="0.7"/>
</linearGradient>
</defs>
</svg>
