<svg width="1920" height="1080" viewBox="0 0 1920 1080" fill="none" xmlns="http://www.w3.org/2000/svg">
<g clip-path="url(#clip0_337_74)">
<rect width="1920" height="1080" fill="#F1EFE8"/>
<path d="M-2773.78 540C-2773.78 540 -1917.73 540 -1682.28 540C-1446.83 540 -1304.12 425.431 -1136.53 425.431C-968.936 425.431 -155.736 425.431 -155.736 425.431C43.8864 425.431 264.285 510 475.638 510H1956.86" stroke="#ABE0BC" stroke-width="180"/>
<path d="M-2773.78 532.064C-2773.78 532.064 -1917.73 532.064 -1682.28 532.064C-1446.83 532.064 -1304.12 646.633 -1136.53 646.633C-968.94 646.633 -155.74 646.633 -155.74 646.633C43.8825 646.633 264.281 572.064 475.634 572.064H1956.85" stroke="#ABE0BC" stroke-width="180"/>
<path d="M-2746.1 540.064C-2746.1 540.064 -1885.57 540.064 -1648.89 540.064C-1412.21 540.064 -1268.76 465.064 -1100.29 465.064C-931.82 465.064 -114.367 465.064 -114.367 465.064C86.2994 465.064 307.851 540.064 520.309 540.064H660.999" stroke="url(#paint0_linear_337_74)" stroke-width="180"/>
<path d="M-2746.1 540.064C-2746.1 540.064 -1887.35 540.064 -1651.16 540.064C-1414.97 540.064 -1271.8 615.064 -1103.68 615.064C-935.565 615.064 -119.798 615.064 -119.798 615.064C80.4542 615.064 301.548 540.064 513.568 540.064H661" stroke="url(#paint1_linear_337_74)" stroke-width="180"/>
<path d="M60 -108L60.0001 1224.52" stroke="#F1EFE8"/>
<path d="M360 -108L360 1224.52" stroke="#F1EFE8"/>
<path d="M660 -108L660 1224.52" stroke="#F1EFE8"/>
<path d="M960 -108L960 1224.52" stroke="#F1EFE8"/>
<path d="M1260 -108L1260 1224.52" stroke="#F1EFE8"/>
<path d="M1560 -108L1560 1224.52" stroke="#F1EFE8"/>
<path d="M1860 -108L1860 1224.52" stroke="#F1EFE8"/>
<path d="M661 537.064L2182 537.064" stroke="url(#paint2_linear_337_74)" stroke-width="180"/>
<path d="M371.562 435.833C371.965 435.886 372.368 435.94 400.126 442.701C427.884 449.462 482.985 462.929 534.335 470.899C585.684 478.869 631.612 480.934 656.165 481.92C680.717 482.907 682.503 482.754 685.976 481.904" stroke="#EE1111" stroke-width="5" stroke-linecap="round"/>
<path d="M404.707 641.903C405.068 641.774 405.429 641.645 429.257 636.813C453.085 631.981 500.369 622.45 550.674 617.906C600.98 613.361 652.874 614.092 706.341 614.846" stroke="#EE1111" stroke-width="5" stroke-linecap="round"/>
<path d="M530.592 310.28C527.82 310.28 526.164 308.516 526.164 305.474C526.164 302.378 527.838 300.65 530.592 300.65C532.986 300.65 534.408 301.676 534.786 303.89H533.004C532.716 302.54 531.978 302.018 530.61 302.018C528.9 302.018 527.982 303.116 527.982 305.474C527.982 307.832 528.918 308.912 530.61 308.912C532.032 308.912 532.734 308.336 533.022 306.968H534.786C534.426 309.11 533.058 310.28 530.592 310.28ZM539.32 310.28C537.304 310.28 536.098 309.254 536.098 307.49C536.098 305.816 536.98 304.97 538.87 304.682L540.616 304.394C541.93 304.178 542.254 303.908 542.254 303.26C542.254 302.45 541.75 301.964 540.346 301.964C538.87 301.964 538.276 302.432 538.168 303.44H536.494C536.674 301.532 538.06 300.65 540.382 300.65C542.884 300.65 544 301.604 544 303.584V308.21C544 308.624 544.162 308.786 544.558 308.786H544.918V310.1C544.63 310.136 544.378 310.154 544.036 310.154C543.082 310.154 542.506 309.794 542.38 308.822C541.804 309.83 540.706 310.28 539.32 310.28ZM539.752 308.966C541.066 308.966 542.272 308.318 542.272 306.788V305.042C541.966 305.222 541.534 305.366 540.742 305.528L539.428 305.798C538.222 306.05 537.862 306.554 537.862 307.382C537.862 308.372 538.528 308.966 539.752 308.966ZM546.716 310.064V300.866H548.48V302.18C548.966 301.172 549.974 300.65 551.306 300.65C553.34 300.65 554.618 301.964 554.618 304.214V310.064H552.836V304.43C552.836 302.756 552.17 302.036 550.748 302.036C549.236 302.036 548.498 302.828 548.498 304.7V310.064H546.716ZM556.294 302.162V301.154C556.978 301.028 557.284 300.632 557.284 299.84V299.552H556.294V297.464H558.31V299.696C558.31 301.172 557.716 302 556.294 302.162ZM563.226 310.064C561.426 310.064 560.796 309.434 560.796 307.85V302.126H559.446V300.866H560.796V298.166H562.578V300.866H564.54V302.126H562.578V307.706C562.578 308.48 562.83 308.714 563.658 308.714H564.54V310.064H563.226ZM575.125 310.28C572.353 310.28 570.697 308.516 570.697 305.474C570.697 302.378 572.371 300.65 575.125 300.65C577.519 300.65 578.941 301.676 579.319 303.89H577.537C577.249 302.54 576.511 302.018 575.143 302.018C573.433 302.018 572.515 303.116 572.515 305.474C572.515 307.832 573.451 308.912 575.143 308.912C576.565 308.912 577.267 308.336 577.555 306.968H579.319C578.959 309.11 577.591 310.28 575.125 310.28ZM585.131 310.28C582.305 310.28 580.667 308.498 580.667 305.474C580.667 302.414 582.305 300.65 585.131 300.65C587.957 300.65 589.577 302.396 589.595 305.474C589.595 308.498 587.957 310.28 585.131 310.28ZM585.131 308.912C586.913 308.912 587.759 307.778 587.759 305.474C587.759 303.152 586.895 302.018 585.131 302.018C583.349 302.018 582.485 303.17 582.485 305.474C582.485 307.796 583.349 308.912 585.131 308.912ZM591.619 310.064V300.866H593.383V302.18C593.869 301.172 594.877 300.65 596.209 300.65C598.243 300.65 599.521 301.964 599.521 304.214V310.064H597.739V304.43C597.739 302.756 597.073 302.036 595.651 302.036C594.139 302.036 593.401 302.828 593.401 304.7V310.064H591.619ZM604.749 310.064C602.949 310.064 602.319 309.434 602.319 307.85V302.126H600.969V300.866H602.319V298.166H604.101V300.866H606.063V302.126H604.101V307.706C604.101 308.48 604.353 308.714 605.181 308.714H606.063V310.064H604.749ZM608.063 310.064V300.866H609.809V302.342C610.187 301.28 610.925 300.794 612.221 300.794H613.085V302.342H611.969C610.421 302.342 609.845 302.954 609.845 305.024V310.064H608.063ZM618.301 310.28C615.475 310.28 613.837 308.498 613.837 305.474C613.837 302.414 615.475 300.65 618.301 300.65C621.127 300.65 622.747 302.396 622.765 305.474C622.765 308.498 621.127 310.28 618.301 310.28ZM618.301 308.912C620.083 308.912 620.929 307.778 620.929 305.474C620.929 303.152 620.065 302.018 618.301 302.018C616.519 302.018 615.655 303.17 615.655 305.474C615.655 307.796 616.519 308.912 618.301 308.912ZM624.788 310.064V297.464H626.57V310.064H624.788ZM638.636 300.65C641.156 300.65 642.632 302.432 642.632 305.492C642.632 308.534 641.156 310.28 638.654 310.28C637.268 310.28 636.242 309.722 635.666 308.552V313.466H633.884V300.866H635.648V302.378C636.224 301.226 637.232 300.65 638.636 300.65ZM638.258 302.018C636.602 302.018 635.666 303.134 635.666 305.438C635.666 307.778 636.602 308.912 638.258 308.912C639.86 308.912 640.814 307.85 640.814 305.438C640.814 303.008 639.86 302.018 638.258 302.018ZM644.664 310.064V300.866H646.41V302.342C646.788 301.28 647.526 300.794 648.822 300.794H649.686V302.342H648.57C647.022 302.342 646.446 302.954 646.446 305.024V310.064H644.664ZM654.902 310.28C652.076 310.28 650.438 308.498 650.438 305.474C650.438 302.414 652.076 300.65 654.902 300.65C657.728 300.65 659.348 302.396 659.366 305.474C659.366 308.498 657.728 310.28 654.902 310.28ZM654.902 308.912C656.684 308.912 657.53 307.778 657.53 305.474C657.53 303.152 656.666 302.018 654.902 302.018C653.12 302.018 652.256 303.17 652.256 305.474C652.256 307.796 653.12 308.912 654.902 308.912ZM666.141 300.65C668.661 300.65 670.137 302.432 670.137 305.492C670.137 308.534 668.661 310.28 666.159 310.28C664.773 310.28 663.747 309.722 663.171 308.552V313.466H661.389V300.866H663.153V302.378C663.729 301.226 664.737 300.65 666.141 300.65ZM665.763 302.018C664.107 302.018 663.171 303.134 663.171 305.438C663.171 307.778 664.107 308.912 665.763 308.912C667.365 308.912 668.319 307.85 668.319 305.438C668.319 303.008 667.365 302.018 665.763 302.018ZM676.075 310.28C673.213 310.28 671.593 308.444 671.593 305.474C671.593 302.504 673.213 300.65 676.039 300.65C678.973 300.65 680.323 302.63 680.323 305.15V305.762H673.393C673.465 307.958 674.437 308.912 676.075 308.912C677.353 308.912 678.091 308.48 678.451 307.436H680.179C679.711 309.344 678.253 310.28 676.075 310.28ZM676.039 302C674.599 302 673.663 302.756 673.447 304.538H678.523C678.415 302.864 677.605 302 676.039 302ZM682.315 310.064V300.866H684.061V302.342C684.439 301.28 685.177 300.794 686.473 300.794H687.337V302.342H686.221C684.673 302.342 684.097 302.954 684.097 305.024V310.064H682.315ZM688.982 310.064V297.464H690.764V310.064H688.982ZM693.147 313.466V312.08H694.083C694.713 312.08 695.163 311.846 695.469 311.054L695.829 310.082L692.319 300.866H694.155L696.693 308.03L699.357 300.866H701.139L696.855 311.702C696.315 313.07 695.505 313.466 694.245 313.466H693.147ZM706.907 310.064V300.866H708.689V310.064H706.907ZM706.889 299.3V297.464H708.707V299.3H706.889ZM711.288 310.064V300.866H713.052V302.18C713.538 301.172 714.546 300.65 715.878 300.65C717.912 300.65 719.19 301.964 719.19 304.214V310.064H717.408V304.43C717.408 302.756 716.742 302.036 715.32 302.036C713.808 302.036 713.07 302.828 713.07 304.7V310.064H711.288ZM527.208 317.696C527.208 316.148 527.91 315.464 529.656 315.464H530.934V316.796H529.944C529.206 316.796 528.972 316.994 528.972 317.858V318.866H530.934V320.126H528.972V328.064H527.208V320.126H525.822V318.866H527.208V317.696ZM532.518 328.064V318.866H534.3V328.064H532.518ZM532.5 317.3V315.464H534.318V317.3H532.5ZM540.702 331.808C538.074 331.808 536.886 330.98 536.688 329.018H538.398C538.56 330.08 539.226 330.44 540.648 330.44C542.448 330.44 543.15 329.828 543.15 328.262V326.336C542.556 327.38 541.494 327.884 540.18 327.884C537.93 327.884 536.328 326.282 536.328 323.276C536.328 320.234 537.984 318.65 540.252 318.65C541.566 318.65 542.592 319.136 543.168 320.162V318.866H544.932V328.28C544.932 330.62 543.582 331.808 540.702 331.808ZM540.666 326.534C542.286 326.534 543.15 325.508 543.15 323.276C543.15 321.008 542.268 320 540.666 320C539.01 320 538.128 321.008 538.128 323.24C538.128 325.49 539.01 326.534 540.666 326.534ZM547.525 328.064V318.866H549.289V320.09C549.703 319.154 550.603 318.65 551.791 318.65C553.087 318.65 553.951 319.28 554.293 320.288C554.779 319.19 555.697 318.65 557.065 318.65C558.991 318.65 560.161 319.82 560.161 322.034V328.064H558.379V322.052C558.379 320.612 557.803 320.036 556.615 320.036C555.409 320.036 554.725 320.702 554.725 322.358V328.064H552.961V322.142C552.961 320.63 552.385 320.036 551.233 320.036C550.009 320.036 549.307 320.72 549.307 322.358V328.064H547.525ZM565.256 328.28C563.24 328.28 562.034 327.254 562.034 325.49C562.034 323.816 562.916 322.97 564.806 322.682L566.552 322.394C567.866 322.178 568.19 321.908 568.19 321.26C568.19 320.45 567.686 319.964 566.282 319.964C564.806 319.964 564.212 320.432 564.104 321.44H562.43C562.61 319.532 563.996 318.65 566.318 318.65C568.82 318.65 569.936 319.604 569.936 321.584V326.21C569.936 326.624 570.098 326.786 570.494 326.786H570.854V328.1C570.566 328.136 570.314 328.154 569.972 328.154C569.018 328.154 568.442 327.794 568.316 326.822C567.74 327.83 566.642 328.28 565.256 328.28ZM565.688 326.966C567.002 326.966 568.208 326.318 568.208 324.788V323.042C567.902 323.222 567.47 323.366 566.678 323.528L565.364 323.798C564.158 324.05 563.798 324.554 563.798 325.382C563.798 326.372 564.464 326.966 565.688 326.966ZM572.329 328.064V325.832H574.417V328.064H572.329ZM583.766 328.064C581.966 328.064 581.336 327.434 581.336 325.85V320.126H579.986V318.866H581.336V316.166H583.118V318.866H585.08V320.126H583.118V325.706C583.118 326.48 583.37 326.714 584.198 326.714H585.08V328.064H583.766ZM587.079 328.064V315.464H588.861V320.144C589.365 319.136 590.355 318.65 591.669 318.65C593.703 318.65 594.981 319.964 594.981 322.214V328.064H593.199V322.43C593.199 320.756 592.533 320.036 591.111 320.036C589.599 320.036 588.861 320.828 588.861 322.7V328.064H587.079ZM597.472 328.064V318.866H599.254V328.064H597.472ZM597.454 317.3V315.464H599.272V317.3H597.454ZM605.219 328.28C602.717 328.28 601.295 327.308 601.097 325.364H602.771C602.933 326.462 603.779 326.984 605.237 326.984C606.695 326.984 607.307 326.462 607.307 325.58C607.307 324.806 606.893 324.482 605.633 324.212L604.157 323.906C602.213 323.51 601.475 322.646 601.475 321.314C601.475 319.568 602.915 318.65 604.985 318.65C607.019 318.65 608.459 319.55 608.693 321.386H607.073C606.875 320.468 606.227 319.946 604.985 319.946C603.797 319.946 603.131 320.396 603.131 321.134C603.131 321.746 603.401 322.106 604.625 322.358L606.389 322.718C608.279 323.096 609.053 323.942 609.053 325.418C609.053 327.218 607.703 328.28 605.219 328.28ZM615.678 328.064V318.866H617.46V328.064H615.678ZM615.66 317.3V315.464H617.478V317.3H615.66ZM623.425 328.28C620.923 328.28 619.501 327.308 619.303 325.364H620.977C621.139 326.462 621.985 326.984 623.443 326.984C624.901 326.984 625.513 326.462 625.513 325.58C625.513 324.806 625.099 324.482 623.839 324.212L622.363 323.906C620.419 323.51 619.681 322.646 619.681 321.314C619.681 319.568 621.121 318.65 623.191 318.65C625.225 318.65 626.665 319.55 626.899 321.386H625.279C625.081 320.468 624.433 319.946 623.191 319.946C622.003 319.946 621.337 320.396 621.337 321.134C621.337 321.746 621.607 322.106 622.831 322.358L624.595 322.718C626.485 323.096 627.259 323.942 627.259 325.418C627.259 327.218 625.909 328.28 623.425 328.28ZM637.25 328.28C634.748 328.28 633.326 327.308 633.128 325.364H634.802C634.964 326.462 635.81 326.984 637.268 326.984C638.726 326.984 639.338 326.462 639.338 325.58C639.338 324.806 638.924 324.482 637.664 324.212L636.188 323.906C634.244 323.51 633.506 322.646 633.506 321.314C633.506 319.568 634.946 318.65 637.016 318.65C639.05 318.65 640.49 319.55 640.724 321.386H639.104C638.906 320.468 638.258 319.946 637.016 319.946C635.828 319.946 635.162 320.396 635.162 321.134C635.162 321.746 635.432 322.106 636.656 322.358L638.42 322.718C640.31 323.096 641.084 323.942 641.084 325.418C641.084 327.218 639.734 328.28 637.25 328.28ZM642.994 328.064V318.866H644.758V320.09C645.172 319.154 646.072 318.65 647.26 318.65C648.556 318.65 649.42 319.28 649.762 320.288C650.248 319.19 651.166 318.65 652.534 318.65C654.46 318.65 655.63 319.82 655.63 322.034V328.064H653.848V322.052C653.848 320.612 653.272 320.036 652.084 320.036C650.878 320.036 650.194 320.702 650.194 322.358V328.064H648.43V322.142C648.43 320.63 647.854 320.036 646.702 320.036C645.478 320.036 644.776 320.72 644.776 322.358V328.064H642.994ZM662.003 328.28C659.177 328.28 657.539 326.498 657.539 323.474C657.539 320.414 659.177 318.65 662.003 318.65C664.829 318.65 666.449 320.396 666.467 323.474C666.467 326.498 664.829 328.28 662.003 328.28ZM662.003 326.912C663.785 326.912 664.631 325.778 664.631 323.474C664.631 321.152 663.767 320.018 662.003 320.018C660.221 320.018 659.357 321.17 659.357 323.474C659.357 325.796 660.221 326.912 662.003 326.912ZM672.379 328.28C669.553 328.28 667.915 326.498 667.915 323.474C667.915 320.414 669.553 318.65 672.379 318.65C675.205 318.65 676.825 320.396 676.843 323.474C676.843 326.498 675.205 328.28 672.379 328.28ZM672.379 326.912C674.161 326.912 675.007 325.778 675.007 323.474C675.007 321.152 674.143 320.018 672.379 320.018C670.597 320.018 669.733 321.17 669.733 323.474C669.733 325.796 670.597 326.912 672.379 326.912ZM681.586 328.064C679.786 328.064 679.156 327.434 679.156 325.85V320.126H677.806V318.866H679.156V316.166H680.938V318.866H682.9V320.126H680.938V325.706C680.938 326.48 681.19 326.714 682.018 326.714H682.9V328.064H681.586ZM684.899 328.064V315.464H686.681V320.144C687.185 319.136 688.175 318.65 689.489 318.65C691.523 318.65 692.801 319.964 692.801 322.214V328.064H691.019V322.43C691.019 320.756 690.353 320.036 688.931 320.036C687.419 320.036 686.681 320.828 686.681 322.7V328.064H684.899ZM698.747 331.538V330.134H699.305C699.809 330.134 700.007 329.882 700.007 329.432V318.866H701.789V329.54C701.789 330.836 701.231 331.538 699.719 331.538H698.747ZM700.007 317.3V315.464H701.807V317.3H700.007ZM708.277 328.28C705.451 328.28 703.813 326.498 703.813 323.474C703.813 320.414 705.451 318.65 708.277 318.65C711.103 318.65 712.723 320.396 712.741 323.474C712.741 326.498 711.103 328.28 708.277 328.28ZM708.277 326.912C710.059 326.912 710.905 325.778 710.905 323.474C710.905 321.152 710.041 320.018 708.277 320.018C706.495 320.018 705.631 321.17 705.631 323.474C705.631 325.796 706.495 326.912 708.277 326.912ZM714.764 328.064V318.866H716.546V328.064H714.764ZM714.746 317.3V315.464H716.564V317.3H714.746ZM719.145 328.064V318.866H720.909V320.18C721.395 319.172 722.403 318.65 723.735 318.65C725.769 318.65 727.047 319.964 727.047 322.214V328.064H725.265V322.43C725.265 320.756 724.599 320.036 723.177 320.036C721.665 320.036 720.927 320.828 720.927 322.7V328.064H719.145Z" fill="#EE1111"/>
</g>
<defs>
<linearGradient id="paint0_linear_337_74" x1="-373.862" y1="594.425" x2="-373.862" y2="368.159" gradientUnits="userSpaceOnUse">
<stop stop-color="#E7E5DD" stop-opacity="0"/>
<stop offset="0.100565" stop-color="#E9F3CD" stop-opacity="0.5"/>
<stop offset="0.390351" stop-color="#D9DECA"/>
<stop offset="0.614035" stop-color="#D9DECA"/>
<stop offset="0.9" stop-color="#E9F3CD" stop-opacity="0.5"/>
<stop offset="1" stop-color="#E7E5DD" stop-opacity="0"/>
</linearGradient>
<linearGradient id="paint1_linear_337_74" x1="595.934" y1="499.632" x2="595.934" y2="712.113" gradientUnits="userSpaceOnUse">
<stop stop-color="#E7E5DD" stop-opacity="0"/>
<stop offset="0.100565" stop-color="#E9F3CD" stop-opacity="0.5"/>
<stop offset="0.390351" stop-color="#D9DECA"/>
<stop offset="0.614035" stop-color="#D9DECA"/>
<stop offset="0.9" stop-color="#E9F3CD" stop-opacity="0.5"/>
<stop offset="1" stop-color="#E7E5DD" stop-opacity="0"/>
</linearGradient>
<linearGradient id="paint2_linear_337_74" x1="1421.47" y1="447.739" x2="1421.47" y2="633.758" gradientUnits="userSpaceOnUse">
<stop stop-color="#E7E5DD" stop-opacity="0"/>
<stop offset="0.100565" stop-color="#E9F3CD" stop-opacity="0.5"/>
<stop offset="0.390351" stop-color="#D9DECA"/>
<stop offset="0.614035" stop-color="#D9DECA"/>
<stop offset="0.9" stop-color="#E9F3CD" stop-opacity="0.5"/>
<stop offset="1" stop-color="#E7E5DD" stop-opacity="0"/>
</linearGradient>
<clipPath id="clip0_337_74">
<rect width="1920" height="1080" fill="white"/>
</clipPath>
</defs>
</svg>
