<svg width="1920" height="1080" viewBox="0 0 1920 1080" fill="none" xmlns="http://www.w3.org/2000/svg">
<g clip-path="url(#clip0_337_198)">
<rect width="1920" height="1080" fill="#F1EFE8"/>
<foreignObject x="847" y="470" width="239" height="140"><div xmlns="http://www.w3.org/1999/xhtml" style="backdrop-filter:blur(25px);clip-path:url(#bgblur_1_337_198_clip_path);height:100%;width:100%"></div></foreignObject><g data-figma-bg-blur-radius="50">
<rect x="897" y="520" width="139" height="40" rx="8" fill="white" fill-opacity="0.2"/>
<path d="M927.905 550.915H906.095L917 532.026L927.905 550.915Z" stroke="black" stroke-width="5.88342"/>
<rect width="83" height="18" transform="translate(943 531)" fill="#3744FC"/>
<path d="M946.296 546L946.296 533.4L950.976 533.4C955.116 533.4 956.916 534.966 956.916 539.7C956.916 544.434 955.116 546 950.976 546L946.296 546ZM950.976 544.488C953.946 544.488 955.044 543.48 955.044 539.7C955.044 535.902 953.946 534.894 950.976 534.894L948.114 534.894L948.114 544.488L950.976 544.488ZM962.966 546.216C960.104 546.216 958.484 544.38 958.484 541.41C958.484 538.44 960.104 536.586 962.93 536.586C965.864 536.586 967.214 538.566 967.214 541.086L967.214 541.698L960.284 541.698C960.356 543.894 961.328 544.848 962.966 544.848C964.244 544.848 964.982 544.416 965.342 543.372L967.07 543.372C966.602 545.28 965.144 546.216 962.966 546.216ZM962.93 537.936C961.49 537.936 960.554 538.692 960.338 540.474L965.414 540.474C965.306 538.8 964.496 537.936 962.93 537.936ZM973.959 536.586C976.479 536.586 977.955 538.368 977.955 541.428C977.955 544.47 976.479 546.216 973.977 546.216C972.591 546.216 971.565 545.658 970.989 544.488L970.989 549.402L969.207 549.402L969.207 536.802L970.971 536.802L970.971 538.314C971.547 537.162 972.555 536.586 973.959 536.586ZM973.581 537.954C971.925 537.954 970.989 539.07 970.989 541.374C970.989 543.714 971.925 544.848 973.581 544.848C975.183 544.848 976.137 543.786 976.137 541.374C976.137 538.944 975.183 537.954 973.581 537.954ZM979.986 546L979.986 533.4L981.768 533.4L981.768 546L979.986 546ZM988.255 546.216C985.429 546.216 983.791 544.434 983.791 541.41C983.791 538.35 985.429 536.586 988.255 536.586C991.081 536.586 992.701 538.332 992.719 541.41C992.719 544.434 991.081 546.216 988.255 546.216ZM988.255 544.848C990.037 544.848 990.883 543.714 990.883 541.41C990.883 539.088 990.019 537.954 988.255 537.954C986.473 537.954 985.609 539.106 985.609 541.41C985.609 543.732 986.473 544.848 988.255 544.848ZM994.333 549.402L994.333 548.016L995.269 548.016C995.899 548.016 996.349 547.782 996.655 546.99L997.015 546.018L993.505 536.802L995.341 536.802L997.879 543.966L1000.54 536.802L1002.33 536.802L998.041 547.638C997.501 549.006 996.691 549.402 995.431 549.402L994.333 549.402ZM1007.46 546.216C1004.6 546.216 1002.98 544.38 1002.98 541.41C1002.98 538.44 1004.6 536.586 1007.42 536.586C1010.36 536.586 1011.71 538.566 1011.71 541.086L1011.71 541.698L1004.78 541.698C1004.85 543.894 1005.82 544.848 1007.46 544.848C1008.74 544.848 1009.48 544.416 1009.84 543.372L1011.56 543.372C1011.1 545.28 1009.64 546.216 1007.46 546.216ZM1007.42 537.936C1005.98 537.936 1005.05 538.692 1004.83 540.474L1009.91 540.474C1009.8 538.8 1008.99 537.936 1007.42 537.936ZM1017.14 546.216C1014.62 546.216 1013.14 544.434 1013.14 541.374C1013.14 538.332 1014.64 536.586 1017.14 536.586C1018.51 536.586 1019.55 537.162 1020.13 538.314L1020.13 533.4L1021.89 533.4L1021.89 546L1020.14 546L1020.14 544.452C1019.59 545.604 1018.56 546.216 1017.14 546.216ZM1017.52 544.848C1019.19 544.848 1020.13 543.732 1020.13 541.428C1020.13 539.088 1019.17 537.954 1017.52 537.954C1015.91 537.954 1014.96 539.016 1014.96 541.428C1014.96 543.858 1015.91 544.848 1017.52 544.848Z" fill="black"/>
</g>
<path d="M960 566.336L960 955.664" stroke="black"/>
<foreignObject x="890" y="470" width="239" height="140"><div xmlns="http://www.w3.org/1999/xhtml" style="backdrop-filter:blur(25px);clip-path:url(#bgblur_2_337_198_clip_path);height:100%;width:100%"></div></foreignObject><g data-figma-bg-blur-radius="50">
<rect x="940" y="520" width="139" height="40" rx="8" fill="white" fill-opacity="0.2"/>
<path d="M970.905 550.915H949.095L960 532.026L970.905 550.915Z" stroke="black" stroke-width="5.88342"/>
<rect width="83" height="18" transform="translate(986 531)" fill="#DCDCDC"/>
<path d="M989.296 546L989.296 533.4L993.976 533.4C998.116 533.4 999.916 534.966 999.916 539.7C999.916 544.434 998.116 546 993.976 546L989.296 546ZM993.976 544.488C996.946 544.488 998.044 543.48 998.044 539.7C998.044 535.902 996.946 534.894 993.976 534.894L991.114 534.894L991.114 544.488L993.976 544.488ZM1005.97 546.216C1003.1 546.216 1001.48 544.38 1001.48 541.41C1001.48 538.44 1003.1 536.586 1005.93 536.586C1008.86 536.586 1010.21 538.566 1010.21 541.086L1010.21 541.698L1003.28 541.698C1003.36 543.894 1004.33 544.848 1005.97 544.848C1007.24 544.848 1007.98 544.416 1008.34 543.372L1010.07 543.372C1009.6 545.28 1008.14 546.216 1005.97 546.216ZM1005.93 537.936C1004.49 537.936 1003.55 538.692 1003.34 540.474L1008.41 540.474C1008.31 538.8 1007.5 537.936 1005.93 537.936ZM1016.96 536.586C1019.48 536.586 1020.95 538.368 1020.95 541.428C1020.95 544.47 1019.48 546.216 1016.98 546.216C1015.59 546.216 1014.56 545.658 1013.99 544.488L1013.99 549.402L1012.21 549.402L1012.21 536.802L1013.97 536.802L1013.97 538.314C1014.55 537.162 1015.55 536.586 1016.96 536.586ZM1016.58 537.954C1014.92 537.954 1013.99 539.07 1013.99 541.374C1013.99 543.714 1014.92 544.848 1016.58 544.848C1018.18 544.848 1019.14 543.786 1019.14 541.374C1019.14 538.944 1018.18 537.954 1016.58 537.954ZM1022.99 546L1022.99 533.4L1024.77 533.4L1024.77 546L1022.99 546ZM1031.26 546.216C1028.43 546.216 1026.79 544.434 1026.79 541.41C1026.79 538.35 1028.43 536.586 1031.26 536.586C1034.08 536.586 1035.7 538.332 1035.72 541.41C1035.72 544.434 1034.08 546.216 1031.26 546.216ZM1031.26 544.848C1033.04 544.848 1033.88 543.714 1033.88 541.41C1033.88 539.088 1033.02 537.954 1031.26 537.954C1029.47 537.954 1028.61 539.106 1028.61 541.41C1028.61 543.732 1029.47 544.848 1031.26 544.848ZM1037.33 549.402L1037.33 548.016L1038.27 548.016C1038.9 548.016 1039.35 547.782 1039.66 546.99L1040.02 546.018L1036.51 536.802L1038.34 536.802L1040.88 543.966L1043.54 536.802L1045.33 536.802L1041.04 547.638C1040.5 549.006 1039.69 549.402 1038.43 549.402L1037.33 549.402ZM1050.46 546.216C1047.6 546.216 1045.98 544.38 1045.98 541.41C1045.98 538.44 1047.6 536.586 1050.42 536.586C1053.36 536.586 1054.71 538.566 1054.71 541.086L1054.71 541.698L1047.78 541.698C1047.85 543.894 1048.82 544.848 1050.46 544.848C1051.74 544.848 1052.48 544.416 1052.84 543.372L1054.56 543.372C1054.1 545.28 1052.64 546.216 1050.46 546.216ZM1050.42 537.936C1048.98 537.936 1048.05 538.692 1047.83 540.474L1052.91 540.474C1052.8 538.8 1051.99 537.936 1050.42 537.936ZM1060.14 546.216C1057.62 546.216 1056.14 544.434 1056.14 541.374C1056.14 538.332 1057.64 536.586 1060.14 536.586C1061.51 536.586 1062.55 537.162 1063.13 538.314L1063.13 533.4L1064.89 533.4L1064.89 546L1063.14 546L1063.14 544.452C1062.59 545.604 1061.56 546.216 1060.14 546.216ZM1060.52 544.848C1062.19 544.848 1063.13 543.732 1063.13 541.428C1063.13 539.088 1062.17 537.954 1060.52 537.954C1058.91 537.954 1057.96 539.016 1057.96 541.428C1057.96 543.858 1058.91 544.848 1060.52 544.848Z" fill="black"/>
</g>
<g filter="url(#filter2_f_337_198)">
<path d="M4.20015e-05 720.006C4.20015e-05 720.006 120.693 720.006 512.551 720.006C904.41 720.006 1085.84 540.001 1360.13 540.001L1673.73 239.565" stroke="url(#paint0_linear_337_198)" stroke-width="180"/>
</g>
<path d="M-675.328 540L1957.62 540" stroke="url(#paint1_linear_337_198)" stroke-width="180"/>
<g filter="url(#filter3_f_337_198)">
<path d="M0 359.501C0 359.501 15.0128 359.5 416.171 359.5C817.33 359.5 1081.79 539.5 1422.05 539.5L1994.32 672.129" stroke="url(#paint2_linear_337_198)" stroke-width="180"/>
</g>
</g>
<defs>
<clipPath id="bgblur_1_337_198_clip_path" transform="translate(-847 -470)"><rect x="897" y="520" width="139" height="40" rx="8"/>
</clipPath><clipPath id="bgblur_2_337_198_clip_path" transform="translate(-890 -470)"><rect x="940" y="520" width="139" height="40" rx="8"/>
</clipPath><filter id="filter2_f_337_198" x="-100" y="74.5762" width="1936" height="835.43" filterUnits="userSpaceOnUse" color-interpolation-filters="sRGB">
<feFlood flood-opacity="0" result="BackgroundImageFix"/>
<feBlend mode="normal" in="SourceGraphic" in2="BackgroundImageFix" result="shape"/>
<feGaussianBlur stdDeviation="50" result="effect1_foregroundBlur_337_198"/>
</filter>
<filter id="filter3_f_337_198" x="-100.004" y="169.5" width="2214.64" height="690.305" filterUnits="userSpaceOnUse" color-interpolation-filters="sRGB">
<feFlood flood-opacity="0" result="BackgroundImageFix"/>
<feBlend mode="normal" in="SourceGraphic" in2="BackgroundImageFix" result="shape"/>
<feGaussianBlur stdDeviation="50" result="effect1_foregroundBlur_337_198"/>
</filter>
<linearGradient id="paint0_linear_337_198" x1="1078.72" y1="603.698" x2="1078.72" y2="813.663" gradientUnits="userSpaceOnUse">
<stop stop-color="#C9C6BC" stop-opacity="0"/>
<stop offset="0.100565" stop-color="#5D96F4"/>
<stop offset="0.4" stop-color="#1923A8"/>
<stop offset="0.6" stop-color="#1923A8"/>
<stop offset="0.9" stop-color="#5D96F4"/>
<stop offset="1" stop-color="#C9C6BC" stop-opacity="0"/>
</linearGradient>
<linearGradient id="paint1_linear_337_198" x1="641.112" y1="450.675" x2="641.112" y2="630.452" gradientUnits="userSpaceOnUse">
<stop stop-color="#C9C6BC" stop-opacity="0"/>
<stop offset="0.100565" stop-color="#5D96F4"/>
<stop offset="0.4" stop-color="#1923A8"/>
<stop offset="0.6" stop-color="#1923A8"/>
<stop offset="0.9" stop-color="#5D96F4"/>
<stop offset="1" stop-color="#C9C6BC" stop-opacity="0"/>
</linearGradient>
<linearGradient id="paint2_linear_337_198" x1="999.825" y1="242.679" x2="999.824" y2="499.471" gradientUnits="userSpaceOnUse">
<stop stop-color="#C9C6BC" stop-opacity="0"/>
<stop offset="0.100565" stop-color="#5D96F4"/>
<stop offset="0.4" stop-color="#1923A8"/>
<stop offset="0.6" stop-color="#1923A8"/>
<stop offset="0.9" stop-color="#5D96F4"/>
<stop offset="1" stop-color="#C9C6BC" stop-opacity="0"/>
</linearGradient>
<clipPath id="clip0_337_198">
<rect width="1920" height="1080" fill="white"/>
</clipPath>
</defs>
</svg>
