<svg width="1920" height="1080" viewBox="0 0 1920 1080" fill="none" xmlns="http://www.w3.org/2000/svg">
<g clip-path="url(#clip0_134_96)">
<rect width="1920" height="1080" fill="#F1EFE8"/>
<path d="M48.2253 542.527L117.407 542.527" stroke="black" stroke-width="1.27432"/>
<path d="M48.2274 541.273H1974.67" stroke="black" stroke-width="1.27432" stroke-dasharray="15.29 15.29"/>
<path d="M48.2253 540L117.407 540" stroke="black" stroke-width="1.27432"/>
<path opacity="0.79" d="M560.737 539.5L2183 539.5" stroke="#9D9D9D" stroke-width="180"/>
<path d="M60 -126.262L60.0001 1206.26" stroke="#F1EFE8"/>
<path d="M360 -126.262L360 1206.26" stroke="#F1EFE8"/>
<path d="M660 -126.262L660 1206.26" stroke="#F1EFE8"/>
<path d="M960 -126.262L960 1206.26" stroke="#F1EFE8"/>
<path d="M1260 -126.262L1260 1206.26" stroke="#F1EFE8"/>
<path d="M1560 -126.262L1560 1206.26" stroke="#F1EFE8"/>
<path d="M1860 -126.262L1860 1206.26" stroke="#F1EFE8"/>
<path d="M933.928 539.678L933.928 527.078L938.608 527.078C942.748 527.078 944.548 528.644 944.548 533.378C944.548 538.112 942.748 539.678 938.608 539.678L933.928 539.678ZM938.608 538.166C941.578 538.166 942.676 537.158 942.676 533.378C942.676 529.58 941.578 528.572 938.608 528.572L935.746 528.572L935.746 538.166L938.608 538.166ZM950.598 539.894C947.736 539.894 946.116 538.058 946.116 535.088C946.116 532.118 947.736 530.264 950.562 530.264C953.496 530.264 954.846 532.244 954.846 534.764L954.846 535.376L947.916 535.376C947.988 537.572 948.96 538.526 950.598 538.526C951.876 538.526 952.614 538.094 952.974 537.05L954.702 537.05C954.234 538.958 952.776 539.894 950.598 539.894ZM950.562 531.614C949.122 531.614 948.186 532.37 947.97 534.152L953.046 534.152C952.938 532.478 952.128 531.614 950.562 531.614ZM961.59 530.264C964.11 530.264 965.586 532.046 965.586 535.106C965.586 538.148 964.11 539.894 961.608 539.894C960.222 539.894 959.196 539.336 958.62 538.166L958.62 543.08L956.838 543.08L956.838 530.48L958.602 530.48L958.602 531.992C959.178 530.84 960.186 530.264 961.59 530.264ZM961.212 531.632C959.556 531.632 958.62 532.748 958.62 535.052C958.62 537.392 959.556 538.526 961.212 538.526C962.814 538.526 963.768 537.464 963.768 535.052C963.768 532.622 962.814 531.632 961.212 531.632ZM967.618 539.678L967.618 527.078L969.4 527.078L969.4 539.678L967.618 539.678ZM975.887 539.894C973.061 539.894 971.423 538.112 971.423 535.088C971.423 532.028 973.061 530.264 975.887 530.264C978.713 530.264 980.333 532.01 980.351 535.088C980.351 538.112 978.713 539.894 975.887 539.894ZM975.887 538.526C977.669 538.526 978.515 537.392 978.515 535.088C978.515 532.766 977.651 531.632 975.887 531.632C974.105 531.632 973.241 532.784 973.241 535.088C973.241 537.41 974.105 538.526 975.887 538.526ZM981.965 543.08L981.965 541.694L982.901 541.694C983.531 541.694 983.981 541.46 984.287 540.668L984.647 539.696L981.137 530.48L982.973 530.48L985.511 537.644L988.175 530.48L989.957 530.48L985.673 541.316C985.133 542.684 984.323 543.08 983.063 543.08L981.965 543.08ZM991.449 539.678L991.449 530.48L993.231 530.48L993.231 539.678L991.449 539.678ZM991.431 528.914L991.431 527.078L993.249 527.078L993.249 528.914L991.431 528.914ZM995.83 539.678L995.83 530.48L997.594 530.48L997.594 531.794C998.08 530.786 999.088 530.264 1000.42 530.264C1002.45 530.264 1003.73 531.578 1003.73 533.828L1003.73 539.678L1001.95 539.678L1001.95 534.044C1001.95 532.37 1001.28 531.65 999.862 531.65C998.35 531.65 997.612 532.442 997.612 534.314L997.612 539.678L995.83 539.678ZM1010.04 543.422C1007.41 543.422 1006.22 542.594 1006.03 540.632L1007.74 540.632C1007.9 541.694 1008.56 542.054 1009.99 542.054C1011.79 542.054 1012.49 541.442 1012.49 539.876L1012.49 537.95C1011.89 538.994 1010.83 539.498 1009.52 539.498C1007.27 539.498 1005.67 537.896 1005.67 534.89C1005.67 531.848 1007.32 530.264 1009.59 530.264C1010.9 530.264 1011.93 530.75 1012.51 531.776L1012.51 530.48L1014.27 530.48L1014.27 539.894C1014.27 542.234 1012.92 543.422 1010.04 543.422ZM1010 538.148C1011.62 538.148 1012.49 537.122 1012.49 534.89C1012.49 532.622 1011.61 531.614 1010 531.614C1008.35 531.614 1007.47 532.622 1007.47 534.854C1007.47 537.104 1008.35 538.148 1010 538.148ZM1026.33 539.894C1024.93 539.894 1023.92 539.318 1023.34 538.166L1023.34 539.678L1021.58 539.678L1021.58 527.078L1023.36 527.078L1023.36 531.992C1023.94 530.84 1024.98 530.264 1026.35 530.264C1028.85 530.264 1030.33 532.028 1030.33 535.052C1030.33 538.13 1028.85 539.894 1026.33 539.894ZM1025.95 538.526C1027.55 538.526 1028.51 537.518 1028.51 535.106C1028.51 532.676 1027.55 531.632 1025.95 531.632C1024.3 531.632 1023.36 532.784 1023.36 535.106C1023.36 537.428 1024.3 538.526 1025.95 538.526ZM1034.97 539.894C1032.95 539.894 1031.74 538.868 1031.74 537.104C1031.74 535.43 1032.63 534.584 1034.52 534.296L1036.26 534.008C1037.58 533.792 1037.9 533.522 1037.9 532.874C1037.9 532.064 1037.4 531.578 1035.99 531.578C1034.52 531.578 1033.92 532.046 1033.81 533.054L1032.14 533.054C1032.32 531.146 1033.71 530.264 1036.03 530.264C1038.53 530.264 1039.65 531.218 1039.65 533.198L1039.65 537.824C1039.65 538.238 1039.81 538.4 1040.2 538.4L1040.56 538.4L1040.56 539.714C1040.28 539.75 1040.02 539.768 1039.68 539.768C1038.73 539.768 1038.15 539.408 1038.03 538.436C1037.45 539.444 1036.35 539.894 1034.97 539.894ZM1035.4 538.58C1036.71 538.58 1037.92 537.932 1037.92 536.402L1037.92 534.656C1037.61 534.836 1037.18 534.98 1036.39 535.142L1035.07 535.412C1033.87 535.664 1033.51 536.168 1033.51 536.996C1033.51 537.986 1034.17 538.58 1035.4 538.58ZM1046.23 539.894C1043.46 539.894 1041.81 538.13 1041.81 535.088C1041.81 531.992 1043.48 530.264 1046.23 530.264C1048.63 530.264 1050.05 531.29 1050.43 533.504L1048.65 533.504C1048.36 532.154 1047.62 531.632 1046.25 531.632C1044.54 531.632 1043.62 532.73 1043.62 535.088C1043.62 537.446 1044.56 538.526 1046.25 538.526C1047.67 538.526 1048.38 537.95 1048.66 536.582L1050.43 536.582C1050.07 538.724 1048.7 539.894 1046.23 539.894ZM1058.33 539.678L1054.13 534.818L1054.13 539.678L1052.35 539.678L1052.35 527.078L1054.13 527.078L1054.13 534.71L1058.13 530.48L1060.22 530.48L1056.11 534.71L1060.6 539.678L1058.33 539.678ZM1065.28 539.894C1062.42 539.894 1060.8 538.058 1060.8 535.088C1060.8 532.118 1062.42 530.264 1065.24 530.264C1068.18 530.264 1069.53 532.244 1069.53 534.764L1069.53 535.376L1062.6 535.376C1062.67 537.572 1063.64 538.526 1065.28 538.526C1066.56 538.526 1067.3 538.094 1067.66 537.05L1069.38 537.05C1068.92 538.958 1067.46 539.894 1065.28 539.894ZM1065.24 531.614C1063.8 531.614 1062.87 532.37 1062.65 534.152L1067.73 534.152C1067.62 532.478 1066.81 531.614 1065.24 531.614ZM1071.52 539.678L1071.52 530.48L1073.28 530.48L1073.28 531.794C1073.77 530.786 1074.78 530.264 1076.11 530.264C1078.14 530.264 1079.42 531.578 1079.42 533.828L1079.42 539.678L1077.64 539.678L1077.64 534.044C1077.64 532.37 1076.97 531.65 1075.55 531.65C1074.04 531.65 1073.3 532.442 1073.3 534.314L1073.3 539.678L1071.52 539.678ZM1085.35 539.894C1082.83 539.894 1081.36 538.112 1081.36 535.052C1081.36 532.01 1082.85 530.264 1085.35 530.264C1086.72 530.264 1087.76 530.84 1088.34 531.992L1088.34 527.078L1090.1 527.078L1090.1 539.678L1088.36 539.678L1088.36 538.13C1087.8 539.282 1086.77 539.894 1085.35 539.894ZM1085.73 538.526C1087.4 538.526 1088.34 537.41 1088.34 535.106C1088.34 532.766 1087.39 531.632 1085.73 531.632C1084.13 531.632 1083.17 532.694 1083.17 535.106C1083.17 537.536 1084.13 538.526 1085.73 538.526ZM934.324 547.31C934.324 545.762 935.026 545.078 936.772 545.078L938.05 545.078L938.05 546.41L937.06 546.41C936.322 546.41 936.088 546.608 936.088 547.472L936.088 548.48L938.05 548.48L938.05 549.74L936.088 549.74L936.088 557.678L934.324 557.678L934.324 549.74L932.938 549.74L932.938 548.48L934.324 548.48L934.324 547.31ZM939.52 557.678L939.52 548.48L941.266 548.48L941.266 549.956C941.644 548.894 942.382 548.408 943.678 548.408L944.542 548.408L944.542 549.956L943.426 549.956C941.878 549.956 941.302 550.568 941.302 552.638L941.302 557.678L939.52 557.678ZM949.758 557.894C946.932 557.894 945.294 556.112 945.294 553.088C945.294 550.028 946.932 548.264 949.758 548.264C952.584 548.264 954.204 550.01 954.222 553.088C954.222 556.112 952.584 557.894 949.758 557.894ZM949.758 556.526C951.54 556.526 952.386 555.392 952.386 553.088C952.386 550.766 951.522 549.632 949.758 549.632C947.976 549.632 947.112 550.784 947.112 553.088C947.112 555.41 947.976 556.526 949.758 556.526ZM956.245 557.678L956.245 548.48L958.009 548.48L958.009 549.704C958.423 548.768 959.323 548.264 960.511 548.264C961.807 548.264 962.671 548.894 963.013 549.902C963.499 548.804 964.417 548.264 965.785 548.264C967.711 548.264 968.881 549.434 968.881 551.648L968.881 557.678L967.099 557.678L967.099 551.666C967.099 550.226 966.523 549.65 965.335 549.65C964.129 549.65 963.445 550.316 963.445 551.972L963.445 557.678L961.681 557.678L961.681 551.756C961.681 550.244 961.105 549.65 959.953 549.65C958.729 549.65 958.027 550.334 958.027 551.972L958.027 557.678L956.245 557.678ZM979.898 561.422C977.27 561.422 976.082 560.594 975.884 558.632L977.594 558.632C977.756 559.694 978.422 560.054 979.844 560.054C981.644 560.054 982.346 559.442 982.346 557.876L982.346 555.95C981.752 556.994 980.69 557.498 979.376 557.498C977.126 557.498 975.524 555.896 975.524 552.89C975.524 549.848 977.18 548.264 979.448 548.264C980.762 548.264 981.788 548.75 982.364 549.776L982.364 548.48L984.128 548.48L984.128 557.894C984.128 560.234 982.778 561.422 979.898 561.422ZM979.862 556.148C981.482 556.148 982.346 555.122 982.346 552.89C982.346 550.622 981.464 549.614 979.862 549.614C978.206 549.614 977.324 550.622 977.324 552.854C977.324 555.104 978.206 556.148 979.862 556.148ZM986.721 557.678L986.721 548.48L988.503 548.48L988.503 557.678L986.721 557.678ZM986.703 546.914L986.703 545.078L988.521 545.078L988.521 546.914L986.703 546.914ZM993.91 557.678C992.11 557.678 991.48 557.048 991.48 555.464L991.48 549.74L990.13 549.74L990.13 548.48L991.48 548.48L991.48 545.78L993.262 545.78L993.262 548.48L995.224 548.48L995.224 549.74L993.262 549.74L993.262 555.32C993.262 556.094 993.514 556.328 994.342 556.328L995.224 556.328L995.224 557.678L993.91 557.678ZM997.223 557.678L997.223 545.078L999.005 545.078L999.005 549.758C999.509 548.75 1000.5 548.264 1001.81 548.264C1003.85 548.264 1005.13 549.578 1005.13 551.828L1005.13 557.678L1003.34 557.678L1003.34 552.044C1003.34 550.37 1002.68 549.65 1001.26 549.65C999.743 549.65 999.005 550.442 999.005 552.314L999.005 557.678L997.223 557.678ZM1015.41 548.48L1015.41 557.678L1013.65 557.678L1013.65 556.364C1013.16 557.39 1012.17 557.894 1010.82 557.894C1008.79 557.894 1007.51 556.58 1007.51 554.33L1007.51 548.48L1009.29 548.48L1009.29 554.114C1009.29 555.788 1009.96 556.508 1011.38 556.508C1012.87 556.508 1013.63 555.716 1013.63 553.844L1013.63 548.48L1015.41 548.48ZM1022.76 557.894C1021.36 557.894 1020.35 557.318 1019.77 556.166L1019.77 557.678L1018.01 557.678L1018.01 545.078L1019.79 545.078L1019.79 549.992C1020.37 548.84 1021.41 548.264 1022.78 548.264C1025.28 548.264 1026.76 550.028 1026.76 553.052C1026.76 556.13 1025.28 557.894 1022.76 557.894ZM1022.38 556.526C1023.98 556.526 1024.94 555.518 1024.94 553.106C1024.94 550.676 1023.98 549.632 1022.38 549.632C1020.73 549.632 1019.79 550.784 1019.79 553.106C1019.79 555.428 1020.73 556.526 1022.38 556.526Z" fill="black"/>
<path d="M921.632 542.182C921.632 537.091 917.634 532.934 912.606 532.679L912.116 532.666C906.862 532.666 902.602 536.927 902.602 542.182C902.602 547.436 906.862 551.696 912.116 551.696C917.207 551.696 921.364 547.698 921.619 542.671L921.632 542.182ZM917.172 542.182C917.172 544.973 914.908 547.236 912.116 547.236C909.325 547.236 907.062 544.973 907.062 542.182C907.062 539.39 909.325 537.126 912.116 537.126C914.908 537.126 917.172 539.39 917.172 542.182Z" fill="black"/>
</g>
<defs>
<clipPath id="clip0_134_96">
<rect width="1920" height="1080" fill="white"/>
</clipPath>
</defs>
</svg>
