<svg width="1920" height="1080" viewBox="0 0 1920 1080" fill="none" xmlns="http://www.w3.org/2000/svg">
<g clip-path="url(#clip0_134_752)">
<rect width="1920" height="1080" fill="#F1EFE8"/>
<path d="M-154.642 358.246H1970.47" stroke="black" stroke-width="1.27432" stroke-dasharray="15.29 15.29"/>
<path d="M-154.642 720.635H1970.47" stroke="black" stroke-width="1.27432" stroke-dasharray="15.29 15.29"/>
<path opacity="0.79" d="M464.683 359.5L2183 359.5" stroke="#9D9D9D" stroke-width="180"/>
<path opacity="0.79" d="M0 539.5L2183 539.5" stroke="url(#paint0_linear_134_752)" stroke-width="180"/>
<path opacity="0.79" d="M647.663 719.5L2183 719.5" stroke="#9D9D9D" stroke-width="180"/>
<path d="M60 -126.262L60.0001 1206.26" stroke="#F1EFE8"/>
<path d="M360 -126.262L360 1206.26" stroke="#F1EFE8"/>
<path d="M660 -126.262L660 1206.26" stroke="#F1EFE8"/>
<path d="M960 -126.262L960 1206.26" stroke="#F1EFE8"/>
<path d="M1260 -126.262L1260 1206.26" stroke="#F1EFE8"/>
<path d="M1560 -126.262L1560 1206.26" stroke="#F1EFE8"/>
<path d="M1860 -126.262L1860 1206.26" stroke="#F1EFE8"/>
<path d="M939.093 539.894C935.115 539.894 933.387 538.094 933.387 533.396C933.387 528.662 935.115 526.862 939.093 526.862C942.477 526.862 944.097 528.14 944.493 531.164L942.693 531.164C942.315 529.094 941.397 528.356 939.093 528.356C936.303 528.356 935.259 529.544 935.259 533.396C935.259 537.266 936.321 538.4 939.093 538.4C941.307 538.4 942.261 537.644 942.657 535.43L944.457 535.43C944.007 538.58 942.405 539.894 939.093 539.894ZM950.35 539.894C947.524 539.894 945.886 538.112 945.886 535.088C945.886 532.028 947.524 530.264 950.35 530.264C953.176 530.264 954.796 532.01 954.814 535.088C954.814 538.112 953.176 539.894 950.35 539.894ZM950.35 538.526C952.132 538.526 952.978 537.392 952.978 535.088C952.978 532.766 952.114 531.632 950.35 531.632C948.568 531.632 947.704 532.784 947.704 535.088C947.704 537.41 948.568 538.526 950.35 538.526ZM956.838 539.678L956.838 530.48L958.602 530.48L958.602 531.794C959.088 530.786 960.096 530.264 961.428 530.264C963.462 530.264 964.74 531.578 964.74 533.828L964.74 539.678L962.958 539.678L962.958 534.044C962.958 532.37 962.292 531.65 960.87 531.65C959.358 531.65 958.62 532.442 958.62 534.314L958.62 539.678L956.838 539.678ZM967.629 529.31C967.629 527.762 968.331 527.078 970.077 527.078L971.355 527.078L971.355 528.41L970.365 528.41C969.627 528.41 969.393 528.608 969.393 529.472L969.393 530.48L971.355 530.48L971.355 531.74L969.393 531.74L969.393 539.678L967.629 539.678L967.629 531.74L966.243 531.74L966.243 530.48L967.629 530.48L967.629 529.31ZM972.939 539.678L972.939 530.48L974.721 530.48L974.721 539.678L972.939 539.678ZM972.921 528.914L972.921 527.078L974.739 527.078L974.739 528.914L972.921 528.914ZM981.123 543.422C978.495 543.422 977.307 542.594 977.109 540.632L978.819 540.632C978.981 541.694 979.647 542.054 981.069 542.054C982.869 542.054 983.571 541.442 983.571 539.876L983.571 537.95C982.977 538.994 981.915 539.498 980.601 539.498C978.351 539.498 976.749 537.896 976.749 534.89C976.749 531.848 978.405 530.264 980.673 530.264C981.987 530.264 983.013 530.75 983.589 531.776L983.589 530.48L985.353 530.48L985.353 539.894C985.353 542.234 984.003 543.422 981.123 543.422ZM981.087 538.148C982.707 538.148 983.571 537.122 983.571 534.89C983.571 532.622 982.689 531.614 981.087 531.614C979.431 531.614 978.549 532.622 978.549 534.854C978.549 537.104 979.431 538.148 981.087 538.148ZM995.74 530.48L995.74 539.678L993.976 539.678L993.976 538.364C993.49 539.39 992.5 539.894 991.15 539.894C989.116 539.894 987.838 538.58 987.838 536.33L987.838 530.48L989.62 530.48L989.62 536.114C989.62 537.788 990.286 538.508 991.708 538.508C993.202 538.508 993.958 537.716 993.958 535.844L993.958 530.48L995.74 530.48ZM998.339 539.678L998.339 530.48L1000.08 530.48L1000.08 531.956C1000.46 530.894 1001.2 530.408 1002.5 530.408L1003.36 530.408L1003.36 531.956L1002.24 531.956C1000.7 531.956 1000.12 532.568 1000.12 534.638L1000.12 539.678L998.339 539.678ZM1005.01 539.678L1005.01 530.48L1006.79 530.48L1006.79 539.678L1005.01 539.678ZM1004.99 528.914L1004.99 527.078L1006.81 527.078L1006.81 528.914L1004.99 528.914ZM1009.39 539.678L1009.39 530.48L1011.15 530.48L1011.15 531.794C1011.64 530.786 1012.64 530.264 1013.98 530.264C1016.01 530.264 1017.29 531.578 1017.29 533.828L1017.29 539.678L1015.51 539.678L1015.51 534.044C1015.51 532.37 1014.84 531.65 1013.42 531.65C1011.91 531.65 1011.17 532.442 1011.17 534.314L1011.17 539.678L1009.39 539.678ZM1023.6 543.422C1020.97 543.422 1019.78 542.594 1019.58 540.632L1021.29 540.632C1021.45 541.694 1022.12 542.054 1023.54 542.054C1025.34 542.054 1026.04 541.442 1026.04 539.876L1026.04 537.95C1025.45 538.994 1024.39 539.498 1023.07 539.498C1020.82 539.498 1019.22 537.896 1019.22 534.89C1019.22 531.848 1020.88 530.264 1023.15 530.264C1024.46 530.264 1025.49 530.75 1026.06 531.776L1026.06 530.48L1027.83 530.48L1027.83 539.894C1027.83 542.234 1026.48 543.422 1023.6 543.422ZM1023.56 538.148C1025.18 538.148 1026.04 537.122 1026.04 534.89C1026.04 532.622 1025.16 531.614 1023.56 531.614C1021.9 531.614 1021.02 532.622 1021.02 534.854C1021.02 537.104 1021.9 538.148 1023.56 538.148ZM938.589 557.894C937.185 557.894 936.177 557.318 935.601 556.166L935.601 557.678L933.837 557.678L933.837 545.078L935.619 545.078L935.619 549.992C936.195 548.84 937.239 548.264 938.607 548.264C941.109 548.264 942.585 550.028 942.585 553.052C942.585 556.13 941.109 557.894 938.589 557.894ZM938.211 556.526C939.813 556.526 940.767 555.518 940.767 553.106C940.767 550.676 939.813 549.632 938.211 549.632C936.555 549.632 935.619 550.784 935.619 553.106C935.619 555.428 936.555 556.526 938.211 556.526ZM947.227 557.894C945.211 557.894 944.005 556.868 944.005 555.104C944.005 553.43 944.887 552.584 946.777 552.296L948.523 552.008C949.837 551.792 950.161 551.522 950.161 550.874C950.161 550.064 949.657 549.578 948.253 549.578C946.777 549.578 946.183 550.046 946.075 551.054L944.401 551.054C944.581 549.146 945.967 548.264 948.289 548.264C950.791 548.264 951.907 549.218 951.907 551.198L951.907 555.824C951.907 556.238 952.069 556.4 952.465 556.4L952.825 556.4L952.825 557.714C952.537 557.75 952.285 557.768 951.943 557.768C950.989 557.768 950.413 557.408 950.287 556.436C949.711 557.444 948.613 557.894 947.227 557.894ZM947.659 556.58C948.973 556.58 950.179 555.932 950.179 554.402L950.179 552.656C949.873 552.836 949.441 552.98 948.649 553.142L947.335 553.412C946.129 553.664 945.769 554.168 945.769 554.996C945.769 555.986 946.435 556.58 947.659 556.58ZM958.493 557.894C955.721 557.894 954.065 556.13 954.065 553.088C954.065 549.992 955.739 548.264 958.493 548.264C960.887 548.264 962.309 549.29 962.687 551.504L960.905 551.504C960.617 550.154 959.879 549.632 958.511 549.632C956.801 549.632 955.883 550.73 955.883 553.088C955.883 555.446 956.819 556.526 958.511 556.526C959.933 556.526 960.635 555.95 960.923 554.582L962.687 554.582C962.327 556.724 960.959 557.894 958.493 557.894ZM970.587 557.678L966.393 552.818L966.393 557.678L964.611 557.678L964.611 545.078L966.393 545.078L966.393 552.71L970.389 548.48L972.477 548.48L968.373 552.71L972.855 557.678L970.587 557.678ZM977.539 557.894C974.677 557.894 973.057 556.058 973.057 553.088C973.057 550.118 974.677 548.264 977.503 548.264C980.437 548.264 981.787 550.244 981.787 552.764L981.787 553.376L974.857 553.376C974.929 555.572 975.901 556.526 977.539 556.526C978.817 556.526 979.555 556.094 979.915 555.05L981.643 555.05C981.175 556.958 979.717 557.894 977.539 557.894ZM977.503 549.614C976.063 549.614 975.127 550.37 974.911 552.152L979.987 552.152C979.879 550.478 979.069 549.614 977.503 549.614ZM983.78 557.678L983.78 548.48L985.544 548.48L985.544 549.794C986.03 548.786 987.038 548.264 988.37 548.264C990.404 548.264 991.682 549.578 991.682 551.828L991.682 557.678L989.9 557.678L989.9 552.044C989.9 550.37 989.234 549.65 987.812 549.65C986.3 549.65 985.562 550.442 985.562 552.314L985.562 557.678L983.78 557.678ZM997.611 557.894C995.091 557.894 993.615 556.112 993.615 553.052C993.615 550.01 995.109 548.264 997.611 548.264C998.979 548.264 1000.02 548.84 1000.6 549.992L1000.6 545.078L1002.36 545.078L1002.36 557.678L1000.62 557.678L1000.62 556.13C1000.06 557.282 999.033 557.894 997.611 557.894ZM997.989 556.526C999.663 556.526 1000.6 555.41 1000.6 553.106C1000.6 550.766 999.645 549.632 997.989 549.632C996.387 549.632 995.433 550.694 995.433 553.106C995.433 555.536 996.387 556.526 997.989 556.526ZM1010.15 547.31C1010.15 545.762 1010.86 545.078 1012.6 545.078L1013.88 545.078L1013.88 546.41L1012.89 546.41C1012.15 546.41 1011.92 546.608 1011.92 547.472L1011.92 548.48L1013.88 548.48L1013.88 549.74L1011.92 549.74L1011.92 557.678L1010.15 557.678L1010.15 549.74L1008.77 549.74L1008.77 548.48L1010.15 548.48L1010.15 547.31ZM1015.35 557.678L1015.35 548.48L1017.1 548.48L1017.1 549.956C1017.47 548.894 1018.21 548.408 1019.51 548.408L1020.37 548.408L1020.37 549.956L1019.26 549.956C1017.71 549.956 1017.13 550.568 1017.13 552.638L1017.13 557.678L1015.35 557.678ZM1025.59 557.894C1022.76 557.894 1021.12 556.112 1021.12 553.088C1021.12 550.028 1022.76 548.264 1025.59 548.264C1028.41 548.264 1030.03 550.01 1030.05 553.088C1030.05 556.112 1028.41 557.894 1025.59 557.894ZM1025.59 556.526C1027.37 556.526 1028.22 555.392 1028.22 553.088C1028.22 550.766 1027.35 549.632 1025.59 549.632C1023.81 549.632 1022.94 550.784 1022.94 553.088C1022.94 555.41 1023.81 556.526 1025.59 556.526ZM1032.07 557.678L1032.07 548.48L1033.84 548.48L1033.84 549.704C1034.25 548.768 1035.15 548.264 1036.34 548.264C1037.64 548.264 1038.5 548.894 1038.84 549.902C1039.33 548.804 1040.25 548.264 1041.61 548.264C1043.54 548.264 1044.71 549.434 1044.71 551.648L1044.71 557.678L1042.93 557.678L1042.93 551.666C1042.93 550.226 1042.35 549.65 1041.16 549.65C1039.96 549.65 1039.27 550.316 1039.27 551.972L1039.27 557.678L1037.51 557.678L1037.51 551.756C1037.51 550.244 1036.93 549.65 1035.78 549.65C1034.56 549.65 1033.86 550.334 1033.86 551.972L1033.86 557.678L1032.07 557.678ZM1055.73 561.422C1053.1 561.422 1051.91 560.594 1051.71 558.632L1053.42 558.632C1053.59 559.694 1054.25 560.054 1055.67 560.054C1057.47 560.054 1058.18 559.442 1058.18 557.876L1058.18 555.95C1057.58 556.994 1056.52 557.498 1055.21 557.498C1052.96 557.498 1051.35 555.896 1051.35 552.89C1051.35 549.848 1053.01 548.264 1055.28 548.264C1056.59 548.264 1057.62 548.75 1058.19 549.776L1058.19 548.48L1059.96 548.48L1059.96 557.894C1059.96 560.234 1058.61 561.422 1055.73 561.422ZM1055.69 556.148C1057.31 556.148 1058.18 555.122 1058.18 552.89C1058.18 550.622 1057.29 549.614 1055.69 549.614C1054.04 549.614 1053.15 550.622 1053.15 552.854C1053.15 555.104 1054.04 556.148 1055.69 556.148ZM1062.55 557.678L1062.55 548.48L1064.33 548.48L1064.33 557.678L1062.55 557.678ZM1062.53 546.914L1062.53 545.078L1064.35 545.078L1064.35 546.914L1062.53 546.914ZM1069.74 557.678C1067.94 557.678 1067.31 557.048 1067.31 555.464L1067.31 549.74L1065.96 549.74L1065.96 548.48L1067.31 548.48L1067.31 545.78L1069.09 545.78L1069.09 548.48L1071.05 548.48L1071.05 549.74L1069.09 549.74L1069.09 555.32C1069.09 556.094 1069.34 556.328 1070.17 556.328L1071.05 556.328L1071.05 557.678L1069.74 557.678ZM1073.05 557.678L1073.05 545.078L1074.83 545.078L1074.83 549.758C1075.34 548.75 1076.33 548.264 1077.64 548.264C1079.68 548.264 1080.95 549.578 1080.95 551.828L1080.95 557.678L1079.17 557.678L1079.17 552.044C1079.17 550.37 1078.51 549.65 1077.08 549.65C1075.57 549.65 1074.83 550.442 1074.83 552.314L1074.83 557.678L1073.05 557.678ZM1091.24 548.48L1091.24 557.678L1089.48 557.678L1089.48 556.364C1088.99 557.39 1088 557.894 1086.65 557.894C1084.62 557.894 1083.34 556.58 1083.34 554.33L1083.34 548.48L1085.12 548.48L1085.12 554.114C1085.12 555.788 1085.79 556.508 1087.21 556.508C1088.7 556.508 1089.46 555.716 1089.46 553.844L1089.46 548.48L1091.24 548.48ZM1098.59 557.894C1097.19 557.894 1096.18 557.318 1095.6 556.166L1095.6 557.678L1093.84 557.678L1093.84 545.078L1095.62 545.078L1095.62 549.992C1096.2 548.84 1097.24 548.264 1098.61 548.264C1101.11 548.264 1102.59 550.028 1102.59 553.052C1102.59 556.13 1101.11 557.894 1098.59 557.894ZM1098.21 556.526C1099.81 556.526 1100.77 555.518 1100.77 553.106C1100.77 550.676 1099.81 549.632 1098.21 549.632C1096.56 549.632 1095.62 550.784 1095.62 553.106C1095.62 555.428 1096.56 556.526 1098.21 556.526Z" fill="black"/>
<path d="M912.606 532.679C917.633 532.934 921.631 537.091 921.631 542.182L921.618 542.671C921.363 547.698 917.207 551.696 912.116 551.696C906.862 551.696 902.601 547.436 902.601 542.182C902.601 536.927 906.861 532.667 912.115 532.666L912.606 532.679ZM912.115 537.126C909.324 537.127 907.061 539.39 907.061 542.182C907.061 544.973 909.324 547.236 912.115 547.236C914.907 547.236 917.171 544.973 917.171 542.182C917.171 539.39 914.907 537.126 912.115 537.126ZM912.116 539.797C913.433 539.797 914.5 540.864 914.5 542.181C914.5 543.497 913.433 544.564 912.116 544.564C910.8 544.564 909.733 543.497 909.733 542.181C909.733 540.864 910.8 539.797 912.116 539.797Z" fill="black"/>
<path d="M933.927 365.997L933.927 353.397L938.607 353.397C942.747 353.397 944.547 354.963 944.547 359.697C944.547 364.431 942.747 365.997 938.607 365.997L933.927 365.997ZM938.607 364.485C941.577 364.485 942.675 363.477 942.675 359.697C942.675 355.899 941.577 354.891 938.607 354.891L935.745 354.891L935.745 364.485L938.607 364.485ZM950.597 366.213C947.735 366.213 946.115 364.377 946.115 361.407C946.115 358.437 947.735 356.583 950.561 356.583C953.495 356.583 954.845 358.563 954.845 361.083L954.845 361.695L947.915 361.695C947.987 363.891 948.959 364.845 950.597 364.845C951.875 364.845 952.613 364.413 952.973 363.369L954.701 363.369C954.233 365.277 952.775 366.213 950.597 366.213ZM950.561 357.933C949.121 357.933 948.185 358.689 947.969 360.471L953.045 360.471C952.937 358.797 952.127 357.933 950.561 357.933ZM961.589 356.583C964.109 356.583 965.585 358.365 965.585 361.425C965.585 364.467 964.109 366.213 961.607 366.213C960.221 366.213 959.195 365.655 958.619 364.485L958.619 369.399L956.837 369.399L956.837 356.799L958.601 356.799L958.601 358.311C959.177 357.159 960.185 356.583 961.589 356.583ZM961.211 357.951C959.555 357.951 958.619 359.067 958.619 361.371C958.619 363.711 959.555 364.845 961.211 364.845C962.813 364.845 963.767 363.783 963.767 361.371C963.767 358.941 962.813 357.951 961.211 357.951ZM967.617 365.997L967.617 353.397L969.399 353.397L969.399 365.997L967.617 365.997ZM975.886 366.213C973.06 366.213 971.422 364.431 971.422 361.407C971.422 358.347 973.06 356.583 975.886 356.583C978.712 356.583 980.332 358.329 980.35 361.407C980.35 364.431 978.712 366.213 975.886 366.213ZM975.886 364.845C977.668 364.845 978.514 363.711 978.514 361.407C978.514 359.085 977.65 357.951 975.886 357.951C974.104 357.951 973.24 359.103 973.24 361.407C973.24 363.729 974.104 364.845 975.886 364.845ZM981.964 369.399L981.964 368.013L982.9 368.013C983.53 368.013 983.98 367.779 984.286 366.987L984.646 366.015L981.136 356.799L982.972 356.799L985.51 363.963L988.174 356.799L989.956 356.799L985.672 367.635C985.132 369.003 984.322 369.399 983.062 369.399L981.964 369.399ZM991.448 365.997L991.448 356.799L993.23 356.799L993.23 365.997L991.448 365.997ZM991.43 355.233L991.43 353.397L993.248 353.397L993.248 355.233L991.43 355.233ZM995.829 365.997L995.829 356.799L997.593 356.799L997.593 358.113C998.079 357.105 999.087 356.583 1000.42 356.583C1002.45 356.583 1003.73 357.897 1003.73 360.147L1003.73 365.997L1001.95 365.997L1001.95 360.363C1001.95 358.689 1001.28 357.969 999.861 357.969C998.349 357.969 997.611 358.761 997.611 360.633L997.611 365.997L995.829 365.997ZM1010.04 369.741C1007.41 369.741 1006.22 368.913 1006.02 366.951L1007.73 366.951C1007.9 368.013 1008.56 368.373 1009.98 368.373C1011.78 368.373 1012.49 367.761 1012.49 366.195L1012.49 364.269C1011.89 365.313 1010.83 365.817 1009.52 365.817C1007.27 365.817 1005.66 364.215 1005.66 361.209C1005.66 358.167 1007.32 356.583 1009.59 356.583C1010.9 356.583 1011.93 357.069 1012.5 358.095L1012.5 356.799L1014.27 356.799L1014.27 366.213C1014.27 368.553 1012.92 369.741 1010.04 369.741ZM1010 364.467C1011.62 364.467 1012.49 363.441 1012.49 361.209C1012.49 358.941 1011.6 357.933 1010 357.933C1008.35 357.933 1007.46 358.941 1007.46 361.173C1007.46 363.423 1008.35 364.467 1010 364.467ZM1022.06 355.629C1022.06 354.081 1022.76 353.397 1024.51 353.397L1025.79 353.397L1025.79 354.729L1024.8 354.729C1024.06 354.729 1023.83 354.927 1023.83 355.791L1023.83 356.799L1025.79 356.799L1025.79 358.059L1023.83 358.059L1023.83 365.997L1022.06 365.997L1022.06 358.059L1020.68 358.059L1020.68 356.799L1022.06 356.799L1022.06 355.629ZM1027.26 365.997L1027.26 356.799L1029 356.799L1029 358.275C1029.38 357.213 1030.12 356.727 1031.42 356.727L1032.28 356.727L1032.28 358.275L1031.16 358.275C1029.62 358.275 1029.04 358.887 1029.04 360.957L1029.04 365.997L1027.26 365.997ZM1037.5 366.213C1034.67 366.213 1033.03 364.431 1033.03 361.407C1033.03 358.347 1034.67 356.583 1037.5 356.583C1040.32 356.583 1041.94 358.329 1041.96 361.407C1041.96 364.431 1040.32 366.213 1037.5 366.213ZM1037.5 364.845C1039.28 364.845 1040.12 363.711 1040.12 361.407C1040.12 359.085 1039.26 357.951 1037.5 357.951C1035.71 357.951 1034.85 359.103 1034.85 361.407C1034.85 363.729 1035.71 364.845 1037.5 364.845ZM1043.98 365.997L1043.98 356.799L1045.75 356.799L1045.75 358.113C1046.23 357.105 1047.24 356.583 1048.57 356.583C1050.61 356.583 1051.89 357.897 1051.89 360.147L1051.89 365.997L1050.1 365.997L1050.1 360.363C1050.1 358.689 1049.44 357.969 1048.02 357.969C1046.5 357.969 1045.77 358.761 1045.77 360.633L1045.77 365.997L1043.98 365.997ZM1057.11 365.997C1055.31 365.997 1054.68 365.367 1054.68 363.783L1054.68 358.059L1053.33 358.059L1053.33 356.799L1054.68 356.799L1054.68 354.099L1056.47 354.099L1056.47 356.799L1058.43 356.799L1058.43 358.059L1056.47 358.059L1056.47 363.639C1056.47 364.413 1056.72 364.647 1057.55 364.647L1058.43 364.647L1058.43 365.997L1057.11 365.997ZM1064.18 366.213C1061.31 366.213 1059.69 364.377 1059.69 361.407C1059.69 358.437 1061.31 356.583 1064.14 356.583C1067.07 356.583 1068.42 358.563 1068.42 361.083L1068.42 361.695L1061.49 361.695C1061.57 363.891 1062.54 364.845 1064.18 364.845C1065.45 364.845 1066.19 364.413 1066.55 363.369L1068.28 363.369C1067.81 365.277 1066.35 366.213 1064.18 366.213ZM1064.14 357.933C1062.7 357.933 1061.76 358.689 1061.55 360.471L1066.62 360.471C1066.52 358.797 1065.71 357.933 1064.14 357.933ZM1070.42 365.997L1070.42 356.799L1072.18 356.799L1072.18 358.113C1072.67 357.105 1073.67 356.583 1075.01 356.583C1077.04 356.583 1078.32 357.897 1078.32 360.147L1078.32 365.997L1076.54 365.997L1076.54 360.363C1076.54 358.689 1075.87 357.969 1074.45 357.969C1072.94 357.969 1072.2 358.761 1072.2 360.633L1072.2 365.997L1070.42 365.997ZM1084.25 366.213C1081.73 366.213 1080.25 364.431 1080.25 361.371C1080.25 358.329 1081.74 356.583 1084.25 356.583C1085.61 356.583 1086.66 357.159 1087.23 358.311L1087.23 353.397L1089 353.397L1089 365.997L1087.25 365.997L1087.25 364.449C1086.69 365.601 1085.67 366.213 1084.25 366.213ZM1084.62 364.845C1086.3 364.845 1087.23 363.729 1087.23 361.425C1087.23 359.085 1086.28 357.951 1084.62 357.951C1083.02 357.951 1082.07 359.013 1082.07 361.425C1082.07 363.855 1083.02 364.845 1084.62 364.845Z" fill="black"/>
<path d="M921.631 359.501C921.631 354.41 917.633 350.253 912.605 349.998L912.115 349.985C906.861 349.986 902.601 354.246 902.601 359.501C902.601 364.756 906.861 369.015 912.115 369.016C917.206 369.016 921.363 365.018 921.618 359.99L921.631 359.501ZM917.171 359.501C917.171 362.293 914.907 364.556 912.115 364.556C909.324 364.555 907.061 362.292 907.061 359.501C907.061 356.71 909.324 354.446 912.115 354.445C914.907 354.445 917.171 356.709 917.171 359.501Z" fill="black"/>
<path d="M933.927 716.997L933.927 704.397L938.607 704.397C942.747 704.397 944.547 705.963 944.547 710.697C944.547 715.431 942.747 716.997 938.607 716.997L933.927 716.997ZM938.607 715.485C941.577 715.485 942.675 714.477 942.675 710.697C942.675 706.899 941.577 705.891 938.607 705.891L935.745 705.891L935.745 715.485L938.607 715.485ZM950.596 717.213C947.734 717.213 946.114 715.377 946.114 712.407C946.114 709.437 947.734 707.583 950.56 707.583C953.494 707.583 954.844 709.563 954.844 712.083L954.844 712.695L947.914 712.695C947.986 714.891 948.958 715.845 950.596 715.845C951.874 715.845 952.612 715.413 952.972 714.369L954.7 714.369C954.232 716.277 952.774 717.213 950.596 717.213ZM950.56 708.933C949.12 708.933 948.184 709.689 947.968 711.471L953.044 711.471C952.936 709.797 952.126 708.933 950.56 708.933ZM961.589 707.583C964.109 707.583 965.585 709.365 965.585 712.425C965.585 715.467 964.109 717.213 961.607 717.213C960.221 717.213 959.195 716.655 958.619 715.485L958.619 720.399L956.837 720.399L956.837 707.799L958.601 707.799L958.601 709.311C959.177 708.159 960.185 707.583 961.589 707.583ZM961.211 708.951C959.555 708.951 958.619 710.067 958.619 712.371C958.619 714.711 959.555 715.845 961.211 715.845C962.813 715.845 963.767 714.783 963.767 712.371C963.767 709.941 962.813 708.951 961.211 708.951ZM967.617 716.997L967.617 704.397L969.399 704.397L969.399 716.997L967.617 716.997ZM975.886 717.213C973.06 717.213 971.422 715.431 971.422 712.407C971.422 709.347 973.06 707.583 975.886 707.583C978.712 707.583 980.332 709.329 980.35 712.407C980.35 715.431 978.712 717.213 975.886 717.213ZM975.886 715.845C977.668 715.845 978.514 714.711 978.514 712.407C978.514 710.085 977.65 708.951 975.886 708.951C974.104 708.951 973.24 710.103 973.24 712.407C973.24 714.729 974.104 715.845 975.886 715.845ZM981.964 720.399L981.964 719.013L982.9 719.013C983.53 719.013 983.98 718.779 984.286 717.987L984.646 717.015L981.136 707.799L982.972 707.799L985.51 714.963L988.174 707.799L989.956 707.799L985.672 718.635C985.132 720.003 984.322 720.399 983.062 720.399L981.964 720.399ZM991.448 716.997L991.448 707.799L993.23 707.799L993.23 716.997L991.448 716.997ZM991.43 706.233L991.43 704.397L993.248 704.397L993.248 706.233L991.43 706.233ZM995.829 716.997L995.829 707.799L997.593 707.799L997.593 709.113C998.079 708.105 999.087 707.583 1000.42 707.583C1002.45 707.583 1003.73 708.897 1003.73 711.147L1003.73 716.997L1001.95 716.997L1001.95 711.363C1001.95 709.689 1001.28 708.969 999.861 708.969C998.349 708.969 997.611 709.761 997.611 711.633L997.611 716.997L995.829 716.997ZM1010.04 720.741C1007.41 720.741 1006.22 719.913 1006.02 717.951L1007.73 717.951C1007.9 719.013 1008.56 719.373 1009.98 719.373C1011.78 719.373 1012.49 718.761 1012.49 717.195L1012.49 715.269C1011.89 716.313 1010.83 716.817 1009.52 716.817C1007.27 716.817 1005.66 715.215 1005.66 712.209C1005.66 709.167 1007.32 707.583 1009.59 707.583C1010.9 707.583 1011.93 708.069 1012.5 709.095L1012.5 707.799L1014.27 707.799L1014.27 717.213C1014.27 719.553 1012.92 720.741 1010.04 720.741ZM1010 715.467C1011.62 715.467 1012.49 714.441 1012.49 712.209C1012.49 709.941 1011.6 708.933 1010 708.933C1008.35 708.933 1007.46 709.941 1007.46 712.173C1007.46 714.423 1008.35 715.467 1010 715.467ZM1026.33 707.583C1028.85 707.583 1030.32 709.365 1030.32 712.425C1030.32 715.467 1028.85 717.213 1026.35 717.213C1024.96 717.213 1023.93 716.655 1023.36 715.485L1023.36 720.399L1021.58 720.399L1021.58 707.799L1023.34 707.799L1023.34 709.311C1023.92 708.159 1024.92 707.583 1026.33 707.583ZM1025.95 708.951C1024.29 708.951 1023.36 710.067 1023.36 712.371C1023.36 714.711 1024.29 715.845 1025.95 715.845C1027.55 715.845 1028.51 714.783 1028.51 712.371C1028.51 709.941 1027.55 708.951 1025.95 708.951ZM1036.24 717.213C1033.42 717.213 1031.78 715.431 1031.78 712.407C1031.78 709.347 1033.42 707.583 1036.24 707.583C1039.07 707.583 1040.69 709.329 1040.71 712.407C1040.71 715.431 1039.07 717.213 1036.24 717.213ZM1036.24 715.845C1038.03 715.845 1038.87 714.711 1038.87 712.407C1038.87 710.085 1038.01 708.951 1036.24 708.951C1034.46 708.951 1033.6 710.103 1033.6 712.407C1033.6 714.729 1034.46 715.845 1036.24 715.845ZM1046.1 717.213C1043.59 717.213 1042.17 716.241 1041.97 714.297L1043.65 714.297C1043.81 715.395 1044.66 715.917 1046.11 715.917C1047.57 715.917 1048.18 715.395 1048.18 714.513C1048.18 713.739 1047.77 713.415 1046.51 713.145L1045.03 712.839C1043.09 712.443 1042.35 711.579 1042.35 710.247C1042.35 708.501 1043.79 707.583 1045.86 707.583C1047.9 707.583 1049.34 708.483 1049.57 710.319L1047.95 710.319C1047.75 709.401 1047.1 708.879 1045.86 708.879C1044.67 708.879 1044.01 709.329 1044.01 710.067C1044.01 710.679 1044.28 711.039 1045.5 711.291L1047.27 711.651C1049.16 712.029 1049.93 712.875 1049.93 714.351C1049.93 716.151 1048.58 717.213 1046.1 717.213ZM1054.61 716.997C1052.81 716.997 1052.18 716.367 1052.18 714.783L1052.18 709.059L1050.83 709.059L1050.83 707.799L1052.18 707.799L1052.18 705.099L1053.97 705.099L1053.97 707.799L1055.93 707.799L1055.93 709.059L1053.97 709.059L1053.97 714.639C1053.97 715.413 1054.22 715.647 1055.05 715.647L1055.93 715.647L1055.93 716.997L1054.61 716.997ZM1061.57 720.741C1058.94 720.741 1057.75 719.913 1057.55 717.951L1059.26 717.951C1059.43 719.013 1060.09 719.373 1061.51 719.373C1063.31 719.373 1064.02 718.761 1064.02 717.195L1064.02 715.269C1063.42 716.313 1062.36 716.817 1061.05 716.817C1058.8 716.817 1057.19 715.215 1057.19 712.209C1057.19 709.167 1058.85 707.583 1061.12 707.583C1062.43 707.583 1063.46 708.069 1064.03 709.095L1064.03 707.799L1065.8 707.799L1065.8 717.213C1065.8 719.553 1064.45 720.741 1061.57 720.741ZM1061.53 715.467C1063.15 715.467 1064.02 714.441 1064.02 712.209C1064.02 709.941 1063.13 708.933 1061.53 708.933C1059.88 708.933 1058.99 709.941 1058.99 712.173C1058.99 714.423 1059.88 715.467 1061.53 715.467ZM1068.39 716.997L1068.39 707.799L1070.14 707.799L1070.14 709.275C1070.51 708.213 1071.25 707.727 1072.55 707.727L1073.41 707.727L1073.41 709.275L1072.3 709.275C1070.75 709.275 1070.17 709.887 1070.17 711.957L1070.17 716.997L1068.39 716.997ZM1078.65 717.213C1075.78 717.213 1074.16 715.377 1074.16 712.407C1074.16 709.437 1075.78 707.583 1078.61 707.583C1081.54 707.583 1082.89 709.563 1082.89 712.083L1082.89 712.695L1075.96 712.695C1076.04 714.891 1077.01 715.845 1078.65 715.845C1079.92 715.845 1080.66 715.413 1081.02 714.369L1082.75 714.369C1082.28 716.277 1080.82 717.213 1078.65 717.213ZM1078.61 708.933C1077.17 708.933 1076.23 709.689 1076.02 711.471L1081.09 711.471C1080.99 709.797 1080.18 708.933 1078.61 708.933ZM1088.25 717.213C1085.75 717.213 1084.33 716.241 1084.13 714.297L1085.8 714.297C1085.97 715.395 1086.81 715.917 1088.27 715.917C1089.73 715.917 1090.34 715.395 1090.34 714.513C1090.34 713.739 1089.93 713.415 1088.67 713.145L1087.19 712.839C1085.25 712.443 1084.51 711.579 1084.51 710.247C1084.51 708.501 1085.95 707.583 1088.02 707.583C1090.05 707.583 1091.49 708.483 1091.73 710.319L1090.11 710.319C1089.91 709.401 1089.26 708.879 1088.02 708.879C1086.83 708.879 1086.16 709.329 1086.16 710.067C1086.16 710.679 1086.43 711.039 1087.66 711.291L1089.42 711.651C1091.31 712.029 1092.09 712.875 1092.09 714.351C1092.09 716.151 1090.74 717.213 1088.25 717.213ZM937.275 735.213C934.755 735.213 933.279 733.431 933.279 730.371C933.279 727.329 934.773 725.583 937.275 725.583C938.643 725.583 939.687 726.159 940.263 727.311L940.263 722.397L942.027 722.397L942.027 734.997L940.281 734.997L940.281 733.449C939.723 734.601 938.697 735.213 937.275 735.213ZM937.653 733.845C939.327 733.845 940.263 732.729 940.263 730.425C940.263 728.085 939.309 726.951 937.653 726.951C936.051 726.951 935.097 728.013 935.097 730.425C935.097 732.855 936.051 733.845 937.653 733.845ZM948.504 735.213C945.678 735.213 944.04 733.431 944.04 730.407C944.04 727.347 945.678 725.583 948.504 725.583C951.33 725.583 952.95 727.329 952.968 730.407C952.968 733.431 951.33 735.213 948.504 735.213ZM948.504 733.845C950.286 733.845 951.132 732.711 951.132 730.407C951.132 728.085 950.268 726.951 948.504 726.951C946.722 726.951 945.858 728.103 945.858 730.407C945.858 732.729 946.722 733.845 948.504 733.845ZM958.862 735.213C956.09 735.213 954.434 733.449 954.434 730.407C954.434 727.311 956.108 725.583 958.862 725.583C961.256 725.583 962.678 726.609 963.056 728.823L961.274 728.823C960.986 727.473 960.248 726.951 958.88 726.951C957.17 726.951 956.252 728.049 956.252 730.407C956.252 732.765 957.188 733.845 958.88 733.845C960.302 733.845 961.004 733.269 961.292 731.901L963.056 731.901C962.696 734.043 961.328 735.213 958.862 735.213ZM970.956 734.997L966.762 730.137L966.762 734.997L964.98 734.997L964.98 722.397L966.762 722.397L966.762 730.029L970.758 725.799L972.846 725.799L968.742 730.029L973.224 734.997L970.956 734.997ZM977.908 735.213C975.046 735.213 973.426 733.377 973.426 730.407C973.426 727.437 975.046 725.583 977.872 725.583C980.806 725.583 982.156 727.563 982.156 730.083L982.156 730.695L975.226 730.695C975.298 732.891 976.27 733.845 977.908 733.845C979.186 733.845 979.924 733.413 980.284 732.369L982.012 732.369C981.544 734.277 980.086 735.213 977.908 735.213ZM977.872 726.933C976.432 726.933 975.496 727.689 975.28 729.471L980.356 729.471C980.248 727.797 979.438 726.933 977.872 726.933ZM984.149 734.997L984.149 725.799L985.895 725.799L985.895 727.275C986.273 726.213 987.011 725.727 988.307 725.727L989.171 725.727L989.171 727.275L988.055 727.275C986.507 727.275 985.931 727.887 985.931 729.957L985.931 734.997L984.149 734.997ZM995.108 734.997L995.108 725.799L996.89 725.799L996.89 734.997L995.108 734.997ZM995.09 724.233L995.09 722.397L996.908 722.397L996.908 724.233L995.09 724.233ZM999.49 734.997L999.49 725.799L1001.25 725.799L1001.25 727.023C1001.67 726.087 1002.57 725.583 1003.76 725.583C1005.05 725.583 1005.92 726.213 1006.26 727.221C1006.74 726.123 1007.66 725.583 1009.03 725.583C1010.96 725.583 1012.13 726.753 1012.13 728.967L1012.13 734.997L1010.34 734.997L1010.34 728.985C1010.34 727.545 1009.77 726.969 1008.58 726.969C1007.37 726.969 1006.69 727.635 1006.69 729.291L1006.69 734.997L1004.93 734.997L1004.93 729.075C1004.93 727.563 1004.35 726.969 1003.2 726.969C1001.97 726.969 1001.27 727.653 1001.27 729.291L1001.27 734.997L999.49 734.997ZM1017.22 735.213C1015.2 735.213 1014 734.187 1014 732.423C1014 730.749 1014.88 729.903 1016.77 729.615L1018.52 729.327C1019.83 729.111 1020.15 728.841 1020.15 728.193C1020.15 727.383 1019.65 726.897 1018.25 726.897C1016.77 726.897 1016.18 727.365 1016.07 728.373L1014.39 728.373C1014.57 726.465 1015.96 725.583 1018.28 725.583C1020.78 725.583 1021.9 726.537 1021.9 728.517L1021.9 733.143C1021.9 733.557 1022.06 733.719 1022.46 733.719L1022.82 733.719L1022.82 735.033C1022.53 735.069 1022.28 735.087 1021.94 735.087C1020.98 735.087 1020.41 734.727 1020.28 733.755C1019.7 734.763 1018.61 735.213 1017.22 735.213ZM1017.65 733.899C1018.97 733.899 1020.17 733.251 1020.17 731.721L1020.17 729.975C1019.87 730.155 1019.43 730.299 1018.64 730.461L1017.33 730.731C1016.12 730.983 1015.76 731.487 1015.76 732.315C1015.76 733.305 1016.43 733.899 1017.65 733.899ZM1028.43 738.741C1025.81 738.741 1024.62 737.913 1024.42 735.951L1026.13 735.951C1026.29 737.013 1026.96 737.373 1028.38 737.373C1030.18 737.373 1030.88 736.761 1030.88 735.195L1030.88 733.269C1030.29 734.313 1029.23 734.817 1027.91 734.817C1025.66 734.817 1024.06 733.215 1024.06 730.209C1024.06 727.167 1025.72 725.583 1027.98 725.583C1029.3 725.583 1030.32 726.069 1030.9 727.095L1030.9 725.799L1032.66 725.799L1032.66 735.213C1032.66 737.553 1031.31 738.741 1028.43 738.741ZM1028.4 733.467C1030.02 733.467 1030.88 732.441 1030.88 730.209C1030.88 727.941 1030 726.933 1028.4 726.933C1026.74 726.933 1025.86 727.941 1025.86 730.173C1025.86 732.423 1026.74 733.467 1028.4 733.467ZM1039.16 735.213C1036.3 735.213 1034.68 733.377 1034.68 730.407C1034.68 727.437 1036.3 725.583 1039.13 725.583C1042.06 725.583 1043.41 727.563 1043.41 730.083L1043.41 730.695L1036.48 730.695C1036.55 732.891 1037.52 733.845 1039.16 733.845C1040.44 733.845 1041.18 733.413 1041.54 732.369L1043.27 732.369C1042.8 734.277 1041.34 735.213 1039.16 735.213ZM1039.13 726.933C1037.69 726.933 1036.75 727.689 1036.53 729.471L1041.61 729.471C1041.5 727.797 1040.69 726.933 1039.13 726.933Z" fill="black"/>
<path d="M921.631 719.501C921.631 714.41 917.633 710.253 912.605 709.998L912.115 709.985C906.86 709.986 902.6 714.246 902.6 719.501C902.601 724.756 906.86 729.015 912.115 729.016C917.206 729.016 921.363 725.018 921.618 719.99L921.631 719.501ZM917.171 719.501C917.17 722.293 914.907 724.556 912.115 724.556C909.324 724.555 907.061 722.292 907.06 719.501C907.06 716.71 909.324 714.446 912.115 714.445C914.907 714.445 917.171 716.709 917.171 719.501Z" fill="black"/>
</g>
<defs>
<linearGradient id="paint0_linear_134_752" x1="4.37114e-08" y1="540" x2="2183" y2="540" gradientUnits="userSpaceOnUse">
<stop offset="0.586538" stop-color="#9D9D9D"/>
<stop offset="0.802885" stop-color="#D8AB56"/>
</linearGradient>
<clipPath id="clip0_134_752">
<rect width="1920" height="1080" fill="white"/>
</clipPath>
</defs>
</svg>
