<svg width="1920" height="1080" viewBox="0 0 1920 1080" fill="none" xmlns="http://www.w3.org/2000/svg">
<g clip-path="url(#clip0_150_2)">
<rect width="1920" height="1080" fill="#F1EFE8"/>
<path opacity="0.89" d="M0 359.5L2183 359.5" stroke="url(#paint0_linear_150_2)" stroke-width="180"/>
<path opacity="0.79" d="M0 539.5L2183 539.5" stroke="url(#paint1_linear_150_2)" stroke-width="180"/>
<path opacity="0.69" d="M0 719.5L2183 719.5" stroke="url(#paint2_linear_150_2)" stroke-width="180"/>
<path d="M60 -126.262L60.0001 1206.26" stroke="#F1EFE8"/>
<path d="M360 -126.262L360 1206.26" stroke="#F1EFE8"/>
<path d="M660 -126.262L660 1206.26" stroke="#F1EFE8"/>
<path d="M960 -126.262L960 1206.26" stroke="#F1EFE8"/>
<path d="M1260 -126.262L1260 1206.26" stroke="#F1EFE8"/>
<path d="M1560 -126.262L1560 1206.26" stroke="#F1EFE8"/>
<path d="M1860 -126.262L1860 1206.26" stroke="#F1EFE8"/>
<path d="M939.093 539.894C935.115 539.894 933.387 538.094 933.387 533.396C933.387 528.662 935.115 526.862 939.093 526.862C942.477 526.862 944.097 528.14 944.493 531.164L942.693 531.164C942.315 529.094 941.397 528.356 939.093 528.356C936.303 528.356 935.259 529.544 935.259 533.396C935.259 537.266 936.321 538.4 939.093 538.4C941.307 538.4 942.261 537.644 942.657 535.43L944.457 535.43C944.007 538.58 942.405 539.894 939.093 539.894ZM950.35 539.894C947.524 539.894 945.886 538.112 945.886 535.088C945.886 532.028 947.524 530.264 950.35 530.264C953.176 530.264 954.796 532.01 954.814 535.088C954.814 538.112 953.176 539.894 950.35 539.894ZM950.35 538.526C952.132 538.526 952.978 537.392 952.978 535.088C952.978 532.766 952.114 531.632 950.35 531.632C948.568 531.632 947.704 532.784 947.704 535.088C947.704 537.41 948.568 538.526 950.35 538.526ZM956.837 539.678L956.837 530.48L958.601 530.48L958.601 531.794C959.087 530.786 960.095 530.264 961.427 530.264C963.461 530.264 964.739 531.578 964.739 533.828L964.739 539.678L962.957 539.678L962.957 534.044C962.957 532.37 962.291 531.65 960.869 531.65C959.357 531.65 958.619 532.442 958.619 534.314L958.619 539.678L956.837 539.678ZM967.628 529.31C967.628 527.762 968.33 527.078 970.076 527.078L971.354 527.078L971.354 528.41L970.364 528.41C969.626 528.41 969.392 528.608 969.392 529.472L969.392 530.48L971.354 530.48L971.354 531.74L969.392 531.74L969.392 539.678L967.628 539.678L967.628 531.74L966.242 531.74L966.242 530.48L967.628 530.48L967.628 529.31ZM972.938 539.678L972.938 530.48L974.72 530.48L974.72 539.678L972.938 539.678ZM972.92 528.914L972.92 527.078L974.738 527.078L974.738 528.914L972.92 528.914ZM981.123 543.422C978.495 543.422 977.307 542.594 977.109 540.632L978.819 540.632C978.981 541.694 979.647 542.054 981.069 542.054C982.869 542.054 983.571 541.442 983.571 539.876L983.571 537.95C982.977 538.994 981.915 539.498 980.601 539.498C978.351 539.498 976.749 537.896 976.749 534.89C976.749 531.848 978.405 530.264 980.673 530.264C981.987 530.264 983.013 530.75 983.589 531.776L983.589 530.48L985.353 530.48L985.353 539.894C985.353 542.234 984.003 543.422 981.123 543.422ZM981.087 538.148C982.707 538.148 983.571 537.122 983.571 534.89C983.571 532.622 982.689 531.614 981.087 531.614C979.431 531.614 978.549 532.622 978.549 534.854C978.549 537.104 979.431 538.148 981.087 538.148ZM995.74 530.48L995.74 539.678L993.976 539.678L993.976 538.364C993.49 539.39 992.5 539.894 991.15 539.894C989.116 539.894 987.838 538.58 987.838 536.33L987.838 530.48L989.62 530.48L989.62 536.114C989.62 537.788 990.286 538.508 991.708 538.508C993.202 538.508 993.958 537.716 993.958 535.844L993.958 530.48L995.74 530.48ZM998.339 539.678L998.339 530.48L1000.08 530.48L1000.08 531.956C1000.46 530.894 1001.2 530.408 1002.5 530.408L1003.36 530.408L1003.36 531.956L1002.24 531.956C1000.7 531.956 1000.12 532.568 1000.12 534.638L1000.12 539.678L998.339 539.678ZM1005.01 539.678L1005.01 530.48L1006.79 530.48L1006.79 539.678L1005.01 539.678ZM1004.99 528.914L1004.99 527.078L1006.81 527.078L1006.81 528.914L1004.99 528.914ZM1009.39 539.678L1009.39 530.48L1011.15 530.48L1011.15 531.794C1011.64 530.786 1012.64 530.264 1013.98 530.264C1016.01 530.264 1017.29 531.578 1017.29 533.828L1017.29 539.678L1015.51 539.678L1015.51 534.044C1015.51 532.37 1014.84 531.65 1013.42 531.65C1011.91 531.65 1011.17 532.442 1011.17 534.314L1011.17 539.678L1009.39 539.678ZM1023.6 543.422C1020.97 543.422 1019.78 542.594 1019.58 540.632L1021.29 540.632C1021.45 541.694 1022.12 542.054 1023.54 542.054C1025.34 542.054 1026.04 541.442 1026.04 539.876L1026.04 537.95C1025.45 538.994 1024.39 539.498 1023.07 539.498C1020.82 539.498 1019.22 537.896 1019.22 534.89C1019.22 531.848 1020.88 530.264 1023.15 530.264C1024.46 530.264 1025.49 530.75 1026.06 531.776L1026.06 530.48L1027.83 530.48L1027.83 539.894C1027.83 542.234 1026.48 543.422 1023.6 543.422ZM1023.56 538.148C1025.18 538.148 1026.04 537.122 1026.04 534.89C1026.04 532.622 1025.16 531.614 1023.56 531.614C1021.9 531.614 1021.02 532.622 1021.02 534.854C1021.02 537.104 1021.9 538.148 1023.56 538.148ZM1030.09 539.678L1030.09 537.446L1032.18 537.446L1032.18 539.678L1030.09 539.678ZM1034.12 539.678L1034.12 537.446L1036.21 537.446L1036.21 539.678L1034.12 539.678ZM1038.15 539.678L1038.15 537.446L1040.24 537.446L1040.24 539.678L1038.15 539.678ZM938.589 557.894C937.185 557.894 936.177 557.318 935.601 556.166L935.601 557.678L933.837 557.678L933.837 545.078L935.619 545.078L935.619 549.992C936.195 548.84 937.239 548.264 938.607 548.264C941.109 548.264 942.585 550.028 942.585 553.052C942.585 556.13 941.109 557.894 938.589 557.894ZM938.211 556.526C939.813 556.526 940.767 555.518 940.767 553.106C940.767 550.676 939.813 549.632 938.211 549.632C936.555 549.632 935.619 550.784 935.619 553.106C935.619 555.428 936.555 556.526 938.211 556.526ZM947.226 557.894C945.21 557.894 944.004 556.868 944.004 555.104C944.004 553.43 944.886 552.584 946.776 552.296L948.522 552.008C949.836 551.792 950.16 551.522 950.16 550.874C950.16 550.064 949.656 549.578 948.252 549.578C946.776 549.578 946.182 550.046 946.074 551.054L944.4 551.054C944.58 549.146 945.966 548.264 948.288 548.264C950.79 548.264 951.906 549.218 951.906 551.198L951.906 555.824C951.906 556.238 952.068 556.4 952.464 556.4L952.824 556.4L952.824 557.714C952.536 557.75 952.284 557.768 951.942 557.768C950.988 557.768 950.412 557.408 950.286 556.436C949.71 557.444 948.612 557.894 947.226 557.894ZM947.658 556.58C948.972 556.58 950.178 555.932 950.178 554.402L950.178 552.656C949.872 552.836 949.44 552.98 948.648 553.142L947.334 553.412C946.128 553.664 945.768 554.168 945.768 554.996C945.768 555.986 946.434 556.58 947.658 556.58ZM958.493 557.894C955.721 557.894 954.065 556.13 954.065 553.088C954.065 549.992 955.739 548.264 958.493 548.264C960.887 548.264 962.309 549.29 962.687 551.504L960.905 551.504C960.617 550.154 959.879 549.632 958.511 549.632C956.801 549.632 955.883 550.73 955.883 553.088C955.883 555.446 956.819 556.526 958.511 556.526C959.933 556.526 960.635 555.95 960.923 554.582L962.687 554.582C962.327 556.724 960.959 557.894 958.493 557.894ZM970.587 557.678L966.393 552.818L966.393 557.678L964.611 557.678L964.611 545.078L966.393 545.078L966.393 552.71L970.389 548.48L972.477 548.48L968.373 552.71L972.855 557.678L970.587 557.678ZM977.539 557.894C974.677 557.894 973.057 556.058 973.057 553.088C973.057 550.118 974.677 548.264 977.503 548.264C980.437 548.264 981.787 550.244 981.787 552.764L981.787 553.376L974.857 553.376C974.929 555.572 975.901 556.526 977.539 556.526C978.817 556.526 979.555 556.094 979.915 555.05L981.643 555.05C981.175 556.958 979.717 557.894 977.539 557.894ZM977.503 549.614C976.063 549.614 975.127 550.37 974.911 552.152L979.987 552.152C979.879 550.478 979.069 549.614 977.503 549.614ZM983.78 557.678L983.78 548.48L985.544 548.48L985.544 549.794C986.03 548.786 987.038 548.264 988.37 548.264C990.404 548.264 991.682 549.578 991.682 551.828L991.682 557.678L989.9 557.678L989.9 552.044C989.9 550.37 989.234 549.65 987.812 549.65C986.3 549.65 985.562 550.442 985.562 552.314L985.562 557.678L983.78 557.678ZM997.611 557.894C995.091 557.894 993.615 556.112 993.615 553.052C993.615 550.01 995.109 548.264 997.611 548.264C998.979 548.264 1000.02 548.84 1000.6 549.992L1000.6 545.078L1002.36 545.078L1002.36 557.678L1000.62 557.678L1000.62 556.13C1000.06 557.282 999.033 557.894 997.611 557.894ZM997.989 556.526C999.663 556.526 1000.6 555.41 1000.6 553.106C1000.6 550.766 999.645 549.632 997.989 549.632C996.387 549.632 995.433 550.694 995.433 553.106C995.433 555.536 996.387 556.526 997.989 556.526ZM1010.15 547.31C1010.15 545.762 1010.86 545.078 1012.6 545.078L1013.88 545.078L1013.88 546.41L1012.89 546.41C1012.15 546.41 1011.92 546.608 1011.92 547.472L1011.92 548.48L1013.88 548.48L1013.88 549.74L1011.92 549.74L1011.92 557.678L1010.15 557.678L1010.15 549.74L1008.77 549.74L1008.77 548.48L1010.15 548.48L1010.15 547.31ZM1015.35 557.678L1015.35 548.48L1017.1 548.48L1017.1 549.956C1017.47 548.894 1018.21 548.408 1019.51 548.408L1020.37 548.408L1020.37 549.956L1019.26 549.956C1017.71 549.956 1017.13 550.568 1017.13 552.638L1017.13 557.678L1015.35 557.678ZM1025.59 557.894C1022.76 557.894 1021.12 556.112 1021.12 553.088C1021.12 550.028 1022.76 548.264 1025.59 548.264C1028.41 548.264 1030.03 550.01 1030.05 553.088C1030.05 556.112 1028.41 557.894 1025.59 557.894ZM1025.59 556.526C1027.37 556.526 1028.22 555.392 1028.22 553.088C1028.22 550.766 1027.35 549.632 1025.59 549.632C1023.81 549.632 1022.94 550.784 1022.94 553.088C1022.94 555.41 1023.81 556.526 1025.59 556.526ZM1032.07 557.678L1032.07 548.48L1033.84 548.48L1033.84 549.704C1034.25 548.768 1035.15 548.264 1036.34 548.264C1037.64 548.264 1038.5 548.894 1038.84 549.902C1039.33 548.804 1040.25 548.264 1041.61 548.264C1043.54 548.264 1044.71 549.434 1044.71 551.648L1044.71 557.678L1042.93 557.678L1042.93 551.666C1042.93 550.226 1042.35 549.65 1041.16 549.65C1039.96 549.65 1039.27 550.316 1039.27 551.972L1039.27 557.678L1037.51 557.678L1037.51 551.756C1037.51 550.244 1036.93 549.65 1035.78 549.65C1034.56 549.65 1033.86 550.334 1033.86 551.972L1033.86 557.678L1032.07 557.678ZM1055.73 561.422C1053.1 561.422 1051.91 560.594 1051.71 558.632L1053.42 558.632C1053.59 559.694 1054.25 560.054 1055.67 560.054C1057.47 560.054 1058.18 559.442 1058.18 557.876L1058.18 555.95C1057.58 556.994 1056.52 557.498 1055.21 557.498C1052.96 557.498 1051.35 555.896 1051.35 552.89C1051.35 549.848 1053.01 548.264 1055.28 548.264C1056.59 548.264 1057.62 548.75 1058.19 549.776L1058.19 548.48L1059.96 548.48L1059.96 557.894C1059.96 560.234 1058.61 561.422 1055.73 561.422ZM1055.69 556.148C1057.31 556.148 1058.18 555.122 1058.18 552.89C1058.18 550.622 1057.29 549.614 1055.69 549.614C1054.04 549.614 1053.15 550.622 1053.15 552.854C1053.15 555.104 1054.04 556.148 1055.69 556.148ZM1062.55 557.678L1062.55 548.48L1064.33 548.48L1064.33 557.678L1062.55 557.678ZM1062.53 546.914L1062.53 545.078L1064.35 545.078L1064.35 546.914L1062.53 546.914ZM1069.74 557.678C1067.94 557.678 1067.31 557.048 1067.31 555.464L1067.31 549.74L1065.96 549.74L1065.96 548.48L1067.31 548.48L1067.31 545.78L1069.09 545.78L1069.09 548.48L1071.05 548.48L1071.05 549.74L1069.09 549.74L1069.09 555.32C1069.09 556.094 1069.34 556.328 1070.17 556.328L1071.05 556.328L1071.05 557.678L1069.74 557.678ZM1073.05 557.678L1073.05 545.078L1074.83 545.078L1074.83 549.758C1075.34 548.75 1076.33 548.264 1077.64 548.264C1079.68 548.264 1080.95 549.578 1080.95 551.828L1080.95 557.678L1079.17 557.678L1079.17 552.044C1079.17 550.37 1078.51 549.65 1077.08 549.65C1075.57 549.65 1074.83 550.442 1074.83 552.314L1074.83 557.678L1073.05 557.678ZM1091.24 548.48L1091.24 557.678L1089.48 557.678L1089.48 556.364C1088.99 557.39 1088 557.894 1086.65 557.894C1084.62 557.894 1083.34 556.58 1083.34 554.33L1083.34 548.48L1085.12 548.48L1085.12 554.114C1085.12 555.788 1085.79 556.508 1087.21 556.508C1088.7 556.508 1089.46 555.716 1089.46 553.844L1089.46 548.48L1091.24 548.48ZM1098.59 557.894C1097.19 557.894 1096.18 557.318 1095.6 556.166L1095.6 557.678L1093.84 557.678L1093.84 545.078L1095.62 545.078L1095.62 549.992C1096.2 548.84 1097.24 548.264 1098.61 548.264C1101.11 548.264 1102.59 550.028 1102.59 553.052C1102.59 556.13 1101.11 557.894 1098.59 557.894ZM1098.21 556.526C1099.81 556.526 1100.77 555.518 1100.77 553.106C1100.77 550.676 1099.81 549.632 1098.21 549.632C1096.56 549.632 1095.62 550.784 1095.62 553.106C1095.62 555.428 1096.56 556.526 1098.21 556.526Z" fill="black"/>
<path d="M912.605 532.679C917.633 532.934 921.631 537.091 921.631 542.182L921.618 542.671C921.363 547.698 917.206 551.696 912.115 551.696C906.861 551.696 902.601 547.436 902.601 542.182C902.601 536.927 906.861 532.667 912.115 532.666L912.605 532.679ZM912.115 537.126C909.324 537.127 907.061 539.39 907.061 542.182C907.061 544.973 909.324 547.236 912.115 547.236C914.907 547.236 917.17 544.973 917.171 542.182C917.171 539.39 914.907 537.126 912.115 537.126ZM912.116 539.797C913.433 539.797 914.5 540.864 914.5 542.181C914.5 543.497 913.433 544.564 912.116 544.564C910.8 544.564 909.733 543.497 909.732 542.181C909.732 540.864 910.8 539.797 912.116 539.797Z" fill="black"/>
<path d="M939.093 357.213C935.115 357.213 933.387 355.413 933.387 350.715C933.387 345.981 935.115 344.181 939.093 344.181C942.477 344.181 944.097 345.459 944.493 348.483L942.693 348.483C942.315 346.413 941.397 345.675 939.093 345.675C936.303 345.675 935.259 346.863 935.259 350.715C935.259 354.585 936.321 355.719 939.093 355.719C941.307 355.719 942.261 354.963 942.657 352.749L944.457 352.749C944.007 355.899 942.405 357.213 939.093 357.213ZM950.35 357.213C947.524 357.213 945.886 355.431 945.886 352.407C945.886 349.347 947.524 347.583 950.35 347.583C953.176 347.583 954.796 349.329 954.814 352.407C954.814 355.431 953.176 357.213 950.35 357.213ZM950.35 355.845C952.132 355.845 952.978 354.711 952.978 352.407C952.978 350.085 952.114 348.951 950.35 348.951C948.568 348.951 947.704 350.103 947.704 352.407C947.704 354.729 948.568 355.845 950.35 355.845ZM956.837 356.997L956.837 347.799L958.601 347.799L958.601 349.113C959.087 348.105 960.095 347.583 961.427 347.583C963.461 347.583 964.739 348.897 964.739 351.147L964.739 356.997L962.957 356.997L962.957 351.363C962.957 349.689 962.291 348.969 960.869 348.969C959.357 348.969 958.619 349.761 958.619 351.633L958.619 356.997L956.837 356.997ZM967.628 346.629C967.628 345.081 968.33 344.397 970.076 344.397L971.354 344.397L971.354 345.729L970.364 345.729C969.626 345.729 969.392 345.927 969.392 346.791L969.392 347.799L971.354 347.799L971.354 349.059L969.392 349.059L969.392 356.997L967.628 356.997L967.628 349.059L966.242 349.059L966.242 347.799L967.628 347.799L967.628 346.629ZM972.938 356.997L972.938 347.799L974.72 347.799L974.72 356.997L972.938 356.997ZM972.92 346.233L972.92 344.397L974.738 344.397L974.738 346.233L972.92 346.233ZM981.123 360.741C978.495 360.741 977.307 359.913 977.109 357.951L978.819 357.951C978.981 359.013 979.647 359.373 981.069 359.373C982.869 359.373 983.571 358.761 983.571 357.195L983.571 355.269C982.977 356.313 981.915 356.817 980.601 356.817C978.351 356.817 976.749 355.215 976.749 352.209C976.749 349.167 978.405 347.583 980.673 347.583C981.987 347.583 983.013 348.069 983.589 349.095L983.589 347.799L985.353 347.799L985.353 357.213C985.353 359.553 984.003 360.741 981.123 360.741ZM981.087 355.467C982.707 355.467 983.571 354.441 983.571 352.209C983.571 349.941 982.689 348.933 981.087 348.933C979.431 348.933 978.549 349.941 978.549 352.173C978.549 354.423 979.431 355.467 981.087 355.467ZM995.74 347.799L995.74 356.997L993.976 356.997L993.976 355.683C993.49 356.709 992.5 357.213 991.15 357.213C989.116 357.213 987.838 355.899 987.838 353.649L987.838 347.799L989.62 347.799L989.62 353.433C989.62 355.107 990.286 355.827 991.708 355.827C993.202 355.827 993.958 355.035 993.958 353.163L993.958 347.799L995.74 347.799ZM998.338 356.997L998.338 347.799L1000.08 347.799L1000.08 349.275C1000.46 348.213 1001.2 347.727 1002.5 347.727L1003.36 347.727L1003.36 349.275L1002.24 349.275C1000.7 349.275 1000.12 349.887 1000.12 351.957L1000.12 356.997L998.338 356.997ZM1005 356.997L1005 347.799L1006.79 347.799L1006.79 356.997L1005 356.997ZM1004.99 346.233L1004.99 344.397L1006.8 344.397L1006.8 346.233L1004.99 346.233ZM1009.39 356.997L1009.39 347.799L1011.15 347.799L1011.15 349.113C1011.64 348.105 1012.64 347.583 1013.98 347.583C1016.01 347.583 1017.29 348.897 1017.29 351.147L1017.29 356.997L1015.51 356.997L1015.51 351.363C1015.51 349.689 1014.84 348.969 1013.42 348.969C1011.91 348.969 1011.17 349.761 1011.17 351.633L1011.17 356.997L1009.39 356.997ZM1023.59 360.741C1020.97 360.741 1019.78 359.913 1019.58 357.951L1021.29 357.951C1021.45 359.013 1022.12 359.373 1023.54 359.373C1025.34 359.373 1026.04 358.761 1026.04 357.195L1026.04 355.269C1025.45 356.313 1024.39 356.817 1023.07 356.817C1020.82 356.817 1019.22 355.215 1019.22 352.209C1019.22 349.167 1020.88 347.583 1023.14 347.583C1024.46 347.583 1025.48 348.069 1026.06 349.095L1026.06 347.799L1027.82 347.799L1027.82 357.213C1027.82 359.553 1026.47 360.741 1023.59 360.741ZM1023.56 355.467C1025.18 355.467 1026.04 354.441 1026.04 352.209C1026.04 349.941 1025.16 348.933 1023.56 348.933C1021.9 348.933 1021.02 349.941 1021.02 352.173C1021.02 354.423 1021.9 355.467 1023.56 355.467ZM1030.09 356.997L1030.09 354.765L1032.18 354.765L1032.18 356.997L1030.09 356.997ZM1034.12 356.997L1034.12 354.765L1036.21 354.765L1036.21 356.997L1034.12 356.997ZM1038.15 356.997L1038.15 354.765L1040.24 354.765L1040.24 356.997L1038.15 356.997ZM934.323 364.629C934.323 363.081 935.025 362.397 936.771 362.397L938.049 362.397L938.049 363.729L937.059 363.729C936.321 363.729 936.087 363.927 936.087 364.791L936.087 365.799L938.049 365.799L938.049 367.059L936.087 367.059L936.087 374.997L934.323 374.997L934.323 367.059L932.937 367.059L932.937 365.799L934.323 365.799L934.323 364.629ZM939.519 374.997L939.519 365.799L941.265 365.799L941.265 367.275C941.643 366.213 942.381 365.727 943.677 365.727L944.541 365.727L944.541 367.275L943.425 367.275C941.877 367.275 941.301 367.887 941.301 369.957L941.301 374.997L939.519 374.997ZM949.756 375.213C946.93 375.213 945.292 373.431 945.292 370.407C945.292 367.347 946.93 365.583 949.756 365.583C952.582 365.583 954.202 367.329 954.22 370.407C954.22 373.431 952.582 375.213 949.756 375.213ZM949.756 373.845C951.538 373.845 952.384 372.711 952.384 370.407C952.384 368.085 951.52 366.951 949.756 366.951C947.974 366.951 947.11 368.103 947.11 370.407C947.11 372.729 947.974 373.845 949.756 373.845ZM956.244 374.997L956.244 365.799L958.008 365.799L958.008 367.113C958.494 366.105 959.502 365.583 960.834 365.583C962.868 365.583 964.146 366.897 964.146 369.147L964.146 374.997L962.364 374.997L962.364 369.363C962.364 367.689 961.698 366.969 960.276 366.969C958.764 366.969 958.026 367.761 958.026 369.633L958.026 374.997L956.244 374.997ZM969.374 374.997C967.574 374.997 966.944 374.367 966.944 372.783L966.944 367.059L965.594 367.059L965.594 365.799L966.944 365.799L966.944 363.099L968.726 363.099L968.726 365.799L970.688 365.799L970.688 367.059L968.726 367.059L968.726 372.639C968.726 373.413 968.978 373.647 969.806 373.647L970.688 373.647L970.688 374.997L969.374 374.997ZM976.436 375.213C973.574 375.213 971.954 373.377 971.954 370.407C971.954 367.437 973.574 365.583 976.4 365.583C979.334 365.583 980.684 367.563 980.684 370.083L980.684 370.695L973.754 370.695C973.826 372.891 974.798 373.845 976.436 373.845C977.714 373.845 978.452 373.413 978.812 372.369L980.54 372.369C980.072 374.277 978.614 375.213 976.436 375.213ZM976.4 366.933C974.96 366.933 974.024 367.689 973.808 369.471L978.884 369.471C978.776 367.797 977.966 366.933 976.4 366.933ZM982.676 374.997L982.676 365.799L984.44 365.799L984.44 367.113C984.926 366.105 985.934 365.583 987.266 365.583C989.3 365.583 990.578 366.897 990.578 369.147L990.578 374.997L988.796 374.997L988.796 369.363C988.796 367.689 988.13 366.969 986.708 366.969C985.196 366.969 984.458 367.761 984.458 369.633L984.458 374.997L982.676 374.997ZM996.507 375.213C993.987 375.213 992.511 373.431 992.511 370.371C992.511 367.329 994.005 365.583 996.507 365.583C997.875 365.583 998.919 366.159 999.495 367.311L999.495 362.397L1001.26 362.397L1001.26 374.997L999.513 374.997L999.513 373.449C998.955 374.601 997.929 375.213 996.507 375.213ZM996.885 373.845C998.559 373.845 999.495 372.729 999.495 370.425C999.495 368.085 998.541 366.951 996.885 366.951C995.283 366.951 994.329 368.013 994.329 370.425C994.329 372.855 995.283 373.845 996.885 373.845Z" fill="black"/>
<path d="M912.605 349.998C917.633 350.253 921.631 354.41 921.631 359.501L921.618 359.99C921.363 365.017 917.206 369.015 912.116 369.016C906.862 369.015 902.601 364.755 902.6 359.501C902.6 354.246 906.861 349.986 912.115 349.985L912.605 349.998ZM912.115 354.445C909.324 354.446 907.06 356.71 907.06 359.501C907.061 362.292 909.324 364.555 912.115 364.556C914.906 364.556 917.17 362.292 917.171 359.501C917.171 356.709 914.907 354.445 912.115 354.445ZM912.116 357.116C913.432 357.116 914.5 358.184 914.5 359.5C914.5 360.816 913.432 361.884 912.116 361.884C910.8 361.884 909.732 360.816 909.732 359.5C909.732 358.184 910.8 357.116 912.116 357.116Z" fill="black"/>
<path d="M939.093 717.213C935.115 717.213 933.387 715.413 933.387 710.715C933.387 705.981 935.115 704.181 939.093 704.181C942.477 704.181 944.097 705.459 944.493 708.483L942.693 708.483C942.315 706.413 941.397 705.675 939.093 705.675C936.303 705.675 935.259 706.863 935.259 710.715C935.259 714.585 936.321 715.719 939.093 715.719C941.307 715.719 942.261 714.963 942.657 712.749L944.457 712.749C944.007 715.899 942.405 717.213 939.093 717.213ZM950.35 717.213C947.524 717.213 945.886 715.431 945.886 712.407C945.886 709.347 947.524 707.583 950.35 707.583C953.176 707.583 954.796 709.329 954.814 712.407C954.814 715.431 953.176 717.213 950.35 717.213ZM950.35 715.845C952.132 715.845 952.978 714.711 952.978 712.407C952.978 710.085 952.114 708.951 950.35 708.951C948.568 708.951 947.704 710.103 947.704 712.407C947.704 714.729 948.568 715.845 950.35 715.845ZM956.837 716.997L956.837 707.799L958.601 707.799L958.601 709.113C959.087 708.105 960.095 707.583 961.427 707.583C963.461 707.583 964.739 708.897 964.739 711.147L964.739 716.997L962.957 716.997L962.957 711.363C962.957 709.689 962.291 708.969 960.869 708.969C959.357 708.969 958.619 709.761 958.619 711.633L958.619 716.997L956.837 716.997ZM967.628 706.629C967.628 705.081 968.33 704.397 970.076 704.397L971.354 704.397L971.354 705.729L970.364 705.729C969.626 705.729 969.392 705.927 969.392 706.791L969.392 707.799L971.354 707.799L971.354 709.059L969.392 709.059L969.392 716.997L967.628 716.997L967.628 709.059L966.242 709.059L966.242 707.799L967.628 707.799L967.628 706.629ZM972.938 716.997L972.938 707.799L974.72 707.799L974.72 716.997L972.938 716.997ZM972.92 706.233L972.92 704.397L974.738 704.397L974.738 706.233L972.92 706.233ZM981.123 720.741C978.495 720.741 977.307 719.913 977.109 717.951L978.819 717.951C978.981 719.013 979.647 719.373 981.069 719.373C982.869 719.373 983.571 718.761 983.571 717.195L983.571 715.269C982.977 716.313 981.915 716.817 980.601 716.817C978.351 716.817 976.749 715.215 976.749 712.209C976.749 709.167 978.405 707.583 980.673 707.583C981.987 707.583 983.013 708.069 983.589 709.095L983.589 707.799L985.353 707.799L985.353 717.213C985.353 719.553 984.003 720.741 981.123 720.741ZM981.087 715.467C982.707 715.467 983.571 714.441 983.571 712.209C983.571 709.941 982.689 708.933 981.087 708.933C979.431 708.933 978.549 709.941 978.549 712.173C978.549 714.423 979.431 715.467 981.087 715.467ZM995.74 707.799L995.74 716.997L993.976 716.997L993.976 715.683C993.49 716.709 992.5 717.213 991.15 717.213C989.116 717.213 987.838 715.899 987.838 713.649L987.838 707.799L989.62 707.799L989.62 713.433C989.62 715.107 990.286 715.827 991.708 715.827C993.202 715.827 993.958 715.035 993.958 713.163L993.958 707.799L995.74 707.799ZM998.338 716.997L998.338 707.799L1000.08 707.799L1000.08 709.275C1000.46 708.213 1001.2 707.727 1002.5 707.727L1003.36 707.727L1003.36 709.275L1002.24 709.275C1000.7 709.275 1000.12 709.887 1000.12 711.957L1000.12 716.997L998.338 716.997ZM1005 716.997L1005 707.799L1006.79 707.799L1006.79 716.997L1005 716.997ZM1004.99 706.233L1004.99 704.397L1006.8 704.397L1006.8 706.233L1004.99 706.233ZM1009.39 716.997L1009.39 707.799L1011.15 707.799L1011.15 709.113C1011.64 708.105 1012.64 707.583 1013.98 707.583C1016.01 707.583 1017.29 708.897 1017.29 711.147L1017.29 716.997L1015.51 716.997L1015.51 711.363C1015.51 709.689 1014.84 708.969 1013.42 708.969C1011.91 708.969 1011.17 709.761 1011.17 711.633L1011.17 716.997L1009.39 716.997ZM1023.59 720.741C1020.97 720.741 1019.78 719.913 1019.58 717.951L1021.29 717.951C1021.45 719.013 1022.12 719.373 1023.54 719.373C1025.34 719.373 1026.04 718.761 1026.04 717.195L1026.04 715.269C1025.45 716.313 1024.39 716.817 1023.07 716.817C1020.82 716.817 1019.22 715.215 1019.22 712.209C1019.22 709.167 1020.88 707.583 1023.14 707.583C1024.46 707.583 1025.48 708.069 1026.06 709.095L1026.06 707.799L1027.82 707.799L1027.82 717.213C1027.82 719.553 1026.47 720.741 1023.59 720.741ZM1023.56 715.467C1025.18 715.467 1026.04 714.441 1026.04 712.209C1026.04 709.941 1025.16 708.933 1023.56 708.933C1021.9 708.933 1021.02 709.941 1021.02 712.173C1021.02 714.423 1021.9 715.467 1023.56 715.467ZM1030.09 716.997L1030.09 714.765L1032.18 714.765L1032.18 716.997L1030.09 716.997ZM1034.12 716.997L1034.12 714.765L1036.21 714.765L1036.21 716.997L1034.12 716.997ZM1038.15 716.997L1038.15 714.765L1040.24 714.765L1040.24 716.997L1038.15 716.997ZM938.589 725.583C941.109 725.583 942.585 727.365 942.585 730.425C942.585 733.467 941.109 735.213 938.607 735.213C937.221 735.213 936.195 734.655 935.619 733.485L935.619 738.399L933.837 738.399L933.837 725.799L935.601 725.799L935.601 727.311C936.177 726.159 937.185 725.583 938.589 725.583ZM938.211 726.951C936.555 726.951 935.619 728.067 935.619 730.371C935.619 732.711 936.555 733.845 938.211 733.845C939.813 733.845 940.767 732.783 940.767 730.371C940.767 727.941 939.813 726.951 938.211 726.951ZM948.504 735.213C945.678 735.213 944.04 733.431 944.04 730.407C944.04 727.347 945.678 725.583 948.504 725.583C951.33 725.583 952.95 727.329 952.968 730.407C952.968 733.431 951.33 735.213 948.504 735.213ZM948.504 733.845C950.286 733.845 951.132 732.711 951.132 730.407C951.132 728.085 950.268 726.951 948.504 726.951C946.722 726.951 945.858 728.103 945.858 730.407C945.858 732.729 946.722 733.845 948.504 733.845ZM958.358 735.213C955.856 735.213 954.434 734.241 954.236 732.297L955.91 732.297C956.072 733.395 956.918 733.917 958.376 733.917C959.834 733.917 960.446 733.395 960.446 732.513C960.446 731.739 960.032 731.415 958.772 731.145L957.296 730.839C955.352 730.443 954.614 729.579 954.614 728.247C954.614 726.501 956.054 725.583 958.124 725.583C960.158 725.583 961.598 726.483 961.832 728.319L960.212 728.319C960.014 727.401 959.366 726.879 958.124 726.879C956.936 726.879 956.27 727.329 956.27 728.067C956.27 728.679 956.54 729.039 957.764 729.291L959.528 729.651C961.418 730.029 962.192 730.875 962.192 732.351C962.192 734.151 960.842 735.213 958.358 735.213ZM966.874 734.997C965.074 734.997 964.444 734.367 964.444 732.783L964.444 727.059L963.094 727.059L963.094 725.799L964.444 725.799L964.444 723.099L966.226 723.099L966.226 725.799L968.188 725.799L968.188 727.059L966.226 727.059L966.226 732.639C966.226 733.413 966.478 733.647 967.306 733.647L968.188 733.647L968.188 734.997L966.874 734.997ZM973.828 738.741C971.2 738.741 970.012 737.913 969.814 735.951L971.524 735.951C971.686 737.013 972.352 737.373 973.774 737.373C975.574 737.373 976.276 736.761 976.276 735.195L976.276 733.269C975.682 734.313 974.62 734.817 973.306 734.817C971.056 734.817 969.454 733.215 969.454 730.209C969.454 727.167 971.11 725.583 973.378 725.583C974.692 725.583 975.718 726.069 976.294 727.095L976.294 725.799L978.058 725.799L978.058 735.213C978.058 737.553 976.708 738.741 973.828 738.741ZM973.792 733.467C975.412 733.467 976.276 732.441 976.276 730.209C976.276 727.941 975.394 726.933 973.792 726.933C972.136 726.933 971.254 727.941 971.254 730.173C971.254 732.423 972.136 733.467 973.792 733.467ZM980.651 734.997L980.651 725.799L982.397 725.799L982.397 727.275C982.775 726.213 983.513 725.727 984.809 725.727L985.673 725.727L985.673 727.275L984.557 727.275C983.009 727.275 982.433 727.887 982.433 729.957L982.433 734.997L980.651 734.997ZM990.907 735.213C988.045 735.213 986.425 733.377 986.425 730.407C986.425 727.437 988.045 725.583 990.871 725.583C993.805 725.583 995.155 727.563 995.155 730.083L995.155 730.695L988.225 730.695C988.297 732.891 989.269 733.845 990.907 733.845C992.185 733.845 992.923 733.413 993.283 732.369L995.011 732.369C994.543 734.277 993.085 735.213 990.907 735.213ZM990.871 726.933C989.431 726.933 988.495 727.689 988.279 729.471L993.355 729.471C993.247 727.797 992.437 726.933 990.871 726.933ZM1000.51 735.213C998.011 735.213 996.589 734.241 996.391 732.297L998.065 732.297C998.227 733.395 999.073 733.917 1000.53 733.917C1001.99 733.917 1002.6 733.395 1002.6 732.513C1002.6 731.739 1002.19 731.415 1000.93 731.145L999.451 730.839C997.507 730.443 996.769 729.579 996.769 728.247C996.769 726.501 998.209 725.583 1000.28 725.583C1002.31 725.583 1003.75 726.483 1003.99 728.319L1002.37 728.319C1002.17 727.401 1001.52 726.879 1000.28 726.879C999.091 726.879 998.425 727.329 998.425 728.067C998.425 728.679 998.695 729.039 999.919 729.291L1001.68 729.651C1003.57 730.029 1004.35 730.875 1004.35 732.351C1004.35 734.151 1003 735.213 1000.51 735.213ZM1014.41 735.213C1011.89 735.213 1010.41 733.431 1010.41 730.371C1010.41 727.329 1011.91 725.583 1014.41 725.583C1015.78 725.583 1016.82 726.159 1017.4 727.311L1017.4 722.397L1019.16 722.397L1019.16 734.997L1017.42 734.997L1017.42 733.449C1016.86 734.601 1015.83 735.213 1014.41 735.213ZM1014.79 733.845C1016.46 733.845 1017.4 732.729 1017.4 730.425C1017.4 728.085 1016.44 726.951 1014.79 726.951C1013.19 726.951 1012.23 728.013 1012.23 730.425C1012.23 732.855 1013.19 733.845 1014.79 733.845ZM1025.64 735.213C1022.81 735.213 1021.18 733.431 1021.18 730.407C1021.18 727.347 1022.81 725.583 1025.64 725.583C1028.47 725.583 1030.09 727.329 1030.1 730.407C1030.1 733.431 1028.47 735.213 1025.64 735.213ZM1025.64 733.845C1027.42 733.845 1028.27 732.711 1028.27 730.407C1028.27 728.085 1027.4 726.951 1025.64 726.951C1023.86 726.951 1022.99 728.103 1022.99 730.407C1022.99 732.729 1023.86 733.845 1025.64 733.845ZM1036 735.213C1033.23 735.213 1031.57 733.449 1031.57 730.407C1031.57 727.311 1033.24 725.583 1036 725.583C1038.39 725.583 1039.81 726.609 1040.19 728.823L1038.41 728.823C1038.12 727.473 1037.38 726.951 1036.02 726.951C1034.31 726.951 1033.39 728.049 1033.39 730.407C1033.39 732.765 1034.32 733.845 1036.02 733.845C1037.44 733.845 1038.14 733.269 1038.43 731.901L1040.19 731.901C1039.83 734.043 1038.46 735.213 1036 735.213ZM1048.09 734.997L1043.9 730.137L1043.9 734.997L1042.12 734.997L1042.12 722.397L1043.9 722.397L1043.9 730.029L1047.89 725.799L1049.98 725.799L1045.88 730.029L1050.36 734.997L1048.09 734.997ZM1055.04 735.213C1052.18 735.213 1050.56 733.377 1050.56 730.407C1050.56 727.437 1052.18 725.583 1055.01 725.583C1057.94 725.583 1059.29 727.563 1059.29 730.083L1059.29 730.695L1052.36 730.695C1052.43 732.891 1053.41 733.845 1055.04 733.845C1056.32 733.845 1057.06 733.413 1057.42 732.369L1059.15 732.369C1058.68 734.277 1057.22 735.213 1055.04 735.213ZM1055.01 726.933C1053.57 726.933 1052.63 727.689 1052.42 729.471L1057.49 729.471C1057.38 727.797 1056.57 726.933 1055.01 726.933ZM1061.28 734.997L1061.28 725.799L1063.03 725.799L1063.03 727.275C1063.41 726.213 1064.15 725.727 1065.44 725.727L1066.31 725.727L1066.31 727.275L1065.19 727.275C1063.64 727.275 1063.07 727.887 1063.07 729.957L1063.07 734.997L1061.28 734.997ZM1072.24 734.997L1072.24 725.799L1074.03 725.799L1074.03 734.997L1072.24 734.997ZM1072.23 724.233L1072.23 722.397L1074.04 722.397L1074.04 724.233L1072.23 724.233ZM1076.63 734.997L1076.63 725.799L1078.39 725.799L1078.39 727.023C1078.8 726.087 1079.7 725.583 1080.89 725.583C1082.19 725.583 1083.05 726.213 1083.39 727.221C1083.88 726.123 1084.8 725.583 1086.17 725.583C1088.09 725.583 1089.26 726.753 1089.26 728.967L1089.26 734.997L1087.48 734.997L1087.48 728.985C1087.48 727.545 1086.9 726.969 1085.72 726.969C1084.51 726.969 1083.83 727.635 1083.83 729.291L1083.83 734.997L1082.06 734.997L1082.06 729.075C1082.06 727.563 1081.49 726.969 1080.33 726.969C1079.11 726.969 1078.41 727.653 1078.41 729.291L1078.41 734.997L1076.63 734.997ZM1094.36 735.213C1092.34 735.213 1091.13 734.187 1091.13 732.423C1091.13 730.749 1092.02 729.903 1093.91 729.615L1095.65 729.327C1096.97 729.111 1097.29 728.841 1097.29 728.193C1097.29 727.383 1096.79 726.897 1095.38 726.897C1093.91 726.897 1093.31 727.365 1093.2 728.373L1091.53 728.373C1091.71 726.465 1093.1 725.583 1095.42 725.583C1097.92 725.583 1099.04 726.537 1099.04 728.517L1099.04 733.143C1099.04 733.557 1099.2 733.719 1099.59 733.719L1099.95 733.719L1099.95 735.033C1099.67 735.069 1099.41 735.087 1099.07 735.087C1098.12 735.087 1097.54 734.727 1097.42 733.755C1096.84 734.763 1095.74 735.213 1094.36 735.213ZM1094.79 733.899C1096.1 733.899 1097.31 733.251 1097.31 731.721L1097.31 729.975C1097 730.155 1096.57 730.299 1095.78 730.461L1094.46 730.731C1093.26 730.983 1092.9 731.487 1092.9 732.315C1092.9 733.305 1093.56 733.899 1094.79 733.899ZM1105.57 738.741C1102.94 738.741 1101.75 737.913 1101.55 735.951L1103.26 735.951C1103.43 737.013 1104.09 737.373 1105.51 737.373C1107.31 737.373 1108.02 736.761 1108.02 735.195L1108.02 733.269C1107.42 734.313 1106.36 734.817 1105.05 734.817C1102.8 734.817 1101.19 733.215 1101.19 730.209C1101.19 727.167 1102.85 725.583 1105.12 725.583C1106.43 725.583 1107.46 726.069 1108.03 727.095L1108.03 725.799L1109.8 725.799L1109.8 735.213C1109.8 737.553 1108.45 738.741 1105.57 738.741ZM1105.53 733.467C1107.15 733.467 1108.02 732.441 1108.02 730.209C1108.02 727.941 1107.13 726.933 1105.53 726.933C1103.88 726.933 1102.99 727.941 1102.99 730.173C1102.99 732.423 1103.88 733.467 1105.53 733.467ZM1116.3 735.213C1113.44 735.213 1111.82 733.377 1111.82 730.407C1111.82 727.437 1113.44 725.583 1116.26 725.583C1119.2 725.583 1120.55 727.563 1120.55 730.083L1120.55 730.695L1113.62 730.695C1113.69 732.891 1114.66 733.845 1116.3 733.845C1117.58 733.845 1118.31 733.413 1118.67 732.369L1120.4 732.369C1119.93 734.277 1118.48 735.213 1116.3 735.213ZM1116.26 726.933C1114.82 726.933 1113.89 727.689 1113.67 729.471L1118.75 729.471C1118.64 727.797 1117.83 726.933 1116.26 726.933Z" fill="black"/>
<path d="M912.605 709.998C917.633 710.253 921.631 714.41 921.631 719.501L921.618 719.99C921.363 725.017 917.206 729.016 912.115 729.016C906.861 729.015 902.601 724.755 902.6 719.501C902.6 714.246 906.861 709.986 912.115 709.985L912.605 709.998ZM912.115 714.445C909.324 714.446 907.06 716.71 907.06 719.501C907.061 722.292 909.324 724.555 912.115 724.556C914.906 724.556 917.17 722.292 917.171 719.501C917.171 716.709 914.907 714.445 912.115 714.445ZM912.116 717.116C913.432 717.116 914.5 718.184 914.5 719.5C914.5 720.816 913.432 721.884 912.116 721.884C910.8 721.884 909.732 720.816 909.732 719.5C909.732 718.184 910.8 717.116 912.116 717.116Z" fill="black"/>
<path d="M912.116 381L912.116 519.279" stroke="black"/>
<path d="M912.116 562.772L912.116 701.051" stroke="black"/>
</g>
<defs>
<linearGradient id="paint0_linear_150_2" x1="4.37114e-08" y1="360" x2="2183" y2="360" gradientUnits="userSpaceOnUse">
<stop stop-color="#9D9D9D"/>
<stop offset="0.136318" stop-color="#4F8669"/>
<stop offset="0.48196" stop-color="#1923A8"/>
</linearGradient>
<linearGradient id="paint1_linear_150_2" x1="4.37114e-08" y1="540" x2="2183" y2="540" gradientUnits="userSpaceOnUse">
<stop stop-color="#9D9D9D"/>
<stop offset="0.136318" stop-color="#D8AB56"/>
<stop offset="0.429868" stop-color="#1923A8"/>
</linearGradient>
<linearGradient id="paint2_linear_150_2" x1="4.37114e-08" y1="720" x2="2183" y2="720" gradientUnits="userSpaceOnUse">
<stop stop-color="#9D9D9D"/>
<stop offset="0.136318" stop-color="#E9C6C5"/>
<stop offset="0.497588" stop-color="#1923A8"/>
</linearGradient>
<clipPath id="clip0_150_2">
<rect width="1920" height="1080" fill="white"/>
</clipPath>
</defs>
</svg>
