<svg width="1920" height="1080" viewBox="0 0 1920 1080" fill="none" xmlns="http://www.w3.org/2000/svg">
<g clip-path="url(#clip0_150_46)">
<rect width="1920" height="1080" fill="#F1EFE8"/>
<path opacity="0.89" d="M0 359.5L2183 359.5" stroke="url(#paint0_linear_150_46)" stroke-width="180"/>
<path opacity="0.79" d="M0 539.5L2183 539.5" stroke="url(#paint1_linear_150_46)" stroke-width="180"/>
<path opacity="0.69" d="M0 719.5L2183 719.5" stroke="url(#paint2_linear_150_46)" stroke-width="180"/>
<path d="M60 -126.262L60.0001 1206.26" stroke="#F1EFE8"/>
<path d="M360 -126.262L360 1206.26" stroke="#F1EFE8"/>
<path d="M660 -126.262L660 1206.26" stroke="#F1EFE8"/>
<path d="M960 -126.262L960 1206.26" stroke="#F1EFE8"/>
<path d="M1260 -126.262L1260 1206.26" stroke="#F1EFE8"/>
<path d="M1560 -126.262L1560 1206.26" stroke="#F1EFE8"/>
<path d="M1860 -126.262L1860 1206.26" stroke="#F1EFE8"/>
<path d="M936.911 539.678L936.911 527.078L941.591 527.078C945.731 527.078 947.531 528.644 947.531 533.378C947.531 538.112 945.731 539.678 941.591 539.678L936.911 539.678ZM941.591 538.166C944.561 538.166 945.659 537.158 945.659 533.378C945.659 529.58 944.561 528.572 941.591 528.572L938.729 528.572L938.729 538.166L941.591 538.166ZM953.581 539.894C950.719 539.894 949.099 538.058 949.099 535.088C949.099 532.118 950.719 530.264 953.545 530.264C956.479 530.264 957.829 532.244 957.829 534.764L957.829 535.376L950.899 535.376C950.971 537.572 951.943 538.526 953.581 538.526C954.859 538.526 955.597 538.094 955.957 537.05L957.685 537.05C957.217 538.958 955.759 539.894 953.581 539.894ZM953.545 531.614C952.105 531.614 951.169 532.37 950.953 534.152L956.029 534.152C955.921 532.478 955.111 531.614 953.545 531.614ZM964.573 530.264C967.093 530.264 968.569 532.046 968.569 535.106C968.569 538.148 967.093 539.894 964.591 539.894C963.205 539.894 962.179 539.336 961.603 538.166L961.603 543.08L959.821 543.08L959.821 530.48L961.585 530.48L961.585 531.992C962.161 530.84 963.169 530.264 964.573 530.264ZM964.195 531.632C962.539 531.632 961.603 532.748 961.603 535.052C961.603 537.392 962.539 538.526 964.195 538.526C965.797 538.526 966.751 537.464 966.751 535.052C966.751 532.622 965.797 531.632 964.195 531.632ZM970.601 539.678L970.601 527.078L972.383 527.078L972.383 539.678L970.601 539.678ZM978.87 539.894C976.044 539.894 974.406 538.112 974.406 535.088C974.406 532.028 976.044 530.264 978.87 530.264C981.696 530.264 983.316 532.01 983.334 535.088C983.334 538.112 981.696 539.894 978.87 539.894ZM978.87 538.526C980.652 538.526 981.498 537.392 981.498 535.088C981.498 532.766 980.634 531.632 978.87 531.632C977.088 531.632 976.224 532.784 976.224 535.088C976.224 537.41 977.088 538.526 978.87 538.526ZM984.948 543.08L984.948 541.694L985.884 541.694C986.514 541.694 986.964 541.46 987.27 540.668L987.63 539.696L984.12 530.48L985.956 530.48L988.494 537.644L991.158 530.48L992.94 530.48L988.656 541.316C988.116 542.684 987.306 543.08 986.046 543.08L984.948 543.08ZM998.074 539.894C995.212 539.894 993.592 538.058 993.592 535.088C993.592 532.118 995.212 530.264 998.038 530.264C1000.97 530.264 1002.32 532.244 1002.32 534.764L1002.32 535.376L995.392 535.376C995.464 537.572 996.436 538.526 998.074 538.526C999.352 538.526 1000.09 538.094 1000.45 537.05L1002.18 537.05C1001.71 538.958 1000.25 539.894 998.074 539.894ZM998.038 531.614C996.598 531.614 995.662 532.37 995.446 534.152L1000.52 534.152C1000.41 532.478 999.604 531.614 998.038 531.614ZM1007.75 539.894C1005.23 539.894 1003.76 538.112 1003.76 535.052C1003.76 532.01 1005.25 530.264 1007.75 530.264C1009.12 530.264 1010.17 530.84 1010.74 531.992L1010.74 527.078L1012.51 527.078L1012.51 539.678L1010.76 539.678L1010.76 538.13C1010.2 539.282 1009.18 539.894 1007.75 539.894ZM1008.13 538.526C1009.81 538.526 1010.74 537.41 1010.74 535.106C1010.74 532.766 1009.79 531.632 1008.13 531.632C1006.53 531.632 1005.58 532.694 1005.58 535.106C1005.58 537.536 1006.53 538.526 1008.13 538.526ZM941.573 557.894C940.169 557.894 939.161 557.318 938.585 556.166L938.585 557.678L936.821 557.678L936.821 545.078L938.603 545.078L938.603 549.992C939.179 548.84 940.223 548.264 941.591 548.264C944.093 548.264 945.569 550.028 945.569 553.052C945.569 556.13 944.093 557.894 941.573 557.894ZM941.195 556.526C942.797 556.526 943.751 555.518 943.751 553.106C943.751 550.676 942.797 549.632 941.195 549.632C939.539 549.632 938.603 550.784 938.603 553.106C938.603 555.428 939.539 556.526 941.195 556.526ZM950.21 557.894C948.194 557.894 946.988 556.868 946.988 555.104C946.988 553.43 947.87 552.584 949.76 552.296L951.506 552.008C952.82 551.792 953.144 551.522 953.144 550.874C953.144 550.064 952.64 549.578 951.236 549.578C949.76 549.578 949.166 550.046 949.058 551.054L947.384 551.054C947.564 549.146 948.95 548.264 951.272 548.264C953.774 548.264 954.89 549.218 954.89 551.198L954.89 555.824C954.89 556.238 955.052 556.4 955.448 556.4L955.808 556.4L955.808 557.714C955.52 557.75 955.268 557.768 954.926 557.768C953.972 557.768 953.396 557.408 953.27 556.436C952.694 557.444 951.596 557.894 950.21 557.894ZM950.642 556.58C951.956 556.58 953.162 555.932 953.162 554.402L953.162 552.656C952.856 552.836 952.424 552.98 951.632 553.142L950.318 553.412C949.112 553.664 948.752 554.168 948.752 554.996C948.752 555.986 949.418 556.58 950.642 556.58ZM961.477 557.894C958.705 557.894 957.049 556.13 957.049 553.088C957.049 549.992 958.723 548.264 961.477 548.264C963.871 548.264 965.293 549.29 965.671 551.504L963.889 551.504C963.601 550.154 962.863 549.632 961.495 549.632C959.785 549.632 958.867 550.73 958.867 553.088C958.867 555.446 959.803 556.526 961.495 556.526C962.917 556.526 963.619 555.95 963.907 554.582L965.671 554.582C965.311 556.724 963.943 557.894 961.477 557.894ZM973.571 557.678L969.377 552.818L969.377 557.678L967.595 557.678L967.595 545.078L969.377 545.078L969.377 552.71L973.373 548.48L975.461 548.48L971.357 552.71L975.839 557.678L973.571 557.678ZM980.523 557.894C977.661 557.894 976.041 556.058 976.041 553.088C976.041 550.118 977.661 548.264 980.487 548.264C983.421 548.264 984.771 550.244 984.771 552.764L984.771 553.376L977.841 553.376C977.913 555.572 978.885 556.526 980.523 556.526C981.801 556.526 982.539 556.094 982.899 555.05L984.627 555.05C984.159 556.958 982.701 557.894 980.523 557.894ZM980.487 549.614C979.047 549.614 978.111 550.37 977.895 552.152L982.971 552.152C982.863 550.478 982.053 549.614 980.487 549.614ZM986.764 557.678L986.764 548.48L988.528 548.48L988.528 549.794C989.014 548.786 990.022 548.264 991.354 548.264C993.388 548.264 994.666 549.578 994.666 551.828L994.666 557.678L992.884 557.678L992.884 552.044C992.884 550.37 992.218 549.65 990.796 549.65C989.284 549.65 988.546 550.442 988.546 552.314L988.546 557.678L986.764 557.678ZM1000.59 557.894C998.075 557.894 996.599 556.112 996.599 553.052C996.599 550.01 998.093 548.264 1000.59 548.264C1001.96 548.264 1003.01 548.84 1003.58 549.992L1003.58 545.078L1005.35 545.078L1005.35 557.678L1003.6 557.678L1003.6 556.13C1003.04 557.282 1002.02 557.894 1000.59 557.894ZM1000.97 556.526C1002.65 556.526 1003.58 555.41 1003.58 553.106C1003.58 550.766 1002.63 549.632 1000.97 549.632C999.371 549.632 998.417 550.694 998.417 553.106C998.417 555.536 999.371 556.526 1000.97 556.526ZM1013.14 547.31C1013.14 545.762 1013.84 545.078 1015.59 545.078L1016.86 545.078L1016.86 546.41L1015.87 546.41C1015.14 546.41 1014.9 546.608 1014.9 547.472L1014.9 548.48L1016.86 548.48L1016.86 549.74L1014.9 549.74L1014.9 557.678L1013.14 557.678L1013.14 549.74L1011.75 549.74L1011.75 548.48L1013.14 548.48L1013.14 547.31ZM1018.33 557.678L1018.33 548.48L1020.08 548.48L1020.08 549.956C1020.46 548.894 1021.2 548.408 1022.49 548.408L1023.36 548.408L1023.36 549.956L1022.24 549.956C1020.69 549.956 1020.12 550.568 1020.12 552.638L1020.12 557.678L1018.33 557.678ZM1028.57 557.894C1025.75 557.894 1024.11 556.112 1024.11 553.088C1024.11 550.028 1025.75 548.264 1028.57 548.264C1031.4 548.264 1033.02 550.01 1033.04 553.088C1033.04 556.112 1031.4 557.894 1028.57 557.894ZM1028.57 556.526C1030.35 556.526 1031.2 555.392 1031.2 553.088C1031.2 550.766 1030.34 549.632 1028.57 549.632C1026.79 549.632 1025.93 550.784 1025.93 553.088C1025.93 555.41 1026.79 556.526 1028.57 556.526ZM1035.06 557.678L1035.06 548.48L1036.82 548.48L1036.82 549.704C1037.24 548.768 1038.14 548.264 1039.32 548.264C1040.62 548.264 1041.48 548.894 1041.83 549.902C1042.31 548.804 1043.23 548.264 1044.6 548.264C1046.52 548.264 1047.69 549.434 1047.69 551.648L1047.69 557.678L1045.91 557.678L1045.91 551.666C1045.91 550.226 1045.34 549.65 1044.15 549.65C1042.94 549.65 1042.26 550.316 1042.26 551.972L1042.26 557.678L1040.49 557.678L1040.49 551.756C1040.49 550.244 1039.92 549.65 1038.77 549.65C1037.54 549.65 1036.84 550.334 1036.84 551.972L1036.84 557.678L1035.06 557.678ZM1058.71 561.422C1056.08 561.422 1054.9 560.594 1054.7 558.632L1056.41 558.632C1056.57 559.694 1057.24 560.054 1058.66 560.054C1060.46 560.054 1061.16 559.442 1061.16 557.876L1061.16 555.95C1060.57 556.994 1059.5 557.498 1058.19 557.498C1055.94 557.498 1054.34 555.896 1054.34 552.89C1054.34 549.848 1055.99 548.264 1058.26 548.264C1059.58 548.264 1060.6 548.75 1061.18 549.776L1061.18 548.48L1062.94 548.48L1062.94 557.894C1062.94 560.234 1061.59 561.422 1058.71 561.422ZM1058.68 556.148C1060.3 556.148 1061.16 555.122 1061.16 552.89C1061.16 550.622 1060.28 549.614 1058.68 549.614C1057.02 549.614 1056.14 550.622 1056.14 552.854C1056.14 555.104 1057.02 556.148 1058.68 556.148ZM1065.53 557.678L1065.53 548.48L1067.32 548.48L1067.32 557.678L1065.53 557.678ZM1065.52 546.914L1065.52 545.078L1067.33 545.078L1067.33 546.914L1065.52 546.914ZM1072.72 557.678C1070.92 557.678 1070.29 557.048 1070.29 555.464L1070.29 549.74L1068.94 549.74L1068.94 548.48L1070.29 548.48L1070.29 545.78L1072.08 545.78L1072.08 548.48L1074.04 548.48L1074.04 549.74L1072.08 549.74L1072.08 555.32C1072.08 556.094 1072.33 556.328 1073.16 556.328L1074.04 556.328L1074.04 557.678L1072.72 557.678ZM1076.04 557.678L1076.04 545.078L1077.82 545.078L1077.82 549.758C1078.32 548.75 1079.31 548.264 1080.63 548.264C1082.66 548.264 1083.94 549.578 1083.94 551.828L1083.94 557.678L1082.16 557.678L1082.16 552.044C1082.16 550.37 1081.49 549.65 1080.07 549.65C1078.56 549.65 1077.82 550.442 1077.82 552.314L1077.82 557.678L1076.04 557.678ZM1094.22 548.48L1094.22 557.678L1092.46 557.678L1092.46 556.364C1091.97 557.39 1090.98 557.894 1089.63 557.894C1087.6 557.894 1086.32 556.58 1086.32 554.33L1086.32 548.48L1088.1 548.48L1088.1 554.114C1088.1 555.788 1088.77 556.508 1090.19 556.508C1091.69 556.508 1092.44 555.716 1092.44 553.844L1092.44 548.48L1094.22 548.48ZM1101.57 557.894C1100.17 557.894 1099.16 557.318 1098.59 556.166L1098.59 557.678L1096.82 557.678L1096.82 545.078L1098.6 545.078L1098.6 549.992C1099.18 548.84 1100.22 548.264 1101.59 548.264C1104.09 548.264 1105.57 550.028 1105.57 553.052C1105.57 556.13 1104.09 557.894 1101.57 557.894ZM1101.2 556.526C1102.8 556.526 1103.75 555.518 1103.75 553.106C1103.75 550.676 1102.8 549.632 1101.2 549.632C1099.54 549.632 1098.6 550.784 1098.6 553.106C1098.6 555.428 1099.54 556.526 1101.2 556.526Z" fill="black"/>
<path d="M920.752 551.313H902.236L911.494 535.278L920.752 551.313Z" stroke="black" stroke-width="4.46011"/>
<path d="M936.91 356.997L936.91 344.397L941.59 344.397C945.73 344.397 947.53 345.963 947.53 350.697C947.53 355.431 945.73 356.997 941.59 356.997L936.91 356.997ZM941.59 355.485C944.56 355.485 945.658 354.477 945.658 350.697C945.658 346.899 944.56 345.891 941.59 345.891L938.728 345.891L938.728 355.485L941.59 355.485ZM953.58 357.213C950.718 357.213 949.098 355.377 949.098 352.407C949.098 349.437 950.718 347.583 953.544 347.583C956.478 347.583 957.828 349.563 957.828 352.083L957.828 352.695L950.898 352.695C950.97 354.891 951.942 355.845 953.58 355.845C954.858 355.845 955.596 355.413 955.956 354.369L957.684 354.369C957.216 356.277 955.758 357.213 953.58 357.213ZM953.544 348.933C952.104 348.933 951.168 349.689 950.952 351.471L956.028 351.471C955.92 349.797 955.11 348.933 953.544 348.933ZM964.573 347.583C967.093 347.583 968.569 349.365 968.569 352.425C968.569 355.467 967.093 357.213 964.591 357.213C963.205 357.213 962.179 356.655 961.603 355.485L961.603 360.399L959.821 360.399L959.821 347.799L961.585 347.799L961.585 349.311C962.161 348.159 963.169 347.583 964.573 347.583ZM964.195 348.951C962.539 348.951 961.603 350.067 961.603 352.371C961.603 354.711 962.539 355.845 964.195 355.845C965.797 355.845 966.751 354.783 966.751 352.371C966.751 349.941 965.797 348.951 964.195 348.951ZM970.6 356.997L970.6 344.397L972.382 344.397L972.382 356.997L970.6 356.997ZM978.87 357.213C976.044 357.213 974.406 355.431 974.406 352.407C974.406 349.347 976.044 347.583 978.87 347.583C981.696 347.583 983.316 349.329 983.334 352.407C983.334 355.431 981.696 357.213 978.87 357.213ZM978.87 355.845C980.652 355.845 981.498 354.711 981.498 352.407C981.498 350.085 980.634 348.951 978.87 348.951C977.088 348.951 976.224 350.103 976.224 352.407C976.224 354.729 977.088 355.845 978.87 355.845ZM984.948 360.399L984.948 359.013L985.884 359.013C986.514 359.013 986.964 358.779 987.27 357.987L987.63 357.015L984.12 347.799L985.956 347.799L988.494 354.963L991.158 347.799L992.94 347.799L988.656 358.635C988.116 360.003 987.306 360.399 986.046 360.399L984.948 360.399ZM998.074 357.213C995.212 357.213 993.592 355.377 993.592 352.407C993.592 349.437 995.212 347.583 998.038 347.583C1000.97 347.583 1002.32 349.563 1002.32 352.083L1002.32 352.695L995.392 352.695C995.464 354.891 996.436 355.845 998.074 355.845C999.352 355.845 1000.09 355.413 1000.45 354.369L1002.18 354.369C1001.71 356.277 1000.25 357.213 998.074 357.213ZM998.038 348.933C996.598 348.933 995.662 349.689 995.446 351.471L1000.52 351.471C1000.41 349.797 999.604 348.933 998.038 348.933ZM1007.75 357.213C1005.23 357.213 1003.76 355.431 1003.76 352.371C1003.76 349.329 1005.25 347.583 1007.75 347.583C1009.12 347.583 1010.16 348.159 1010.74 349.311L1010.74 344.397L1012.5 344.397L1012.5 356.997L1010.76 356.997L1010.76 355.449C1010.2 356.601 1009.17 357.213 1007.75 357.213ZM1008.13 355.845C1009.8 355.845 1010.74 354.729 1010.74 352.425C1010.74 350.085 1009.79 348.951 1008.13 348.951C1006.53 348.951 1005.57 350.013 1005.57 352.425C1005.57 354.855 1006.53 355.845 1008.13 355.845ZM937.306 364.629C937.306 363.081 938.008 362.397 939.754 362.397L941.032 362.397L941.032 363.729L940.042 363.729C939.304 363.729 939.07 363.927 939.07 364.791L939.07 365.799L941.032 365.799L941.032 367.059L939.07 367.059L939.07 374.997L937.306 374.997L937.306 367.059L935.92 367.059L935.92 365.799L937.306 365.799L937.306 364.629ZM942.502 374.997L942.502 365.799L944.248 365.799L944.248 367.275C944.626 366.213 945.364 365.727 946.66 365.727L947.524 365.727L947.524 367.275L946.408 367.275C944.86 367.275 944.284 367.887 944.284 369.957L944.284 374.997L942.502 374.997ZM952.74 375.213C949.914 375.213 948.276 373.431 948.276 370.407C948.276 367.347 949.914 365.583 952.74 365.583C955.566 365.583 957.186 367.329 957.204 370.407C957.204 373.431 955.566 375.213 952.74 375.213ZM952.74 373.845C954.522 373.845 955.368 372.711 955.368 370.407C955.368 368.085 954.504 366.951 952.74 366.951C950.958 366.951 950.094 368.103 950.094 370.407C950.094 372.729 950.958 373.845 952.74 373.845ZM959.227 374.997L959.227 365.799L960.991 365.799L960.991 367.113C961.477 366.105 962.485 365.583 963.817 365.583C965.851 365.583 967.129 366.897 967.129 369.147L967.129 374.997L965.347 374.997L965.347 369.363C965.347 367.689 964.681 366.969 963.259 366.969C961.747 366.969 961.009 367.761 961.009 369.633L961.009 374.997L959.227 374.997ZM972.358 374.997C970.558 374.997 969.928 374.367 969.928 372.783L969.928 367.059L968.578 367.059L968.578 365.799L969.928 365.799L969.928 363.099L971.71 363.099L971.71 365.799L973.672 365.799L973.672 367.059L971.71 367.059L971.71 372.639C971.71 373.413 971.962 373.647 972.79 373.647L973.672 373.647L973.672 374.997L972.358 374.997ZM979.419 375.213C976.557 375.213 974.937 373.377 974.937 370.407C974.937 367.437 976.557 365.583 979.383 365.583C982.317 365.583 983.667 367.563 983.667 370.083L983.667 370.695L976.737 370.695C976.809 372.891 977.781 373.845 979.419 373.845C980.697 373.845 981.435 373.413 981.795 372.369L983.523 372.369C983.055 374.277 981.597 375.213 979.419 375.213ZM979.383 366.933C977.943 366.933 977.007 367.689 976.791 369.471L981.867 369.471C981.759 367.797 980.949 366.933 979.383 366.933ZM985.66 374.997L985.66 365.799L987.424 365.799L987.424 367.113C987.91 366.105 988.918 365.583 990.25 365.583C992.284 365.583 993.562 366.897 993.562 369.147L993.562 374.997L991.78 374.997L991.78 369.363C991.78 367.689 991.114 366.969 989.692 366.969C988.18 366.969 987.442 367.761 987.442 369.633L987.442 374.997L985.66 374.997ZM999.491 375.213C996.971 375.213 995.495 373.431 995.495 370.371C995.495 367.329 996.989 365.583 999.491 365.583C1000.86 365.583 1001.9 366.159 1002.48 367.311L1002.48 362.397L1004.24 362.397L1004.24 374.997L1002.5 374.997L1002.5 373.449C1001.94 374.601 1000.91 375.213 999.491 375.213ZM999.869 373.845C1001.54 373.845 1002.48 372.729 1002.48 370.425C1002.48 368.085 1001.52 366.951 999.869 366.951C998.267 366.951 997.313 368.013 997.313 370.425C997.313 372.855 998.267 373.845 999.869 373.845Z" fill="black"/>
<path d="M920.751 368.633H902.236L911.494 352.598L920.751 368.633Z" stroke="black" stroke-width="4.46011"/>
<path d="M936.91 716.997L936.91 704.397L941.59 704.397C945.73 704.397 947.53 705.963 947.53 710.697C947.53 715.431 945.73 716.997 941.59 716.997L936.91 716.997ZM941.59 715.485C944.56 715.485 945.658 714.477 945.658 710.697C945.658 706.899 944.56 705.891 941.59 705.891L938.728 705.891L938.728 715.485L941.59 715.485ZM953.58 717.213C950.718 717.213 949.098 715.377 949.098 712.407C949.098 709.437 950.718 707.583 953.544 707.583C956.478 707.583 957.828 709.563 957.828 712.083L957.828 712.695L950.898 712.695C950.97 714.891 951.942 715.845 953.58 715.845C954.858 715.845 955.596 715.413 955.956 714.369L957.684 714.369C957.216 716.277 955.758 717.213 953.58 717.213ZM953.544 708.933C952.104 708.933 951.168 709.689 950.952 711.471L956.028 711.471C955.92 709.797 955.11 708.933 953.544 708.933ZM964.573 707.583C967.093 707.583 968.569 709.365 968.569 712.425C968.569 715.467 967.093 717.213 964.591 717.213C963.205 717.213 962.179 716.655 961.603 715.485L961.603 720.399L959.821 720.399L959.821 707.799L961.585 707.799L961.585 709.311C962.161 708.159 963.169 707.583 964.573 707.583ZM964.195 708.951C962.539 708.951 961.603 710.067 961.603 712.371C961.603 714.711 962.539 715.845 964.195 715.845C965.797 715.845 966.751 714.783 966.751 712.371C966.751 709.941 965.797 708.951 964.195 708.951ZM970.6 716.997L970.6 704.397L972.382 704.397L972.382 716.997L970.6 716.997ZM978.87 717.213C976.044 717.213 974.406 715.431 974.406 712.407C974.406 709.347 976.044 707.583 978.87 707.583C981.696 707.583 983.316 709.329 983.334 712.407C983.334 715.431 981.696 717.213 978.87 717.213ZM978.87 715.845C980.652 715.845 981.498 714.711 981.498 712.407C981.498 710.085 980.634 708.951 978.87 708.951C977.088 708.951 976.224 710.103 976.224 712.407C976.224 714.729 977.088 715.845 978.87 715.845ZM984.948 720.399L984.948 719.013L985.884 719.013C986.514 719.013 986.964 718.779 987.27 717.987L987.63 717.015L984.12 707.799L985.956 707.799L988.494 714.963L991.158 707.799L992.94 707.799L988.656 718.635C988.116 720.003 987.306 720.399 986.046 720.399L984.948 720.399ZM998.074 717.213C995.212 717.213 993.592 715.377 993.592 712.407C993.592 709.437 995.212 707.583 998.038 707.583C1000.97 707.583 1002.32 709.563 1002.32 712.083L1002.32 712.695L995.392 712.695C995.464 714.891 996.436 715.845 998.074 715.845C999.352 715.845 1000.09 715.413 1000.45 714.369L1002.18 714.369C1001.71 716.277 1000.25 717.213 998.074 717.213ZM998.038 708.933C996.598 708.933 995.662 709.689 995.446 711.471L1000.52 711.471C1000.41 709.797 999.604 708.933 998.038 708.933ZM1007.75 717.213C1005.23 717.213 1003.76 715.431 1003.76 712.371C1003.76 709.329 1005.25 707.583 1007.75 707.583C1009.12 707.583 1010.16 708.159 1010.74 709.311L1010.74 704.397L1012.5 704.397L1012.5 716.997L1010.76 716.997L1010.76 715.449C1010.2 716.601 1009.17 717.213 1007.75 717.213ZM1008.13 715.845C1009.8 715.845 1010.74 714.729 1010.74 712.425C1010.74 710.085 1009.79 708.951 1008.13 708.951C1006.53 708.951 1005.57 710.013 1005.57 712.425C1005.57 714.855 1006.53 715.845 1008.13 715.845ZM941.572 725.583C944.092 725.583 945.568 727.365 945.568 730.425C945.568 733.467 944.092 735.213 941.59 735.213C940.204 735.213 939.178 734.655 938.602 733.485L938.602 738.399L936.82 738.399L936.82 725.799L938.584 725.799L938.584 727.311C939.16 726.159 940.168 725.583 941.572 725.583ZM941.194 726.951C939.538 726.951 938.602 728.067 938.602 730.371C938.602 732.711 939.538 733.845 941.194 733.845C942.796 733.845 943.75 732.783 943.75 730.371C943.75 727.941 942.796 726.951 941.194 726.951ZM951.488 735.213C948.662 735.213 947.024 733.431 947.024 730.407C947.024 727.347 948.662 725.583 951.488 725.583C954.314 725.583 955.934 727.329 955.952 730.407C955.952 733.431 954.314 735.213 951.488 735.213ZM951.488 733.845C953.27 733.845 954.116 732.711 954.116 730.407C954.116 728.085 953.252 726.951 951.488 726.951C949.706 726.951 948.842 728.103 948.842 730.407C948.842 732.729 949.706 733.845 951.488 733.845ZM961.341 735.213C958.839 735.213 957.417 734.241 957.219 732.297L958.893 732.297C959.055 733.395 959.901 733.917 961.359 733.917C962.817 733.917 963.429 733.395 963.429 732.513C963.429 731.739 963.015 731.415 961.755 731.145L960.279 730.839C958.335 730.443 957.597 729.579 957.597 728.247C957.597 726.501 959.037 725.583 961.107 725.583C963.141 725.583 964.581 726.483 964.815 728.319L963.195 728.319C962.997 727.401 962.349 726.879 961.107 726.879C959.919 726.879 959.253 727.329 959.253 728.067C959.253 728.679 959.523 729.039 960.747 729.291L962.511 729.651C964.401 730.029 965.175 730.875 965.175 732.351C965.175 734.151 963.825 735.213 961.341 735.213ZM969.858 734.997C968.058 734.997 967.428 734.367 967.428 732.783L967.428 727.059L966.078 727.059L966.078 725.799L967.428 725.799L967.428 723.099L969.21 723.099L969.21 725.799L971.172 725.799L971.172 727.059L969.21 727.059L969.21 732.639C969.21 733.413 969.462 733.647 970.29 733.647L971.172 733.647L971.172 734.997L969.858 734.997ZM976.811 738.741C974.183 738.741 972.995 737.913 972.797 735.951L974.507 735.951C974.669 737.013 975.335 737.373 976.757 737.373C978.557 737.373 979.259 736.761 979.259 735.195L979.259 733.269C978.665 734.313 977.603 734.817 976.289 734.817C974.039 734.817 972.437 733.215 972.437 730.209C972.437 727.167 974.093 725.583 976.361 725.583C977.675 725.583 978.701 726.069 979.277 727.095L979.277 725.799L981.041 725.799L981.041 735.213C981.041 737.553 979.691 738.741 976.811 738.741ZM976.775 733.467C978.395 733.467 979.259 732.441 979.259 730.209C979.259 727.941 978.377 726.933 976.775 726.933C975.119 726.933 974.237 727.941 974.237 730.173C974.237 732.423 975.119 733.467 976.775 733.467ZM983.634 734.997L983.634 725.799L985.38 725.799L985.38 727.275C985.758 726.213 986.496 725.727 987.792 725.727L988.656 725.727L988.656 727.275L987.54 727.275C985.992 727.275 985.416 727.887 985.416 729.957L985.416 734.997L983.634 734.997ZM993.89 735.213C991.028 735.213 989.408 733.377 989.408 730.407C989.408 727.437 991.028 725.583 993.854 725.583C996.788 725.583 998.138 727.563 998.138 730.083L998.138 730.695L991.208 730.695C991.28 732.891 992.252 733.845 993.89 733.845C995.168 733.845 995.906 733.413 996.266 732.369L997.994 732.369C997.526 734.277 996.068 735.213 993.89 735.213ZM993.854 726.933C992.414 726.933 991.478 727.689 991.262 729.471L996.338 729.471C996.23 727.797 995.42 726.933 993.854 726.933ZM1003.5 735.213C1001 735.213 999.573 734.241 999.375 732.297L1001.05 732.297C1001.21 733.395 1002.06 733.917 1003.52 733.917C1004.97 733.917 1005.59 733.395 1005.59 732.513C1005.59 731.739 1005.17 731.415 1003.91 731.145L1002.44 730.839C1000.49 730.443 999.753 729.579 999.753 728.247C999.753 726.501 1001.19 725.583 1003.26 725.583C1005.3 725.583 1006.74 726.483 1006.97 728.319L1005.35 728.319C1005.15 727.401 1004.51 726.879 1003.26 726.879C1002.08 726.879 1001.41 727.329 1001.41 728.067C1001.41 728.679 1001.68 729.039 1002.9 729.291L1004.67 729.651C1006.56 730.029 1007.33 730.875 1007.33 732.351C1007.33 734.151 1005.98 735.213 1003.5 735.213ZM1017.39 735.213C1014.87 735.213 1013.4 733.431 1013.4 730.371C1013.4 727.329 1014.89 725.583 1017.39 725.583C1018.76 725.583 1019.81 726.159 1020.38 727.311L1020.38 722.397L1022.15 722.397L1022.15 734.997L1020.4 734.997L1020.4 733.449C1019.84 734.601 1018.82 735.213 1017.39 735.213ZM1017.77 733.845C1019.45 733.845 1020.38 732.729 1020.38 730.425C1020.38 728.085 1019.43 726.951 1017.77 726.951C1016.17 726.951 1015.22 728.013 1015.22 730.425C1015.22 732.855 1016.17 733.845 1017.77 733.845ZM1028.62 735.213C1025.8 735.213 1024.16 733.431 1024.16 730.407C1024.16 727.347 1025.8 725.583 1028.62 725.583C1031.45 725.583 1033.07 727.329 1033.09 730.407C1033.09 733.431 1031.45 735.213 1028.62 735.213ZM1028.62 733.845C1030.41 733.845 1031.25 732.711 1031.25 730.407C1031.25 728.085 1030.39 726.951 1028.62 726.951C1026.84 726.951 1025.98 728.103 1025.98 730.407C1025.98 732.729 1026.84 733.845 1028.62 733.845ZM1038.98 735.213C1036.21 735.213 1034.55 733.449 1034.55 730.407C1034.55 727.311 1036.23 725.583 1038.98 725.583C1041.37 725.583 1042.8 726.609 1043.17 728.823L1041.39 728.823C1041.1 727.473 1040.37 726.951 1039 726.951C1037.29 726.951 1036.37 728.049 1036.37 730.407C1036.37 732.765 1037.31 733.845 1039 733.845C1040.42 733.845 1041.12 733.269 1041.41 731.901L1043.17 731.901C1042.81 734.043 1041.45 735.213 1038.98 735.213ZM1051.08 734.997L1046.88 730.137L1046.88 734.997L1045.1 734.997L1045.1 722.397L1046.88 722.397L1046.88 730.029L1050.88 725.799L1052.97 725.799L1048.86 730.029L1053.34 734.997L1051.08 734.997ZM1058.03 735.213C1055.17 735.213 1053.55 733.377 1053.55 730.407C1053.55 727.437 1055.17 725.583 1057.99 725.583C1060.93 725.583 1062.28 727.563 1062.28 730.083L1062.28 730.695L1055.35 730.695C1055.42 732.891 1056.39 733.845 1058.03 733.845C1059.31 733.845 1060.04 733.413 1060.4 732.369L1062.13 732.369C1061.66 734.277 1060.21 735.213 1058.03 735.213ZM1057.99 726.933C1056.55 726.933 1055.62 727.689 1055.4 729.471L1060.48 729.471C1060.37 727.797 1059.56 726.933 1057.99 726.933ZM1064.27 734.997L1064.27 725.799L1066.01 725.799L1066.01 727.275C1066.39 726.213 1067.13 725.727 1068.43 725.727L1069.29 725.727L1069.29 727.275L1068.17 727.275C1066.63 727.275 1066.05 727.887 1066.05 729.957L1066.05 734.997L1064.27 734.997ZM1075.23 734.997L1075.23 725.799L1077.01 725.799L1077.01 734.997L1075.23 734.997ZM1075.21 724.233L1075.21 722.397L1077.03 722.397L1077.03 724.233L1075.21 724.233ZM1079.61 734.997L1079.61 725.799L1081.37 725.799L1081.37 727.023C1081.79 726.087 1082.69 725.583 1083.87 725.583C1085.17 725.583 1086.03 726.213 1086.38 727.221C1086.86 726.123 1087.78 725.583 1089.15 725.583C1091.07 725.583 1092.24 726.753 1092.24 728.967L1092.24 734.997L1090.46 734.997L1090.46 728.985C1090.46 727.545 1089.89 726.969 1088.7 726.969C1087.49 726.969 1086.81 727.635 1086.81 729.291L1086.81 734.997L1085.04 734.997L1085.04 729.075C1085.04 727.563 1084.47 726.969 1083.32 726.969C1082.09 726.969 1081.39 727.653 1081.39 729.291L1081.39 734.997L1079.61 734.997ZM1097.34 735.213C1095.32 735.213 1094.12 734.187 1094.12 732.423C1094.12 730.749 1095 729.903 1096.89 729.615L1098.64 729.327C1099.95 729.111 1100.27 728.841 1100.27 728.193C1100.27 727.383 1099.77 726.897 1098.37 726.897C1096.89 726.897 1096.3 727.365 1096.19 728.373L1094.51 728.373C1094.69 726.465 1096.08 725.583 1098.4 725.583C1100.9 725.583 1102.02 726.537 1102.02 728.517L1102.02 733.143C1102.02 733.557 1102.18 733.719 1102.58 733.719L1102.94 733.719L1102.94 735.033C1102.65 735.069 1102.4 735.087 1102.06 735.087C1101.1 735.087 1100.53 734.727 1100.4 733.755C1099.82 734.763 1098.73 735.213 1097.34 735.213ZM1097.77 733.899C1099.09 733.899 1100.29 733.251 1100.29 731.721L1100.29 729.975C1099.99 730.155 1099.55 730.299 1098.76 730.461L1097.45 730.731C1096.24 730.983 1095.88 731.487 1095.88 732.315C1095.88 733.305 1096.55 733.899 1097.77 733.899ZM1108.55 738.741C1105.92 738.741 1104.74 737.913 1104.54 735.951L1106.25 735.951C1106.41 737.013 1107.08 737.373 1108.5 737.373C1110.3 737.373 1111 736.761 1111 735.195L1111 733.269C1110.41 734.313 1109.34 734.817 1108.03 734.817C1105.78 734.817 1104.18 733.215 1104.18 730.209C1104.18 727.167 1105.83 725.583 1108.1 725.583C1109.42 725.583 1110.44 726.069 1111.02 727.095L1111.02 725.799L1112.78 725.799L1112.78 735.213C1112.78 737.553 1111.43 738.741 1108.55 738.741ZM1108.52 733.467C1110.14 733.467 1111 732.441 1111 730.209C1111 727.941 1110.12 726.933 1108.52 726.933C1106.86 726.933 1105.98 727.941 1105.98 730.173C1105.98 732.423 1106.86 733.467 1108.52 733.467ZM1119.28 735.213C1116.42 735.213 1114.8 733.377 1114.8 730.407C1114.8 727.437 1116.42 725.583 1119.25 725.583C1122.18 725.583 1123.53 727.563 1123.53 730.083L1123.53 730.695L1116.6 730.695C1116.67 732.891 1117.64 733.845 1119.28 733.845C1120.56 733.845 1121.3 733.413 1121.66 732.369L1123.39 732.369C1122.92 734.277 1121.46 735.213 1119.28 735.213ZM1119.25 726.933C1117.81 726.933 1116.87 727.689 1116.65 729.471L1121.73 729.471C1121.62 727.797 1120.81 726.933 1119.25 726.933Z" fill="black"/>
<path d="M920.751 728.633H902.236L911.494 712.598L920.751 728.633Z" stroke="black" stroke-width="4.46011"/>
<path d="M911.889 381L911.889 519.279" stroke="black"/>
<path d="M911.889 562.772L911.889 701.051" stroke="black"/>
</g>
<defs>
<linearGradient id="paint0_linear_150_46" x1="4.37114e-08" y1="360" x2="2183" y2="360" gradientUnits="userSpaceOnUse">
<stop stop-color="#4F8669"/>
<stop offset="0.105769" stop-color="#1923A8"/>
</linearGradient>
<linearGradient id="paint1_linear_150_46" x1="4.37114e-08" y1="540" x2="2183" y2="540" gradientUnits="userSpaceOnUse">
<stop stop-color="#D8AB56"/>
<stop offset="0.1875" stop-color="#1923A8"/>
</linearGradient>
<linearGradient id="paint2_linear_150_46" x1="4.37114e-08" y1="720" x2="2183" y2="720" gradientUnits="userSpaceOnUse">
<stop stop-color="#E9C6C5"/>
<stop offset="0.110644" stop-color="#1923A8"/>
</linearGradient>
<clipPath id="clip0_150_46">
<rect width="1920" height="1080" fill="white"/>
</clipPath>
</defs>
</svg>
