<svg width="1920" height="1080" viewBox="0 0 1920 1080" fill="none" xmlns="http://www.w3.org/2000/svg">
<g clip-path="url(#clip0_150_128)">
<rect width="1920" height="1080" fill="#F1EFE8"/>
<path opacity="0.89" d="M0 359.5C0 359.5 690.341 359.5 1091.5 359.5C1492.66 359.5 1757.12 539.5 2097.38 539.5" stroke="url(#paint0_linear_150_128)" stroke-width="180"/>
<path opacity="0.79" d="M0 540L2183 540" stroke="url(#paint1_linear_150_128)" stroke-width="180"/>
<path opacity="0.69" d="M1.57361e-05 720C1.57361e-05 720 796.021 720 1187.88 720C1579.74 720 1908.71 540 2183 540" stroke="url(#paint2_linear_150_128)" stroke-width="180"/>
<path d="M60 -126.262L60.0001 1206.26" stroke="#F1EFE8"/>
<path d="M360 -126.262L360 1206.26" stroke="#F1EFE8"/>
<path d="M660 -126.262L660 1206.26" stroke="#F1EFE8"/>
<path d="M960 -126.262L960 1206.26" stroke="#F1EFE8"/>
<path d="M1260 -126.262L1260 1206.26" stroke="#F1EFE8"/>
<path d="M1560 -126.262L1560 1206.26" stroke="#F1EFE8"/>
<path d="M1860 -126.262L1860 1206.26" stroke="#F1EFE8"/>
<path d="M936.684 539.678L936.684 527.078L941.364 527.078C945.504 527.078 947.304 528.644 947.304 533.378C947.304 538.112 945.504 539.678 941.364 539.678L936.684 539.678ZM941.364 538.166C944.334 538.166 945.432 537.158 945.432 533.378C945.432 529.58 944.334 528.572 941.364 528.572L938.502 528.572L938.502 538.166L941.364 538.166ZM953.354 539.894C950.492 539.894 948.872 538.058 948.872 535.088C948.872 532.118 950.492 530.264 953.318 530.264C956.252 530.264 957.602 532.244 957.602 534.764L957.602 535.376L950.672 535.376C950.744 537.572 951.716 538.526 953.354 538.526C954.632 538.526 955.37 538.094 955.73 537.05L957.458 537.05C956.99 538.958 955.532 539.894 953.354 539.894ZM953.318 531.614C951.878 531.614 950.942 532.37 950.726 534.152L955.802 534.152C955.694 532.478 954.884 531.614 953.318 531.614ZM964.346 530.264C966.866 530.264 968.342 532.046 968.342 535.106C968.342 538.148 966.866 539.894 964.364 539.894C962.978 539.894 961.952 539.336 961.376 538.166L961.376 543.08L959.594 543.08L959.594 530.48L961.358 530.48L961.358 531.992C961.934 530.84 962.942 530.264 964.346 530.264ZM963.968 531.632C962.312 531.632 961.376 532.748 961.376 535.052C961.376 537.392 962.312 538.526 963.968 538.526C965.57 538.526 966.524 537.464 966.524 535.052C966.524 532.622 965.57 531.632 963.968 531.632ZM970.374 539.678L970.374 527.078L972.156 527.078L972.156 539.678L970.374 539.678ZM978.643 539.894C975.817 539.894 974.179 538.112 974.179 535.088C974.179 532.028 975.817 530.264 978.643 530.264C981.469 530.264 983.089 532.01 983.107 535.088C983.107 538.112 981.469 539.894 978.643 539.894ZM978.643 538.526C980.425 538.526 981.271 537.392 981.271 535.088C981.271 532.766 980.407 531.632 978.643 531.632C976.861 531.632 975.997 532.784 975.997 535.088C975.997 537.41 976.861 538.526 978.643 538.526ZM984.721 543.08L984.721 541.694L985.657 541.694C986.287 541.694 986.737 541.46 987.043 540.668L987.403 539.696L983.893 530.48L985.729 530.48L988.267 537.644L990.931 530.48L992.713 530.48L988.429 541.316C987.889 542.684 987.079 543.08 985.819 543.08L984.721 543.08ZM997.847 539.894C994.985 539.894 993.365 538.058 993.365 535.088C993.365 532.118 994.985 530.264 997.811 530.264C1000.75 530.264 1002.1 532.244 1002.1 534.764L1002.1 535.376L995.165 535.376C995.237 537.572 996.209 538.526 997.847 538.526C999.125 538.526 999.863 538.094 1000.22 537.05L1001.95 537.05C1001.48 538.958 1000.03 539.894 997.847 539.894ZM997.811 531.614C996.371 531.614 995.435 532.37 995.219 534.152L1000.3 534.152C1000.19 532.478 999.377 531.614 997.811 531.614ZM1007.53 539.894C1005.01 539.894 1003.53 538.112 1003.53 535.052C1003.53 532.01 1005.02 530.264 1007.53 530.264C1008.89 530.264 1009.94 530.84 1010.51 531.992L1010.51 527.078L1012.28 527.078L1012.28 539.678L1010.53 539.678L1010.53 538.13C1009.97 539.282 1008.95 539.894 1007.53 539.894ZM1007.9 538.526C1009.58 538.526 1010.51 537.41 1010.51 535.106C1010.51 532.766 1009.56 531.632 1007.9 531.632C1006.3 531.632 1005.35 532.694 1005.35 535.106C1005.35 537.536 1006.3 538.526 1007.9 538.526ZM941.346 557.894C939.942 557.894 938.934 557.318 938.358 556.166L938.358 557.678L936.594 557.678L936.594 545.078L938.376 545.078L938.376 549.992C938.952 548.84 939.996 548.264 941.364 548.264C943.866 548.264 945.342 550.028 945.342 553.052C945.342 556.13 943.866 557.894 941.346 557.894ZM940.968 556.526C942.57 556.526 943.524 555.518 943.524 553.106C943.524 550.676 942.57 549.632 940.968 549.632C939.312 549.632 938.376 550.784 938.376 553.106C938.376 555.428 939.312 556.526 940.968 556.526ZM949.983 557.894C947.967 557.894 946.761 556.868 946.761 555.104C946.761 553.43 947.643 552.584 949.533 552.296L951.279 552.008C952.593 551.792 952.917 551.522 952.917 550.874C952.917 550.064 952.413 549.578 951.009 549.578C949.533 549.578 948.939 550.046 948.831 551.054L947.157 551.054C947.337 549.146 948.723 548.264 951.045 548.264C953.547 548.264 954.663 549.218 954.663 551.198L954.663 555.824C954.663 556.238 954.825 556.4 955.221 556.4L955.581 556.4L955.581 557.714C955.293 557.75 955.041 557.768 954.699 557.768C953.745 557.768 953.169 557.408 953.043 556.436C952.467 557.444 951.369 557.894 949.983 557.894ZM950.415 556.58C951.729 556.58 952.935 555.932 952.935 554.402L952.935 552.656C952.629 552.836 952.197 552.98 951.405 553.142L950.091 553.412C948.885 553.664 948.525 554.168 948.525 554.996C948.525 555.986 949.191 556.58 950.415 556.58ZM961.249 557.894C958.477 557.894 956.821 556.13 956.821 553.088C956.821 549.992 958.495 548.264 961.249 548.264C963.643 548.264 965.065 549.29 965.443 551.504L963.661 551.504C963.373 550.154 962.635 549.632 961.267 549.632C959.557 549.632 958.639 550.73 958.639 553.088C958.639 555.446 959.575 556.526 961.267 556.526C962.689 556.526 963.391 555.95 963.679 554.582L965.443 554.582C965.083 556.724 963.715 557.894 961.249 557.894ZM973.344 557.678L969.15 552.818L969.15 557.678L967.368 557.678L967.368 545.078L969.15 545.078L969.15 552.71L973.146 548.48L975.234 548.48L971.13 552.71L975.612 557.678L973.344 557.678ZM980.296 557.894C977.434 557.894 975.814 556.058 975.814 553.088C975.814 550.118 977.434 548.264 980.26 548.264C983.194 548.264 984.544 550.244 984.544 552.764L984.544 553.376L977.614 553.376C977.686 555.572 978.658 556.526 980.296 556.526C981.574 556.526 982.312 556.094 982.672 555.05L984.4 555.05C983.932 556.958 982.474 557.894 980.296 557.894ZM980.26 549.614C978.82 549.614 977.884 550.37 977.668 552.152L982.744 552.152C982.636 550.478 981.826 549.614 980.26 549.614ZM986.537 557.678L986.537 548.48L988.301 548.48L988.301 549.794C988.787 548.786 989.795 548.264 991.127 548.264C993.161 548.264 994.439 549.578 994.439 551.828L994.439 557.678L992.657 557.678L992.657 552.044C992.657 550.37 991.991 549.65 990.569 549.65C989.057 549.65 988.319 550.442 988.319 552.314L988.319 557.678L986.537 557.678ZM1000.37 557.894C997.848 557.894 996.372 556.112 996.372 553.052C996.372 550.01 997.866 548.264 1000.37 548.264C1001.74 548.264 1002.78 548.84 1003.36 549.992L1003.36 545.078L1005.12 545.078L1005.12 557.678L1003.37 557.678L1003.37 556.13C1002.82 557.282 1001.79 557.894 1000.37 557.894ZM1000.75 556.526C1002.42 556.526 1003.36 555.41 1003.36 553.106C1003.36 550.766 1002.4 549.632 1000.75 549.632C999.144 549.632 998.19 550.694 998.19 553.106C998.19 555.536 999.144 556.526 1000.75 556.526ZM1012.91 547.31C1012.91 545.762 1013.61 545.078 1015.36 545.078L1016.64 545.078L1016.64 546.41L1015.65 546.41C1014.91 546.41 1014.67 546.608 1014.67 547.472L1014.67 548.48L1016.64 548.48L1016.64 549.74L1014.67 549.74L1014.67 557.678L1012.91 557.678L1012.91 549.74L1011.52 549.74L1011.52 548.48L1012.91 548.48L1012.91 547.31ZM1018.11 557.678L1018.11 548.48L1019.85 548.48L1019.85 549.956C1020.23 548.894 1020.97 548.408 1022.26 548.408L1023.13 548.408L1023.13 549.956L1022.01 549.956C1020.46 549.956 1019.89 550.568 1019.89 552.638L1019.89 557.678L1018.11 557.678ZM1028.34 557.894C1025.52 557.894 1023.88 556.112 1023.88 553.088C1023.88 550.028 1025.52 548.264 1028.34 548.264C1031.17 548.264 1032.79 550.01 1032.81 553.088C1032.81 556.112 1031.17 557.894 1028.34 557.894ZM1028.34 556.526C1030.13 556.526 1030.97 555.392 1030.97 553.088C1030.97 550.766 1030.11 549.632 1028.34 549.632C1026.56 549.632 1025.7 550.784 1025.7 553.088C1025.7 555.41 1026.56 556.526 1028.34 556.526ZM1034.83 557.678L1034.83 548.48L1036.6 548.48L1036.6 549.704C1037.01 548.768 1037.91 548.264 1039.1 548.264C1040.39 548.264 1041.26 548.894 1041.6 549.902C1042.09 548.804 1043 548.264 1044.37 548.264C1046.3 548.264 1047.47 549.434 1047.47 551.648L1047.47 557.678L1045.69 557.678L1045.69 551.666C1045.69 550.226 1045.11 549.65 1043.92 549.65C1042.72 549.65 1042.03 550.316 1042.03 551.972L1042.03 557.678L1040.27 557.678L1040.27 551.756C1040.27 550.244 1039.69 549.65 1038.54 549.65C1037.32 549.65 1036.61 550.334 1036.61 551.972L1036.61 557.678L1034.83 557.678ZM1058.48 561.422C1055.86 561.422 1054.67 560.594 1054.47 558.632L1056.18 558.632C1056.34 559.694 1057.01 560.054 1058.43 560.054C1060.23 560.054 1060.93 559.442 1060.93 557.876L1060.93 555.95C1060.34 556.994 1059.28 557.498 1057.96 557.498C1055.71 557.498 1054.11 555.896 1054.11 552.89C1054.11 549.848 1055.77 548.264 1058.03 548.264C1059.35 548.264 1060.37 548.75 1060.95 549.776L1060.95 548.48L1062.71 548.48L1062.71 557.894C1062.71 560.234 1061.36 561.422 1058.48 561.422ZM1058.45 556.148C1060.07 556.148 1060.93 555.122 1060.93 552.89C1060.93 550.622 1060.05 549.614 1058.45 549.614C1056.79 549.614 1055.91 550.622 1055.91 552.854C1055.91 555.104 1056.79 556.148 1058.45 556.148ZM1065.31 557.678L1065.31 548.48L1067.09 548.48L1067.09 557.678L1065.31 557.678ZM1065.29 546.914L1065.29 545.078L1067.11 545.078L1067.11 546.914L1065.29 546.914ZM1072.5 557.678C1070.7 557.678 1070.07 557.048 1070.07 555.464L1070.07 549.74L1068.72 549.74L1068.72 548.48L1070.07 548.48L1070.07 545.78L1071.85 545.78L1071.85 548.48L1073.81 548.48L1073.81 549.74L1071.85 549.74L1071.85 555.32C1071.85 556.094 1072.1 556.328 1072.93 556.328L1073.81 556.328L1073.81 557.678L1072.5 557.678ZM1075.81 557.678L1075.81 545.078L1077.59 545.078L1077.59 549.758C1078.1 548.75 1079.09 548.264 1080.4 548.264C1082.43 548.264 1083.71 549.578 1083.71 551.828L1083.71 557.678L1081.93 557.678L1081.93 552.044C1081.93 550.37 1081.26 549.65 1079.84 549.65C1078.33 549.65 1077.59 550.442 1077.59 552.314L1077.59 557.678L1075.81 557.678ZM1094 548.48L1094 557.678L1092.23 557.678L1092.23 556.364C1091.75 557.39 1090.76 557.894 1089.41 557.894C1087.37 557.894 1086.09 556.58 1086.09 554.33L1086.09 548.48L1087.88 548.48L1087.88 554.114C1087.88 555.788 1088.54 556.508 1089.96 556.508C1091.46 556.508 1092.21 555.716 1092.21 553.844L1092.21 548.48L1094 548.48ZM1101.35 557.894C1099.94 557.894 1098.94 557.318 1098.36 556.166L1098.36 557.678L1096.6 557.678L1096.6 545.078L1098.38 545.078L1098.38 549.992C1098.95 548.84 1100 548.264 1101.37 548.264C1103.87 548.264 1105.34 550.028 1105.34 553.052C1105.34 556.13 1103.87 557.894 1101.35 557.894ZM1100.97 556.526C1102.57 556.526 1103.53 555.518 1103.53 553.106C1103.53 550.676 1102.57 549.632 1100.97 549.632C1099.31 549.632 1098.38 550.784 1098.38 553.106C1098.38 555.428 1099.31 556.526 1100.97 556.526Z" fill="black"/>
<path d="M920.525 551.313H902.009L911.267 535.278L920.525 551.313Z" stroke="black" stroke-width="4.46011"/>
<path d="M936.683 356.997L936.683 344.397L941.363 344.397C945.503 344.397 947.303 345.963 947.303 350.697C947.303 355.431 945.503 356.997 941.363 356.997L936.683 356.997ZM941.363 355.485C944.333 355.485 945.431 354.477 945.431 350.697C945.431 346.899 944.333 345.891 941.363 345.891L938.501 345.891L938.501 355.485L941.363 355.485ZM953.353 357.213C950.491 357.213 948.871 355.377 948.871 352.407C948.871 349.437 950.491 347.583 953.317 347.583C956.251 347.583 957.601 349.563 957.601 352.083L957.601 352.695L950.671 352.695C950.743 354.891 951.715 355.845 953.353 355.845C954.631 355.845 955.369 355.413 955.729 354.369L957.457 354.369C956.989 356.277 955.531 357.213 953.353 357.213ZM953.317 348.933C951.877 348.933 950.941 349.689 950.725 351.471L955.801 351.471C955.693 349.797 954.883 348.933 953.317 348.933ZM964.346 347.583C966.866 347.583 968.342 349.365 968.342 352.425C968.342 355.467 966.866 357.213 964.364 357.213C962.978 357.213 961.952 356.655 961.376 355.485L961.376 360.399L959.594 360.399L959.594 347.799L961.358 347.799L961.358 349.311C961.934 348.159 962.942 347.583 964.346 347.583ZM963.968 348.951C962.312 348.951 961.376 350.067 961.376 352.371C961.376 354.711 962.312 355.845 963.968 355.845C965.57 355.845 966.524 354.783 966.524 352.371C966.524 349.941 965.57 348.951 963.968 348.951ZM970.373 356.997L970.373 344.397L972.155 344.397L972.155 356.997L970.373 356.997ZM978.643 357.213C975.817 357.213 974.179 355.431 974.179 352.407C974.179 349.347 975.817 347.583 978.643 347.583C981.469 347.583 983.089 349.329 983.107 352.407C983.107 355.431 981.469 357.213 978.643 357.213ZM978.643 355.845C980.425 355.845 981.271 354.711 981.271 352.407C981.271 350.085 980.407 348.951 978.643 348.951C976.861 348.951 975.997 350.103 975.997 352.407C975.997 354.729 976.861 355.845 978.643 355.845ZM984.721 360.399L984.721 359.013L985.657 359.013C986.287 359.013 986.737 358.779 987.043 357.987L987.403 357.015L983.893 347.799L985.729 347.799L988.267 354.963L990.931 347.799L992.713 347.799L988.429 358.635C987.889 360.003 987.079 360.399 985.819 360.399L984.721 360.399ZM997.847 357.213C994.985 357.213 993.365 355.377 993.365 352.407C993.365 349.437 994.985 347.583 997.811 347.583C1000.74 347.583 1002.09 349.563 1002.09 352.083L1002.09 352.695L995.165 352.695C995.237 354.891 996.209 355.845 997.847 355.845C999.125 355.845 999.863 355.413 1000.22 354.369L1001.95 354.369C1001.48 356.277 1000.02 357.213 997.847 357.213ZM997.811 348.933C996.371 348.933 995.435 349.689 995.219 351.471L1000.29 351.471C1000.19 349.797 999.377 348.933 997.811 348.933ZM1007.53 357.213C1005.01 357.213 1003.53 355.431 1003.53 352.371C1003.53 349.329 1005.02 347.583 1007.53 347.583C1008.89 347.583 1009.94 348.159 1010.51 349.311L1010.51 344.397L1012.28 344.397L1012.28 356.997L1010.53 356.997L1010.53 355.449C1009.97 356.601 1008.95 357.213 1007.53 357.213ZM1007.9 355.845C1009.58 355.845 1010.51 354.729 1010.51 352.425C1010.51 350.085 1009.56 348.951 1007.9 348.951C1006.3 348.951 1005.35 350.013 1005.35 352.425C1005.35 354.855 1006.3 355.845 1007.9 355.845ZM937.079 364.629C937.079 363.081 937.781 362.397 939.527 362.397L940.805 362.397L940.805 363.729L939.815 363.729C939.077 363.729 938.843 363.927 938.843 364.791L938.843 365.799L940.805 365.799L940.805 367.059L938.843 367.059L938.843 374.997L937.079 374.997L937.079 367.059L935.693 367.059L935.693 365.799L937.079 365.799L937.079 364.629ZM942.275 374.997L942.275 365.799L944.021 365.799L944.021 367.275C944.399 366.213 945.137 365.727 946.433 365.727L947.297 365.727L947.297 367.275L946.181 367.275C944.633 367.275 944.057 367.887 944.057 369.957L944.057 374.997L942.275 374.997ZM952.513 375.213C949.687 375.213 948.049 373.431 948.049 370.407C948.049 367.347 949.687 365.583 952.513 365.583C955.339 365.583 956.959 367.329 956.977 370.407C956.977 373.431 955.339 375.213 952.513 375.213ZM952.513 373.845C954.295 373.845 955.141 372.711 955.141 370.407C955.141 368.085 954.277 366.951 952.513 366.951C950.731 366.951 949.867 368.103 949.867 370.407C949.867 372.729 950.731 373.845 952.513 373.845ZM959 374.997L959 365.799L960.764 365.799L960.764 367.113C961.25 366.105 962.258 365.583 963.59 365.583C965.624 365.583 966.902 366.897 966.902 369.147L966.902 374.997L965.12 374.997L965.12 369.363C965.12 367.689 964.454 366.969 963.032 366.969C961.52 366.969 960.782 367.761 960.782 369.633L960.782 374.997L959 374.997ZM972.131 374.997C970.331 374.997 969.701 374.367 969.701 372.783L969.701 367.059L968.351 367.059L968.351 365.799L969.701 365.799L969.701 363.099L971.483 363.099L971.483 365.799L973.445 365.799L973.445 367.059L971.483 367.059L971.483 372.639C971.483 373.413 971.735 373.647 972.563 373.647L973.445 373.647L973.445 374.997L972.131 374.997ZM979.192 375.213C976.33 375.213 974.71 373.377 974.71 370.407C974.71 367.437 976.33 365.583 979.156 365.583C982.09 365.583 983.44 367.563 983.44 370.083L983.44 370.695L976.51 370.695C976.582 372.891 977.554 373.845 979.192 373.845C980.47 373.845 981.208 373.413 981.568 372.369L983.296 372.369C982.828 374.277 981.37 375.213 979.192 375.213ZM979.156 366.933C977.716 366.933 976.78 367.689 976.564 369.471L981.64 369.471C981.532 367.797 980.722 366.933 979.156 366.933ZM985.433 374.997L985.433 365.799L987.197 365.799L987.197 367.113C987.683 366.105 988.691 365.583 990.023 365.583C992.057 365.583 993.335 366.897 993.335 369.147L993.335 374.997L991.553 374.997L991.553 369.363C991.553 367.689 990.887 366.969 989.465 366.969C987.953 366.969 987.215 367.761 987.215 369.633L987.215 374.997L985.433 374.997ZM999.264 375.213C996.744 375.213 995.268 373.431 995.268 370.371C995.268 367.329 996.762 365.583 999.264 365.583C1000.63 365.583 1001.68 366.159 1002.25 367.311L1002.25 362.397L1004.02 362.397L1004.02 374.997L1002.27 374.997L1002.27 373.449C1001.71 374.601 1000.69 375.213 999.264 375.213ZM999.642 373.845C1001.32 373.845 1002.25 372.729 1002.25 370.425C1002.25 368.085 1001.3 366.951 999.642 366.951C998.04 366.951 997.086 368.013 997.086 370.425C997.086 372.855 998.04 373.845 999.642 373.845Z" fill="black"/>
<path d="M920.524 368.633H902.009L911.267 352.598L920.524 368.633Z" stroke="black" stroke-width="4.46011"/>
<path d="M936.683 716.997L936.683 704.397L941.363 704.397C945.503 704.397 947.303 705.963 947.303 710.697C947.303 715.431 945.503 716.997 941.363 716.997L936.683 716.997ZM941.363 715.485C944.333 715.485 945.431 714.477 945.431 710.697C945.431 706.899 944.333 705.891 941.363 705.891L938.501 705.891L938.501 715.485L941.363 715.485ZM953.353 717.213C950.491 717.213 948.871 715.377 948.871 712.407C948.871 709.437 950.491 707.583 953.317 707.583C956.251 707.583 957.601 709.563 957.601 712.083L957.601 712.695L950.671 712.695C950.743 714.891 951.715 715.845 953.353 715.845C954.631 715.845 955.369 715.413 955.729 714.369L957.457 714.369C956.989 716.277 955.531 717.213 953.353 717.213ZM953.317 708.933C951.877 708.933 950.941 709.689 950.725 711.471L955.801 711.471C955.693 709.797 954.883 708.933 953.317 708.933ZM964.346 707.583C966.866 707.583 968.342 709.365 968.342 712.425C968.342 715.467 966.866 717.213 964.364 717.213C962.978 717.213 961.952 716.655 961.376 715.485L961.376 720.399L959.594 720.399L959.594 707.799L961.358 707.799L961.358 709.311C961.934 708.159 962.942 707.583 964.346 707.583ZM963.968 708.951C962.312 708.951 961.376 710.067 961.376 712.371C961.376 714.711 962.312 715.845 963.968 715.845C965.57 715.845 966.524 714.783 966.524 712.371C966.524 709.941 965.57 708.951 963.968 708.951ZM970.373 716.997L970.373 704.397L972.155 704.397L972.155 716.997L970.373 716.997ZM978.643 717.213C975.817 717.213 974.179 715.431 974.179 712.407C974.179 709.347 975.817 707.583 978.643 707.583C981.469 707.583 983.089 709.329 983.107 712.407C983.107 715.431 981.469 717.213 978.643 717.213ZM978.643 715.845C980.425 715.845 981.271 714.711 981.271 712.407C981.271 710.085 980.407 708.951 978.643 708.951C976.861 708.951 975.997 710.103 975.997 712.407C975.997 714.729 976.861 715.845 978.643 715.845ZM984.721 720.399L984.721 719.013L985.657 719.013C986.287 719.013 986.737 718.779 987.043 717.987L987.403 717.015L983.893 707.799L985.729 707.799L988.267 714.963L990.931 707.799L992.713 707.799L988.429 718.635C987.889 720.003 987.079 720.399 985.819 720.399L984.721 720.399ZM997.847 717.213C994.985 717.213 993.365 715.377 993.365 712.407C993.365 709.437 994.985 707.583 997.811 707.583C1000.74 707.583 1002.09 709.563 1002.09 712.083L1002.09 712.695L995.165 712.695C995.237 714.891 996.209 715.845 997.847 715.845C999.125 715.845 999.863 715.413 1000.22 714.369L1001.95 714.369C1001.48 716.277 1000.02 717.213 997.847 717.213ZM997.811 708.933C996.371 708.933 995.435 709.689 995.219 711.471L1000.29 711.471C1000.19 709.797 999.377 708.933 997.811 708.933ZM1007.53 717.213C1005.01 717.213 1003.53 715.431 1003.53 712.371C1003.53 709.329 1005.02 707.583 1007.53 707.583C1008.89 707.583 1009.94 708.159 1010.51 709.311L1010.51 704.397L1012.28 704.397L1012.28 716.997L1010.53 716.997L1010.53 715.449C1009.97 716.601 1008.95 717.213 1007.53 717.213ZM1007.9 715.845C1009.58 715.845 1010.51 714.729 1010.51 712.425C1010.51 710.085 1009.56 708.951 1007.9 708.951C1006.3 708.951 1005.35 710.013 1005.35 712.425C1005.35 714.855 1006.3 715.845 1007.9 715.845ZM941.345 725.583C943.865 725.583 945.341 727.365 945.341 730.425C945.341 733.467 943.865 735.213 941.363 735.213C939.977 735.213 938.951 734.655 938.375 733.485L938.375 738.399L936.593 738.399L936.593 725.799L938.357 725.799L938.357 727.311C938.933 726.159 939.941 725.583 941.345 725.583ZM940.967 726.951C939.311 726.951 938.375 728.067 938.375 730.371C938.375 732.711 939.311 733.845 940.967 733.845C942.569 733.845 943.523 732.783 943.523 730.371C943.523 727.941 942.569 726.951 940.967 726.951ZM951.261 735.213C948.435 735.213 946.797 733.431 946.797 730.407C946.797 727.347 948.435 725.583 951.261 725.583C954.087 725.583 955.707 727.329 955.725 730.407C955.725 733.431 954.087 735.213 951.261 735.213ZM951.261 733.845C953.043 733.845 953.889 732.711 953.889 730.407C953.889 728.085 953.025 726.951 951.261 726.951C949.479 726.951 948.615 728.103 948.615 730.407C948.615 732.729 949.479 733.845 951.261 733.845ZM961.114 735.213C958.612 735.213 957.19 734.241 956.992 732.297L958.666 732.297C958.828 733.395 959.674 733.917 961.132 733.917C962.59 733.917 963.202 733.395 963.202 732.513C963.202 731.739 962.788 731.415 961.528 731.145L960.052 730.839C958.108 730.443 957.37 729.579 957.37 728.247C957.37 726.501 958.81 725.583 960.88 725.583C962.914 725.583 964.354 726.483 964.588 728.319L962.968 728.319C962.77 727.401 962.122 726.879 960.88 726.879C959.692 726.879 959.026 727.329 959.026 728.067C959.026 728.679 959.296 729.039 960.52 729.291L962.284 729.651C964.174 730.029 964.948 730.875 964.948 732.351C964.948 734.151 963.598 735.213 961.114 735.213ZM969.631 734.997C967.831 734.997 967.201 734.367 967.201 732.783L967.201 727.059L965.851 727.059L965.851 725.799L967.201 725.799L967.201 723.099L968.983 723.099L968.983 725.799L970.945 725.799L970.945 727.059L968.983 727.059L968.983 732.639C968.983 733.413 969.235 733.647 970.063 733.647L970.945 733.647L970.945 734.997L969.631 734.997ZM976.584 738.741C973.956 738.741 972.768 737.913 972.57 735.951L974.28 735.951C974.442 737.013 975.108 737.373 976.53 737.373C978.33 737.373 979.032 736.761 979.032 735.195L979.032 733.269C978.438 734.313 977.376 734.817 976.062 734.817C973.812 734.817 972.21 733.215 972.21 730.209C972.21 727.167 973.866 725.583 976.134 725.583C977.448 725.583 978.474 726.069 979.05 727.095L979.05 725.799L980.814 725.799L980.814 735.213C980.814 737.553 979.464 738.741 976.584 738.741ZM976.548 733.467C978.168 733.467 979.032 732.441 979.032 730.209C979.032 727.941 978.15 726.933 976.548 726.933C974.892 726.933 974.01 727.941 974.01 730.173C974.01 732.423 974.892 733.467 976.548 733.467ZM983.407 734.997L983.407 725.799L985.153 725.799L985.153 727.275C985.531 726.213 986.269 725.727 987.565 725.727L988.429 725.727L988.429 727.275L987.313 727.275C985.765 727.275 985.189 727.887 985.189 729.957L985.189 734.997L983.407 734.997ZM993.663 735.213C990.801 735.213 989.181 733.377 989.181 730.407C989.181 727.437 990.801 725.583 993.627 725.583C996.561 725.583 997.911 727.563 997.911 730.083L997.911 730.695L990.981 730.695C991.053 732.891 992.025 733.845 993.663 733.845C994.941 733.845 995.679 733.413 996.039 732.369L997.767 732.369C997.299 734.277 995.841 735.213 993.663 735.213ZM993.627 726.933C992.187 726.933 991.251 727.689 991.035 729.471L996.111 729.471C996.003 727.797 995.193 726.933 993.627 726.933ZM1003.27 735.213C1000.77 735.213 999.346 734.241 999.148 732.297L1000.82 732.297C1000.98 733.395 1001.83 733.917 1003.29 733.917C1004.75 733.917 1005.36 733.395 1005.36 732.513C1005.36 731.739 1004.94 731.415 1003.68 731.145L1002.21 730.839C1000.26 730.443 999.526 729.579 999.526 728.247C999.526 726.501 1000.97 725.583 1003.04 725.583C1005.07 725.583 1006.51 726.483 1006.74 728.319L1005.12 728.319C1004.93 727.401 1004.28 726.879 1003.04 726.879C1001.85 726.879 1001.18 727.329 1001.18 728.067C1001.18 728.679 1001.45 729.039 1002.68 729.291L1004.44 729.651C1006.33 730.029 1007.1 730.875 1007.1 732.351C1007.1 734.151 1005.75 735.213 1003.27 735.213ZM1017.17 735.213C1014.65 735.213 1013.17 733.431 1013.17 730.371C1013.17 727.329 1014.66 725.583 1017.17 725.583C1018.53 725.583 1019.58 726.159 1020.15 727.311L1020.15 722.397L1021.92 722.397L1021.92 734.997L1020.17 734.997L1020.17 733.449C1019.61 734.601 1018.59 735.213 1017.17 735.213ZM1017.54 733.845C1019.22 733.845 1020.15 732.729 1020.15 730.425C1020.15 728.085 1019.2 726.951 1017.54 726.951C1015.94 726.951 1014.99 728.013 1014.99 730.425C1014.99 732.855 1015.94 733.845 1017.54 733.845ZM1028.4 735.213C1025.57 735.213 1023.93 733.431 1023.93 730.407C1023.93 727.347 1025.57 725.583 1028.4 725.583C1031.22 725.583 1032.84 727.329 1032.86 730.407C1032.86 733.431 1031.22 735.213 1028.4 735.213ZM1028.4 733.845C1030.18 733.845 1031.02 732.711 1031.02 730.407C1031.02 728.085 1030.16 726.951 1028.4 726.951C1026.61 726.951 1025.75 728.103 1025.75 730.407C1025.75 732.729 1026.61 733.845 1028.4 733.845ZM1038.75 735.213C1035.98 735.213 1034.33 733.449 1034.33 730.407C1034.33 727.311 1036 725.583 1038.75 725.583C1041.15 725.583 1042.57 726.609 1042.95 728.823L1041.17 728.823C1040.88 727.473 1040.14 726.951 1038.77 726.951C1037.06 726.951 1036.14 728.049 1036.14 730.407C1036.14 732.765 1037.08 733.845 1038.77 733.845C1040.19 733.845 1040.9 733.269 1041.18 731.901L1042.95 731.901C1042.59 734.043 1041.22 735.213 1038.75 735.213ZM1050.85 734.997L1046.65 730.137L1046.65 734.997L1044.87 734.997L1044.87 722.397L1046.65 722.397L1046.65 730.029L1050.65 725.799L1052.74 725.799L1048.63 730.029L1053.12 734.997L1050.85 734.997ZM1057.8 735.213C1054.94 735.213 1053.32 733.377 1053.32 730.407C1053.32 727.437 1054.94 725.583 1057.76 725.583C1060.7 725.583 1062.05 727.563 1062.05 730.083L1062.05 730.695L1055.12 730.695C1055.19 732.891 1056.16 733.845 1057.8 733.845C1059.08 733.845 1059.82 733.413 1060.18 732.369L1061.9 732.369C1061.44 734.277 1059.98 735.213 1057.8 735.213ZM1057.76 726.933C1056.32 726.933 1055.39 727.689 1055.17 729.471L1060.25 729.471C1060.14 727.797 1059.33 726.933 1057.76 726.933ZM1064.04 734.997L1064.04 725.799L1065.79 725.799L1065.79 727.275C1066.16 726.213 1066.9 725.727 1068.2 725.727L1069.06 725.727L1069.06 727.275L1067.95 727.275C1066.4 727.275 1065.82 727.887 1065.82 729.957L1065.82 734.997L1064.04 734.997ZM1075 734.997L1075 725.799L1076.78 725.799L1076.78 734.997L1075 734.997ZM1074.98 724.233L1074.98 722.397L1076.8 722.397L1076.8 724.233L1074.98 724.233ZM1079.38 734.997L1079.38 725.799L1081.15 725.799L1081.15 727.023C1081.56 726.087 1082.46 725.583 1083.65 725.583C1084.94 725.583 1085.81 726.213 1086.15 727.221C1086.64 726.123 1087.55 725.583 1088.92 725.583C1090.85 725.583 1092.02 726.753 1092.02 728.967L1092.02 734.997L1090.24 734.997L1090.24 728.985C1090.24 727.545 1089.66 726.969 1088.47 726.969C1087.27 726.969 1086.58 727.635 1086.58 729.291L1086.58 734.997L1084.82 734.997L1084.82 729.075C1084.82 727.563 1084.24 726.969 1083.09 726.969C1081.87 726.969 1081.16 727.653 1081.16 729.291L1081.16 734.997L1079.38 734.997ZM1097.11 735.213C1095.1 735.213 1093.89 734.187 1093.89 732.423C1093.89 730.749 1094.77 729.903 1096.66 729.615L1098.41 729.327C1099.72 729.111 1100.05 728.841 1100.05 728.193C1100.05 727.383 1099.54 726.897 1098.14 726.897C1096.66 726.897 1096.07 727.365 1095.96 728.373L1094.29 728.373C1094.47 726.465 1095.85 725.583 1098.18 725.583C1100.68 725.583 1101.79 726.537 1101.79 728.517L1101.79 733.143C1101.79 733.557 1101.96 733.719 1102.35 733.719L1102.71 733.719L1102.71 735.033C1102.42 735.069 1102.17 735.087 1101.83 735.087C1100.88 735.087 1100.3 734.727 1100.17 733.755C1099.6 734.763 1098.5 735.213 1097.11 735.213ZM1097.55 733.899C1098.86 733.899 1100.07 733.251 1100.07 731.721L1100.07 729.975C1099.76 730.155 1099.33 730.299 1098.54 730.461L1097.22 730.731C1096.02 730.983 1095.66 731.487 1095.66 732.315C1095.66 733.305 1096.32 733.899 1097.55 733.899ZM1108.33 738.741C1105.7 738.741 1104.51 737.913 1104.31 735.951L1106.02 735.951C1106.18 737.013 1106.85 737.373 1108.27 737.373C1110.07 737.373 1110.77 736.761 1110.77 735.195L1110.77 733.269C1110.18 734.313 1109.12 734.817 1107.8 734.817C1105.55 734.817 1103.95 733.215 1103.95 730.209C1103.95 727.167 1105.61 725.583 1107.88 725.583C1109.19 725.583 1110.22 726.069 1110.79 727.095L1110.79 725.799L1112.56 725.799L1112.56 735.213C1112.56 737.553 1111.21 738.741 1108.33 738.741ZM1108.29 733.467C1109.91 733.467 1110.77 732.441 1110.77 730.209C1110.77 727.941 1109.89 726.933 1108.29 726.933C1106.63 726.933 1105.75 727.941 1105.75 730.173C1105.75 732.423 1106.63 733.467 1108.29 733.467ZM1119.05 735.213C1116.19 735.213 1114.57 733.377 1114.57 730.407C1114.57 727.437 1116.19 725.583 1119.02 725.583C1121.95 725.583 1123.3 727.563 1123.3 730.083L1123.3 730.695L1116.37 730.695C1116.44 732.891 1117.42 733.845 1119.05 733.845C1120.33 733.845 1121.07 733.413 1121.43 732.369L1123.16 732.369C1122.69 734.277 1121.23 735.213 1119.05 735.213ZM1119.02 726.933C1117.58 726.933 1116.64 727.689 1116.43 729.471L1121.5 729.471C1121.39 727.797 1120.58 726.933 1119.02 726.933Z" fill="black"/>
<path d="M920.524 728.633H902.009L911.267 712.598L920.524 728.633Z" stroke="black" stroke-width="4.46011"/>
<path d="M911.662 381L911.662 519.279" stroke="black"/>
<path d="M911.662 562.772L911.662 701.051" stroke="black"/>
</g>
<defs>
<linearGradient id="paint0_linear_150_128" x1="4.37142e-08" y1="360" x2="2183" y2="360" gradientUnits="userSpaceOnUse">
<stop offset="0.608387" stop-color="#1923A8"/>
<stop offset="0.976558" stop-color="#7F85D0"/>
</linearGradient>
<linearGradient id="paint1_linear_150_128" x1="4.37114e-08" y1="540.5" x2="2183" y2="540.5" gradientUnits="userSpaceOnUse">
<stop offset="0.608387" stop-color="#1923A8"/>
<stop offset="0.976558" stop-color="#7F85D0"/>
</linearGradient>
<linearGradient id="paint2_linear_150_128" x1="4.37112e-08" y1="720.5" x2="2183" y2="720.5" gradientUnits="userSpaceOnUse">
<stop offset="0.608387" stop-color="#1923A8"/>
<stop offset="0.976558" stop-color="#7F85D0"/>
</linearGradient>
<clipPath id="clip0_150_128">
<rect width="1920" height="1080" fill="white"/>
</clipPath>
</defs>
</svg>
