<svg width="1920" height="1080" viewBox="0 0 1920 1080" fill="none" xmlns="http://www.w3.org/2000/svg">
<g clip-path="url(#clip0_150_312)">
<rect width="1920" height="1080" fill="#F1EFE8"/>
<path opacity="0.89" d="M0 359.501C0 359.501 15.0128 359.5 416.171 359.5C817.33 359.5 1081.79 539.5 1422.05 539.5L1999.7 539.5" stroke="url(#paint0_linear_150_312)" stroke-width="180"/>
<path opacity="0.79" d="M-675.329 540L1957.62 540" stroke="url(#paint1_linear_150_312)" stroke-width="180"/>
<path opacity="0.69" d="M1.57365e-05 720.005C1.57365e-05 720.005 120.693 720.005 512.551 720.005C904.41 720.005 1085.84 540 1360.13 540L2157.48 540" stroke="url(#paint2_linear_150_312)" stroke-width="180"/>
<path d="M60 -126.262L60.0001 1206.26" stroke="#F1EFE8"/>
<path d="M360 -126.262L360 1206.26" stroke="#F1EFE8"/>
<path d="M660 -126.262L660 1206.26" stroke="#F1EFE8"/>
<path d="M960 -126.262L960 1206.26" stroke="#F1EFE8"/>
<path d="M1260 -126.262L1260 1206.26" stroke="#F1EFE8"/>
<path d="M1560 -126.262L1560 1206.26" stroke="#F1EFE8"/>
<path d="M1860 -126.262L1860 1206.26" stroke="#F1EFE8"/>
<path d="M937.462 546.677V534.077H942.142C946.282 534.077 948.082 535.643 948.082 540.377C948.082 545.111 946.282 546.677 942.142 546.677H937.462ZM942.142 545.165C945.112 545.165 946.21 544.157 946.21 540.377C946.21 536.579 945.112 535.571 942.142 535.571H939.28V545.165H942.142ZM954.132 546.893C951.27 546.893 949.65 545.057 949.65 542.087C949.65 539.117 951.27 537.263 954.096 537.263C957.03 537.263 958.38 539.243 958.38 541.763V542.375H951.45C951.522 544.571 952.494 545.525 954.132 545.525C955.41 545.525 956.148 545.093 956.508 544.049H958.236C957.768 545.957 956.31 546.893 954.132 546.893ZM954.096 538.613C952.656 538.613 951.72 539.369 951.504 541.151H956.58C956.472 539.477 955.662 538.613 954.096 538.613ZM965.125 537.263C967.645 537.263 969.121 539.045 969.121 542.105C969.121 545.147 967.645 546.893 965.143 546.893C963.757 546.893 962.731 546.335 962.155 545.165V550.079H960.373V537.479H962.137V538.991C962.713 537.839 963.721 537.263 965.125 537.263ZM964.747 538.631C963.091 538.631 962.155 539.747 962.155 542.051C962.155 544.391 963.091 545.525 964.747 545.525C966.349 545.525 967.303 544.463 967.303 542.051C967.303 539.621 966.349 538.631 964.747 538.631ZM971.152 546.677V534.077H972.934V546.677H971.152ZM979.421 546.893C976.595 546.893 974.957 545.111 974.957 542.087C974.957 539.027 976.595 537.263 979.421 537.263C982.247 537.263 983.867 539.009 983.885 542.087C983.885 545.111 982.247 546.893 979.421 546.893ZM979.421 545.525C981.203 545.525 982.049 544.391 982.049 542.087C982.049 539.765 981.185 538.631 979.421 538.631C977.639 538.631 976.775 539.783 976.775 542.087C976.775 544.409 977.639 545.525 979.421 545.525ZM985.499 550.079V548.693H986.435C987.065 548.693 987.515 548.459 987.821 547.667L988.181 546.695L984.671 537.479H986.507L989.045 544.643L991.709 537.479H993.491L989.207 548.315C988.667 549.683 987.857 550.079 986.597 550.079H985.499ZM998.626 546.893C995.764 546.893 994.144 545.057 994.144 542.087C994.144 539.117 995.764 537.263 998.59 537.263C1001.52 537.263 1002.87 539.243 1002.87 541.763V542.375H995.944C996.016 544.571 996.988 545.525 998.626 545.525C999.904 545.525 1000.64 545.093 1001 544.049H1002.73C1002.26 545.957 1000.8 546.893 998.626 546.893ZM998.59 538.613C997.15 538.613 996.214 539.369 995.998 541.151H1001.07C1000.97 539.477 1000.16 538.613 998.59 538.613ZM1008.3 546.893C1005.78 546.893 1004.31 545.111 1004.31 542.051C1004.31 539.009 1005.8 537.263 1008.3 537.263C1009.67 537.263 1010.72 537.839 1011.29 538.991V534.077H1013.06V546.677H1011.31V545.129C1010.75 546.281 1009.73 546.893 1008.3 546.893ZM1008.68 545.525C1010.36 545.525 1011.29 544.409 1011.29 542.105C1011.29 539.765 1010.34 538.631 1008.68 538.631C1007.08 538.631 1006.13 539.693 1006.13 542.105C1006.13 544.535 1007.08 545.525 1008.68 545.525Z" fill="black"/>
<path d="M921.304 549.133H902.788L912.046 533.098L921.304 549.133Z" stroke="black" stroke-width="4.46011"/>
<circle cx="911.93" cy="962" r="3.55225" fill="black"/>
<path d="M927.174 957.632C927.174 956.084 927.876 955.4 929.622 955.4H930.9V956.732H929.91C929.172 956.732 928.938 956.93 928.938 957.794V958.802H930.9V960.062H928.938V968H927.174V960.062H925.788V958.802H927.174V957.632ZM932.37 968V958.802H934.116V960.278C934.494 959.216 935.232 958.73 936.528 958.73H937.392V960.278H936.276C934.728 960.278 934.152 960.89 934.152 962.96V968H932.37ZM942.608 968.216C939.782 968.216 938.144 966.434 938.144 963.41C938.144 960.35 939.782 958.586 942.608 958.586C945.434 958.586 947.054 960.332 947.072 963.41C947.072 966.434 945.434 968.216 942.608 968.216ZM942.608 966.848C944.39 966.848 945.236 965.714 945.236 963.41C945.236 961.088 944.372 959.954 942.608 959.954C940.826 959.954 939.962 961.106 939.962 963.41C939.962 965.732 940.826 966.848 942.608 966.848ZM949.096 968V958.802H950.86V960.116C951.346 959.108 952.354 958.586 953.686 958.586C955.72 958.586 956.998 959.9 956.998 962.15V968H955.216V962.366C955.216 960.692 954.55 959.972 953.128 959.972C951.616 959.972 950.878 960.764 950.878 962.636V968H949.096ZM962.226 968C960.426 968 959.796 967.37 959.796 965.786V960.062H958.446V958.802H959.796V956.102H961.578V958.802H963.54V960.062H961.578V965.642C961.578 966.416 961.83 966.65 962.658 966.65H963.54V968H962.226ZM969.287 968.216C966.425 968.216 964.805 966.38 964.805 963.41C964.805 960.44 966.425 958.586 969.251 958.586C972.185 958.586 973.535 960.566 973.535 963.086V963.698H966.605C966.677 965.894 967.649 966.848 969.287 966.848C970.565 966.848 971.303 966.416 971.663 965.372H973.391C972.923 967.28 971.465 968.216 969.287 968.216ZM969.251 959.936C967.811 959.936 966.875 960.692 966.659 962.474H971.735C971.627 960.8 970.817 959.936 969.251 959.936ZM975.528 968V958.802H977.292V960.116C977.778 959.108 978.786 958.586 980.118 958.586C982.152 958.586 983.43 959.9 983.43 962.15V968H981.648V962.366C981.648 960.692 980.982 959.972 979.56 959.972C978.048 959.972 977.31 960.764 977.31 962.636V968H975.528ZM989.359 968.216C986.839 968.216 985.363 966.434 985.363 963.374C985.363 960.332 986.857 958.586 989.359 958.586C990.727 958.586 991.771 959.162 992.347 960.314V955.4H994.111V968H992.365V966.452C991.807 967.604 990.781 968.216 989.359 968.216ZM989.737 966.848C991.411 966.848 992.347 965.732 992.347 963.428C992.347 961.088 991.393 959.954 989.737 959.954C988.135 959.954 987.181 961.016 987.181 963.428C987.181 965.858 988.135 966.848 989.737 966.848Z" fill="black"/>
<circle cx="911.93" cy="1000" r="3.55225" fill="black"/>
<path d="M930.504 1009.74C927.876 1009.74 926.688 1008.92 926.49 1006.95H928.2C928.362 1008.02 929.028 1008.38 930.45 1008.38C932.25 1008.38 932.952 1007.76 932.952 1006.2V1004.27C932.358 1005.32 931.296 1005.82 929.982 1005.82C927.732 1005.82 926.13 1004.22 926.13 1001.21C926.13 998.17 927.786 996.586 930.054 996.586C931.368 996.586 932.394 997.072 932.97 998.098V996.802H934.734V1006.22C934.734 1008.56 933.384 1009.74 930.504 1009.74ZM930.468 1004.47C932.088 1004.47 932.952 1003.44 932.952 1001.21C932.952 998.944 932.07 997.936 930.468 997.936C928.812 997.936 927.93 998.944 927.93 1001.18C927.93 1003.43 928.812 1004.47 930.468 1004.47ZM937.327 1006V996.802H939.109V1006H937.327ZM937.309 995.236V993.4H939.127V995.236H937.309ZM944.517 1006C942.717 1006 942.087 1005.37 942.087 1003.79V998.062H940.737V996.802H942.087V994.102H943.869V996.802H945.831V998.062H943.869V1003.64C943.869 1004.42 944.121 1004.65 944.949 1004.65H945.831V1006H944.517ZM947.83 1006V993.4H949.612V998.08C950.116 997.072 951.106 996.586 952.42 996.586C954.454 996.586 955.732 997.9 955.732 1000.15V1006H953.95V1000.37C953.95 998.692 953.284 997.972 951.862 997.972C950.35 997.972 949.612 998.764 949.612 1000.64V1006H947.83ZM966.017 996.802V1006H964.253V1004.69C963.767 1005.71 962.777 1006.22 961.427 1006.22C959.393 1006.22 958.115 1004.9 958.115 1002.65V996.802H959.897V1002.44C959.897 1004.11 960.563 1004.83 961.985 1004.83C963.479 1004.83 964.235 1004.04 964.235 1002.17V996.802H966.017ZM973.368 1006.22C971.964 1006.22 970.956 1005.64 970.38 1004.49V1006H968.616V993.4H970.398V998.314C970.974 997.162 972.018 996.586 973.386 996.586C975.888 996.586 977.364 998.35 977.364 1001.37C977.364 1004.45 975.888 1006.22 973.368 1006.22ZM972.99 1004.85C974.592 1004.85 975.546 1003.84 975.546 1001.43C975.546 998.998 974.592 997.954 972.99 997.954C971.334 997.954 970.398 999.106 970.398 1001.43C970.398 1003.75 971.334 1004.85 972.99 1004.85ZM988.863 1006.22C987.459 1006.22 986.451 1005.64 985.875 1004.49V1006H984.111V993.4H985.893V998.314C986.469 997.162 987.513 996.586 988.881 996.586C991.383 996.586 992.859 998.35 992.859 1001.37C992.859 1004.45 991.383 1006.22 988.863 1006.22ZM988.485 1004.85C990.087 1004.85 991.041 1003.84 991.041 1001.43C991.041 998.998 990.087 997.954 988.485 997.954C986.829 997.954 985.893 999.106 985.893 1001.43C985.893 1003.75 986.829 1004.85 988.485 1004.85ZM997.5 1006.22C995.484 1006.22 994.278 1005.19 994.278 1003.43C994.278 1001.75 995.16 1000.91 997.05 1000.62L998.796 1000.33C1000.11 1000.11 1000.43 999.844 1000.43 999.196C1000.43 998.386 999.93 997.9 998.526 997.9C997.05 997.9 996.456 998.368 996.348 999.376H994.674C994.854 997.468 996.24 996.586 998.562 996.586C1001.06 996.586 1002.18 997.54 1002.18 999.52V1004.15C1002.18 1004.56 1002.34 1004.72 1002.74 1004.72H1003.1V1006.04C1002.81 1006.07 1002.56 1006.09 1002.22 1006.09C1001.26 1006.09 1000.69 1005.73 1000.56 1004.76C999.984 1005.77 998.886 1006.22 997.5 1006.22ZM997.932 1004.9C999.246 1004.9 1000.45 1004.25 1000.45 1002.72V1000.98C1000.15 1001.16 999.714 1001.3 998.922 1001.46L997.608 1001.73C996.402 1001.99 996.042 1002.49 996.042 1003.32C996.042 1004.31 996.708 1004.9 997.932 1004.9ZM1008.77 1006.22C1005.99 1006.22 1004.34 1004.45 1004.34 1001.41C1004.34 998.314 1006.01 996.586 1008.77 996.586C1011.16 996.586 1012.58 997.612 1012.96 999.826H1011.18C1010.89 998.476 1010.15 997.954 1008.78 997.954C1007.07 997.954 1006.16 999.052 1006.16 1001.41C1006.16 1003.77 1007.09 1004.85 1008.78 1004.85C1010.21 1004.85 1010.91 1004.27 1011.2 1002.9H1012.96C1012.6 1005.05 1011.23 1006.22 1008.77 1006.22ZM1020.86 1006L1016.67 1001.14V1006H1014.88V993.4H1016.67V1001.03L1020.66 996.802H1022.75L1018.65 1001.03L1023.13 1006H1020.86ZM1027.81 1006.22C1024.95 1006.22 1023.33 1004.38 1023.33 1001.41C1023.33 998.44 1024.95 996.586 1027.78 996.586C1030.71 996.586 1032.06 998.566 1032.06 1001.09V1001.7H1025.13C1025.2 1003.89 1026.17 1004.85 1027.81 1004.85C1029.09 1004.85 1029.83 1004.42 1030.19 1003.37H1031.92C1031.45 1005.28 1029.99 1006.22 1027.81 1006.22ZM1027.78 997.936C1026.34 997.936 1025.4 998.692 1025.18 1000.47H1030.26C1030.15 998.8 1029.34 997.936 1027.78 997.936ZM1034.05 1006V996.802H1035.82V998.116C1036.3 997.108 1037.31 996.586 1038.64 996.586C1040.68 996.586 1041.96 997.9 1041.96 1000.15V1006H1040.17V1000.37C1040.17 998.692 1039.51 997.972 1038.09 997.972C1036.57 997.972 1035.84 998.764 1035.84 1000.64V1006H1034.05ZM1047.88 1006.22C1045.36 1006.22 1043.89 1004.43 1043.89 1001.37C1043.89 998.332 1045.38 996.586 1047.88 996.586C1049.25 996.586 1050.3 997.162 1050.87 998.314V993.4H1052.64V1006H1050.89V1004.45C1050.33 1005.6 1049.31 1006.22 1047.88 1006.22ZM1048.26 1004.85C1049.94 1004.85 1050.87 1003.73 1050.87 1001.43C1050.87 999.088 1049.92 997.954 1048.26 997.954C1046.66 997.954 1045.71 999.016 1045.71 1001.43C1045.71 1003.86 1046.66 1004.85 1048.26 1004.85Z" fill="black"/>
<circle cx="911.93" cy="1038" r="3.55225" fill="black"/>
<path d="M931.44 1034.59C933.96 1034.59 935.436 1036.37 935.436 1039.43C935.436 1042.47 933.96 1044.22 931.458 1044.22C930.072 1044.22 929.046 1043.66 928.47 1042.49V1047.4H926.688V1034.8H928.452V1036.31C929.028 1035.16 930.036 1034.59 931.44 1034.59ZM931.062 1035.95C929.406 1035.95 928.47 1037.07 928.47 1039.37C928.47 1041.71 929.406 1042.85 931.062 1042.85C932.664 1042.85 933.618 1041.79 933.618 1039.37C933.618 1036.94 932.664 1035.95 931.062 1035.95ZM941.356 1044.22C938.53 1044.22 936.892 1042.43 936.892 1039.41C936.892 1036.35 938.53 1034.59 941.356 1034.59C944.182 1034.59 945.802 1036.33 945.82 1039.41C945.82 1042.43 944.182 1044.22 941.356 1044.22ZM941.356 1042.85C943.138 1042.85 943.984 1041.71 943.984 1039.41C943.984 1037.09 943.12 1035.95 941.356 1035.95C939.574 1035.95 938.71 1037.11 938.71 1039.41C938.71 1041.73 939.574 1042.85 941.356 1042.85ZM951.209 1044.22C948.707 1044.22 947.285 1043.24 947.087 1041.3H948.761C948.923 1042.4 949.769 1042.92 951.227 1042.92C952.685 1042.92 953.297 1042.4 953.297 1041.52C953.297 1040.74 952.883 1040.42 951.623 1040.15L950.147 1039.84C948.203 1039.45 947.465 1038.58 947.465 1037.25C947.465 1035.5 948.905 1034.59 950.975 1034.59C953.009 1034.59 954.449 1035.49 954.683 1037.32H953.063C952.865 1036.4 952.217 1035.88 950.975 1035.88C949.787 1035.88 949.121 1036.33 949.121 1037.07C949.121 1037.68 949.391 1038.04 950.615 1038.29L952.379 1038.65C954.269 1039.03 955.043 1039.88 955.043 1041.35C955.043 1043.15 953.693 1044.22 951.209 1044.22ZM959.726 1044C957.926 1044 957.296 1043.37 957.296 1041.79V1036.06H955.946V1034.8H957.296V1032.1H959.078V1034.8H961.04V1036.06H959.078V1041.64C959.078 1042.42 959.33 1042.65 960.158 1042.65H961.04V1044H959.726ZM966.68 1047.74C964.052 1047.74 962.864 1046.92 962.666 1044.95H964.376C964.538 1046.02 965.204 1046.38 966.626 1046.38C968.426 1046.38 969.128 1045.76 969.128 1044.2V1042.27C968.534 1043.32 967.472 1043.82 966.158 1043.82C963.908 1043.82 962.306 1042.22 962.306 1039.21C962.306 1036.17 963.962 1034.59 966.23 1034.59C967.544 1034.59 968.57 1035.07 969.146 1036.1V1034.8H970.91V1044.22C970.91 1046.56 969.56 1047.74 966.68 1047.74ZM966.644 1042.47C968.264 1042.47 969.128 1041.44 969.128 1039.21C969.128 1036.94 968.246 1035.94 966.644 1035.94C964.988 1035.94 964.106 1036.94 964.106 1039.18C964.106 1041.43 964.988 1042.47 966.644 1042.47ZM973.502 1044V1034.8H975.248V1036.28C975.626 1035.22 976.364 1034.73 977.66 1034.73H978.524V1036.28H977.408C975.86 1036.28 975.284 1036.89 975.284 1038.96V1044H973.502ZM983.758 1044.22C980.896 1044.22 979.276 1042.38 979.276 1039.41C979.276 1036.44 980.896 1034.59 983.722 1034.59C986.656 1034.59 988.006 1036.57 988.006 1039.09V1039.7H981.076C981.148 1041.89 982.12 1042.85 983.758 1042.85C985.036 1042.85 985.774 1042.42 986.134 1041.37H987.862C987.394 1043.28 985.936 1044.22 983.758 1044.22ZM983.722 1035.94C982.282 1035.94 981.346 1036.69 981.13 1038.47H986.206C986.098 1036.8 985.288 1035.94 983.722 1035.94ZM993.365 1044.22C990.863 1044.22 989.441 1043.24 989.243 1041.3H990.917C991.079 1042.4 991.925 1042.92 993.383 1042.92C994.841 1042.92 995.453 1042.4 995.453 1041.52C995.453 1040.74 995.039 1040.42 993.779 1040.15L992.303 1039.84C990.359 1039.45 989.621 1038.58 989.621 1037.25C989.621 1035.5 991.061 1034.59 993.131 1034.59C995.165 1034.59 996.605 1035.49 996.839 1037.32H995.219C995.021 1036.4 994.373 1035.88 993.131 1035.88C991.943 1035.88 991.277 1036.33 991.277 1037.07C991.277 1037.68 991.547 1038.04 992.771 1038.29L994.535 1038.65C996.425 1039.03 997.199 1039.88 997.199 1041.35C997.199 1043.15 995.849 1044.22 993.365 1044.22ZM1007.26 1044.22C1004.74 1044.22 1003.27 1042.43 1003.27 1039.37C1003.27 1036.33 1004.76 1034.59 1007.26 1034.59C1008.63 1034.59 1009.67 1035.16 1010.25 1036.31V1031.4H1012.01V1044H1010.27V1042.45C1009.71 1043.6 1008.68 1044.22 1007.26 1044.22ZM1007.64 1042.85C1009.31 1042.85 1010.25 1041.73 1010.25 1039.43C1010.25 1037.09 1009.3 1035.95 1007.64 1035.95C1006.04 1035.95 1005.08 1037.02 1005.08 1039.43C1005.08 1041.86 1006.04 1042.85 1007.64 1042.85ZM1018.49 1044.22C1015.67 1044.22 1014.03 1042.43 1014.03 1039.41C1014.03 1036.35 1015.67 1034.59 1018.49 1034.59C1021.32 1034.59 1022.94 1036.33 1022.96 1039.41C1022.96 1042.43 1021.32 1044.22 1018.49 1044.22ZM1018.49 1042.85C1020.27 1042.85 1021.12 1041.71 1021.12 1039.41C1021.12 1037.09 1020.26 1035.95 1018.49 1035.95C1016.71 1035.95 1015.85 1037.11 1015.85 1039.41C1015.85 1041.73 1016.71 1042.85 1018.49 1042.85ZM1028.85 1044.22C1026.08 1044.22 1024.42 1042.45 1024.42 1039.41C1024.42 1036.31 1026.09 1034.59 1028.85 1034.59C1031.24 1034.59 1032.66 1035.61 1033.04 1037.83H1031.26C1030.97 1036.48 1030.23 1035.95 1028.87 1035.95C1027.16 1035.95 1026.24 1037.05 1026.24 1039.41C1026.24 1041.77 1027.17 1042.85 1028.87 1042.85C1030.29 1042.85 1030.99 1042.27 1031.28 1040.9H1033.04C1032.68 1043.05 1031.31 1044.22 1028.85 1044.22ZM1040.94 1044L1036.75 1039.14V1044H1034.97V1031.4H1036.75V1039.03L1040.75 1034.8H1042.83L1038.73 1039.03L1043.21 1044H1040.94ZM1047.9 1044.22C1045.03 1044.22 1043.41 1042.38 1043.41 1039.41C1043.41 1036.44 1045.03 1034.59 1047.86 1034.59C1050.79 1034.59 1052.14 1036.57 1052.14 1039.09V1039.7H1045.21C1045.29 1041.89 1046.26 1042.85 1047.9 1042.85C1049.17 1042.85 1049.91 1042.42 1050.27 1041.37H1052C1051.53 1043.28 1050.07 1044.22 1047.9 1044.22ZM1047.86 1035.94C1046.42 1035.94 1045.48 1036.69 1045.27 1038.47H1050.34C1050.24 1036.8 1049.43 1035.94 1047.86 1035.94ZM1054.14 1044V1034.8H1055.88V1036.28C1056.26 1035.22 1057 1034.73 1058.29 1034.73H1059.16V1036.28H1058.04C1056.49 1036.28 1055.92 1036.89 1055.92 1038.96V1044H1054.14ZM1065.1 1044V1034.8H1066.88V1044H1065.1ZM1065.08 1033.24V1031.4H1066.9V1033.24H1065.08ZM1069.48 1044V1034.8H1071.24V1036.03C1071.65 1035.09 1072.55 1034.59 1073.74 1034.59C1075.04 1034.59 1075.9 1035.22 1076.24 1036.22C1076.73 1035.13 1077.65 1034.59 1079.02 1034.59C1080.94 1034.59 1082.11 1035.76 1082.11 1037.97V1044H1080.33V1037.99C1080.33 1036.55 1079.75 1035.97 1078.57 1035.97C1077.36 1035.97 1076.68 1036.64 1076.68 1038.29V1044H1074.91V1038.08C1074.91 1036.57 1074.34 1035.97 1073.18 1035.97C1071.96 1035.97 1071.26 1036.66 1071.26 1038.29V1044H1069.48ZM1087.21 1044.22C1085.19 1044.22 1083.99 1043.19 1083.99 1041.43C1083.99 1039.75 1084.87 1038.91 1086.76 1038.62L1088.5 1038.33C1089.82 1038.11 1090.14 1037.84 1090.14 1037.2C1090.14 1036.39 1089.64 1035.9 1088.23 1035.9C1086.76 1035.9 1086.16 1036.37 1086.06 1037.38H1084.38C1084.56 1035.47 1085.95 1034.59 1088.27 1034.59C1090.77 1034.59 1091.89 1035.54 1091.89 1037.52V1042.15C1091.89 1042.56 1092.05 1042.72 1092.45 1042.72H1092.81V1044.04C1092.52 1044.07 1092.27 1044.09 1091.92 1044.09C1090.97 1044.09 1090.39 1043.73 1090.27 1042.76C1089.69 1043.77 1088.59 1044.22 1087.21 1044.22ZM1087.64 1042.9C1088.95 1042.9 1090.16 1042.25 1090.16 1040.72V1038.98C1089.85 1039.16 1089.42 1039.3 1088.63 1039.46L1087.32 1039.73C1086.11 1039.99 1085.75 1040.49 1085.75 1041.32C1085.75 1042.31 1086.42 1042.9 1087.64 1042.9ZM1098.42 1047.74C1095.79 1047.74 1094.6 1046.92 1094.41 1044.95H1096.12C1096.28 1046.02 1096.94 1046.38 1098.37 1046.38C1100.17 1046.38 1100.87 1045.76 1100.87 1044.2V1042.27C1100.27 1043.32 1099.21 1043.82 1097.9 1043.82C1095.65 1043.82 1094.05 1042.22 1094.05 1039.21C1094.05 1036.17 1095.7 1034.59 1097.97 1034.59C1099.28 1034.59 1100.31 1035.07 1100.89 1036.1V1034.8H1102.65V1044.22C1102.65 1046.56 1101.3 1047.74 1098.42 1047.74ZM1098.38 1042.47C1100 1042.47 1100.87 1041.44 1100.87 1039.21C1100.87 1036.94 1099.99 1035.94 1098.38 1035.94C1096.73 1035.94 1095.85 1036.94 1095.85 1039.18C1095.85 1041.43 1096.73 1042.47 1098.38 1042.47ZM1109.15 1044.22C1106.29 1044.22 1104.67 1042.38 1104.67 1039.41C1104.67 1036.44 1106.29 1034.59 1109.11 1034.59C1112.05 1034.59 1113.4 1036.57 1113.4 1039.09V1039.7H1106.47C1106.54 1041.89 1107.51 1042.85 1109.15 1042.85C1110.43 1042.85 1111.17 1042.42 1111.53 1041.37H1113.25C1112.79 1043.28 1111.33 1044.22 1109.15 1044.22ZM1109.11 1035.94C1107.67 1035.94 1106.74 1036.69 1106.52 1038.47H1111.6C1111.49 1036.8 1110.68 1035.94 1109.11 1035.94Z" fill="black"/>
<path d="M911.893 560.315L911.893 949" stroke="black"/>
</g>
<defs>
<linearGradient id="paint0_linear_150_312" x1="1.56163e-06" y1="360" x2="2183" y2="360" gradientUnits="userSpaceOnUse">
<stop offset="0.0769231" stop-color="#1923A8"/>
<stop offset="0.331731" stop-color="#CCCDDD"/>
</linearGradient>
<linearGradient id="paint1_linear_150_312" x1="139.195" y1="540.5" x2="2772.14" y2="540.5" gradientUnits="userSpaceOnUse">
<stop offset="0.0288462" stop-color="#1923A8"/>
<stop offset="0.3125" stop-color="#CCCDDD"/>
</linearGradient>
<linearGradient id="paint2_linear_150_312" x1="6.92212e-08" y1="720.5" x2="2183" y2="720.5" gradientUnits="userSpaceOnUse">
<stop offset="0.0451558" stop-color="#1923A8"/>
<stop offset="0.250962" stop-color="#CCCDDD"/>
</linearGradient>
<clipPath id="clip0_150_312">
<rect width="1920" height="1080" fill="white"/>
</clipPath>
</defs>
</svg>
