<svg width="1920" height="1080" viewBox="0 0 1920 1080" fill="none" xmlns="http://www.w3.org/2000/svg">
<g clip-path="url(#clip0_150_372)">
<rect width="1920" height="1080" fill="#F1EFE8"/>
<path opacity="0.89" d="M0 532C0 532 15.0128 532 416.171 532C817.33 532 1081.79 539.741 1422.05 539.741L1999.7 539.741" stroke="url(#paint0_linear_150_372)" stroke-width="180"/>
<path opacity="0.79" d="M-675.329 539.763L1957.62 539.763" stroke="url(#paint1_linear_150_372)" stroke-width="180"/>
<path opacity="0.69" d="M1.57365e-05 547.504C1.57365e-05 547.504 120.693 547.504 512.551 547.504C904.41 547.504 1085.84 539.763 1360.13 539.763L2157.48 539.763" stroke="url(#paint2_linear_150_372)" stroke-width="180"/>
<path d="M60 -126.262L60.0001 1206.26" stroke="#F1EFE8"/>
<path d="M360 -126.262L360 1206.26" stroke="#F1EFE8"/>
<path d="M660 -126.262L660 1206.26" stroke="#F1EFE8"/>
<path d="M960 -126.262L960 1206.26" stroke="#F1EFE8"/>
<path d="M1260 -126.262L1260 1206.26" stroke="#F1EFE8"/>
<path d="M1560 -126.262L1560 1206.26" stroke="#F1EFE8"/>
<path d="M1860 -126.262L1860 1206.26" stroke="#F1EFE8"/>
<path d="M937.235 546.677V534.077H941.915C946.055 534.077 947.855 535.643 947.855 540.377C947.855 545.111 946.055 546.677 941.915 546.677H937.235ZM941.915 545.165C944.885 545.165 945.983 544.157 945.983 540.377C945.983 536.579 944.885 535.571 941.915 535.571H939.053V545.165H941.915ZM953.905 546.893C951.043 546.893 949.423 545.057 949.423 542.087C949.423 539.117 951.043 537.263 953.869 537.263C956.803 537.263 958.153 539.243 958.153 541.763V542.375H951.223C951.295 544.571 952.267 545.525 953.905 545.525C955.183 545.525 955.921 545.093 956.281 544.049H958.009C957.541 545.957 956.083 546.893 953.905 546.893ZM953.869 538.613C952.429 538.613 951.493 539.369 951.277 541.151H956.353C956.245 539.477 955.435 538.613 953.869 538.613ZM964.898 537.263C967.418 537.263 968.894 539.045 968.894 542.105C968.894 545.147 967.418 546.893 964.916 546.893C963.53 546.893 962.504 546.335 961.928 545.165V550.079H960.146V537.479H961.91V538.991C962.486 537.839 963.494 537.263 964.898 537.263ZM964.52 538.631C962.864 538.631 961.928 539.747 961.928 542.051C961.928 544.391 962.864 545.525 964.52 545.525C966.122 545.525 967.076 544.463 967.076 542.051C967.076 539.621 966.122 538.631 964.52 538.631ZM970.926 546.677V534.077H972.708V546.677H970.926ZM979.195 546.893C976.369 546.893 974.731 545.111 974.731 542.087C974.731 539.027 976.369 537.263 979.195 537.263C982.021 537.263 983.641 539.009 983.659 542.087C983.659 545.111 982.021 546.893 979.195 546.893ZM979.195 545.525C980.977 545.525 981.823 544.391 981.823 542.087C981.823 539.765 980.959 538.631 979.195 538.631C977.413 538.631 976.549 539.783 976.549 542.087C976.549 544.409 977.413 545.525 979.195 545.525ZM985.273 550.079V548.693H986.209C986.839 548.693 987.289 548.459 987.595 547.667L987.955 546.695L984.445 537.479H986.281L988.819 544.643L991.483 537.479H993.265L988.981 548.315C988.441 549.683 987.631 550.079 986.371 550.079H985.273ZM998.399 546.893C995.537 546.893 993.917 545.057 993.917 542.087C993.917 539.117 995.537 537.263 998.363 537.263C1001.3 537.263 1002.65 539.243 1002.65 541.763V542.375H995.717C995.789 544.571 996.761 545.525 998.399 545.525C999.677 545.525 1000.42 545.093 1000.78 544.049H1002.5C1002.04 545.957 1000.58 546.893 998.399 546.893ZM998.363 538.613C996.923 538.613 995.987 539.369 995.771 541.151H1000.85C1000.74 539.477 999.929 538.613 998.363 538.613ZM1008.08 546.893C1005.56 546.893 1004.08 545.111 1004.08 542.051C1004.08 539.009 1005.58 537.263 1008.08 537.263C1009.45 537.263 1010.49 537.839 1011.07 538.991V534.077H1012.83V546.677H1011.08V545.129C1010.53 546.281 1009.5 546.893 1008.08 546.893ZM1008.46 545.525C1010.13 545.525 1011.07 544.409 1011.07 542.105C1011.07 539.765 1010.11 538.631 1008.46 538.631C1006.85 538.631 1005.9 539.693 1005.9 542.105C1005.9 544.535 1006.85 545.525 1008.46 545.525Z" fill="black"/>
<path d="M921.077 549.133H902.562L911.819 533.098L921.077 549.133Z" stroke="black" stroke-width="4.46011"/>
<circle cx="911.704" cy="962" r="3.55225" fill="black"/>
<path d="M926.948 957.632C926.948 956.084 927.65 955.4 929.396 955.4H930.674V956.732H929.684C928.946 956.732 928.712 956.93 928.712 957.794V958.802H930.674V960.062H928.712V968H926.948V960.062H925.562V958.802H926.948V957.632ZM932.144 968V958.802H933.89V960.278C934.268 959.216 935.006 958.73 936.302 958.73H937.166V960.278H936.05C934.502 960.278 933.926 960.89 933.926 962.96V968H932.144ZM942.382 968.216C939.556 968.216 937.918 966.434 937.918 963.41C937.918 960.35 939.556 958.586 942.382 958.586C945.208 958.586 946.828 960.332 946.846 963.41C946.846 966.434 945.208 968.216 942.382 968.216ZM942.382 966.848C944.164 966.848 945.01 965.714 945.01 963.41C945.01 961.088 944.146 959.954 942.382 959.954C940.6 959.954 939.736 961.106 939.736 963.41C939.736 965.732 940.6 966.848 942.382 966.848ZM948.869 968V958.802H950.633V960.116C951.119 959.108 952.127 958.586 953.459 958.586C955.493 958.586 956.771 959.9 956.771 962.15V968H954.989V962.366C954.989 960.692 954.323 959.972 952.901 959.972C951.389 959.972 950.651 960.764 950.651 962.636V968H948.869ZM962 968C960.2 968 959.57 967.37 959.57 965.786V960.062H958.22V958.802H959.57V956.102H961.352V958.802H963.314V960.062H961.352V965.642C961.352 966.416 961.604 966.65 962.432 966.65H963.314V968H962ZM969.061 968.216C966.199 968.216 964.579 966.38 964.579 963.41C964.579 960.44 966.199 958.586 969.025 958.586C971.959 958.586 973.309 960.566 973.309 963.086V963.698H966.379C966.451 965.894 967.423 966.848 969.061 966.848C970.339 966.848 971.077 966.416 971.437 965.372H973.165C972.697 967.28 971.239 968.216 969.061 968.216ZM969.025 959.936C967.585 959.936 966.649 960.692 966.433 962.474H971.509C971.401 960.8 970.591 959.936 969.025 959.936ZM975.302 968V958.802H977.066V960.116C977.552 959.108 978.56 958.586 979.892 958.586C981.926 958.586 983.204 959.9 983.204 962.15V968H981.422V962.366C981.422 960.692 980.756 959.972 979.334 959.972C977.822 959.972 977.084 960.764 977.084 962.636V968H975.302ZM989.133 968.216C986.613 968.216 985.137 966.434 985.137 963.374C985.137 960.332 986.631 958.586 989.133 958.586C990.501 958.586 991.545 959.162 992.121 960.314V955.4H993.885V968H992.139V966.452C991.581 967.604 990.555 968.216 989.133 968.216ZM989.511 966.848C991.185 966.848 992.121 965.732 992.121 963.428C992.121 961.088 991.167 959.954 989.511 959.954C987.909 959.954 986.955 961.016 986.955 963.428C986.955 965.858 987.909 966.848 989.511 966.848Z" fill="black"/>
<circle cx="911.704" cy="1000" r="3.55225" fill="black"/>
<path d="M930.278 1009.74C927.65 1009.74 926.462 1008.92 926.264 1006.95H927.974C928.136 1008.02 928.802 1008.38 930.224 1008.38C932.024 1008.38 932.726 1007.76 932.726 1006.2V1004.27C932.132 1005.32 931.07 1005.82 929.756 1005.82C927.506 1005.82 925.904 1004.22 925.904 1001.21C925.904 998.17 927.56 996.586 929.828 996.586C931.142 996.586 932.168 997.072 932.744 998.098V996.802H934.508V1006.22C934.508 1008.56 933.158 1009.74 930.278 1009.74ZM930.242 1004.47C931.862 1004.47 932.726 1003.44 932.726 1001.21C932.726 998.944 931.844 997.936 930.242 997.936C928.586 997.936 927.704 998.944 927.704 1001.18C927.704 1003.43 928.586 1004.47 930.242 1004.47ZM937.101 1006V996.802H938.883V1006H937.101ZM937.083 995.236V993.4H938.901V995.236H937.083ZM944.29 1006C942.49 1006 941.86 1005.37 941.86 1003.79V998.062H940.51V996.802H941.86V994.102H943.642V996.802H945.604V998.062H943.642V1003.64C943.642 1004.42 943.894 1004.65 944.722 1004.65H945.604V1006H944.29ZM947.603 1006V993.4H949.385V998.08C949.889 997.072 950.879 996.586 952.193 996.586C954.227 996.586 955.505 997.9 955.505 1000.15V1006H953.723V1000.37C953.723 998.692 953.057 997.972 951.635 997.972C950.123 997.972 949.385 998.764 949.385 1000.64V1006H947.603ZM965.79 996.802V1006H964.026V1004.69C963.54 1005.71 962.55 1006.22 961.2 1006.22C959.166 1006.22 957.888 1004.9 957.888 1002.65V996.802H959.67V1002.44C959.67 1004.11 960.336 1004.83 961.758 1004.83C963.252 1004.83 964.008 1004.04 964.008 1002.17V996.802H965.79ZM973.141 1006.22C971.737 1006.22 970.729 1005.64 970.153 1004.49V1006H968.389V993.4H970.171V998.314C970.747 997.162 971.791 996.586 973.159 996.586C975.661 996.586 977.137 998.35 977.137 1001.37C977.137 1004.45 975.661 1006.22 973.141 1006.22ZM972.763 1004.85C974.365 1004.85 975.319 1003.84 975.319 1001.43C975.319 998.998 974.365 997.954 972.763 997.954C971.107 997.954 970.171 999.106 970.171 1001.43C970.171 1003.75 971.107 1004.85 972.763 1004.85ZM988.636 1006.22C987.232 1006.22 986.224 1005.64 985.648 1004.49V1006H983.884V993.4H985.666V998.314C986.242 997.162 987.286 996.586 988.654 996.586C991.156 996.586 992.632 998.35 992.632 1001.37C992.632 1004.45 991.156 1006.22 988.636 1006.22ZM988.258 1004.85C989.86 1004.85 990.814 1003.84 990.814 1001.43C990.814 998.998 989.86 997.954 988.258 997.954C986.602 997.954 985.666 999.106 985.666 1001.43C985.666 1003.75 986.602 1004.85 988.258 1004.85ZM997.274 1006.22C995.258 1006.22 994.052 1005.19 994.052 1003.43C994.052 1001.75 994.934 1000.91 996.824 1000.62L998.57 1000.33C999.884 1000.11 1000.21 999.844 1000.21 999.196C1000.21 998.386 999.704 997.9 998.3 997.9C996.824 997.9 996.23 998.368 996.122 999.376H994.448C994.628 997.468 996.014 996.586 998.336 996.586C1000.84 996.586 1001.95 997.54 1001.95 999.52V1004.15C1001.95 1004.56 1002.12 1004.72 1002.51 1004.72H1002.87V1006.04C1002.58 1006.07 1002.33 1006.09 1001.99 1006.09C1001.04 1006.09 1000.46 1005.73 1000.33 1004.76C999.758 1005.77 998.66 1006.22 997.274 1006.22ZM997.706 1004.9C999.02 1004.9 1000.23 1004.25 1000.23 1002.72V1000.98C999.92 1001.16 999.488 1001.3 998.696 1001.46L997.382 1001.73C996.176 1001.99 995.816 1002.49 995.816 1003.32C995.816 1004.31 996.482 1004.9 997.706 1004.9ZM1008.54 1006.22C1005.77 1006.22 1004.11 1004.45 1004.11 1001.41C1004.11 998.314 1005.79 996.586 1008.54 996.586C1010.93 996.586 1012.36 997.612 1012.73 999.826H1010.95C1010.66 998.476 1009.93 997.954 1008.56 997.954C1006.85 997.954 1005.93 999.052 1005.93 1001.41C1005.93 1003.77 1006.87 1004.85 1008.56 1004.85C1009.98 1004.85 1010.68 1004.27 1010.97 1002.9H1012.73C1012.37 1005.05 1011.01 1006.22 1008.54 1006.22ZM1020.63 1006L1016.44 1001.14V1006H1014.66V993.4H1016.44V1001.03L1020.44 996.802H1022.52L1018.42 1001.03L1022.9 1006H1020.63ZM1027.59 1006.22C1024.72 1006.22 1023.1 1004.38 1023.1 1001.41C1023.1 998.44 1024.72 996.586 1027.55 996.586C1030.48 996.586 1031.83 998.566 1031.83 1001.09V1001.7H1024.9C1024.98 1003.89 1025.95 1004.85 1027.59 1004.85C1028.86 1004.85 1029.6 1004.42 1029.96 1003.37H1031.69C1031.22 1005.28 1029.76 1006.22 1027.59 1006.22ZM1027.55 997.936C1026.11 997.936 1025.17 998.692 1024.96 1000.47H1030.03C1029.93 998.8 1029.12 997.936 1027.55 997.936ZM1033.83 1006V996.802H1035.59V998.116C1036.08 997.108 1037.08 996.586 1038.42 996.586C1040.45 996.586 1041.73 997.9 1041.73 1000.15V1006H1039.95V1000.37C1039.95 998.692 1039.28 997.972 1037.86 997.972C1036.35 997.972 1035.61 998.764 1035.61 1000.64V1006H1033.83ZM1047.66 1006.22C1045.14 1006.22 1043.66 1004.43 1043.66 1001.37C1043.66 998.332 1045.16 996.586 1047.66 996.586C1049.03 996.586 1050.07 997.162 1050.65 998.314V993.4H1052.41V1006H1050.66V1004.45C1050.11 1005.6 1049.08 1006.22 1047.66 1006.22ZM1048.04 1004.85C1049.71 1004.85 1050.65 1003.73 1050.65 1001.43C1050.65 999.088 1049.69 997.954 1048.04 997.954C1046.43 997.954 1045.48 999.016 1045.48 1001.43C1045.48 1003.86 1046.43 1004.85 1048.04 1004.85Z" fill="black"/>
<circle cx="911.704" cy="1038" r="3.55225" fill="black"/>
<path d="M931.214 1034.59C933.734 1034.59 935.21 1036.37 935.21 1039.43C935.21 1042.47 933.734 1044.22 931.232 1044.22C929.846 1044.22 928.82 1043.66 928.244 1042.49V1047.4H926.462V1034.8H928.226V1036.31C928.802 1035.16 929.81 1034.59 931.214 1034.59ZM930.836 1035.95C929.18 1035.95 928.244 1037.07 928.244 1039.37C928.244 1041.71 929.18 1042.85 930.836 1042.85C932.438 1042.85 933.392 1041.79 933.392 1039.37C933.392 1036.94 932.438 1035.95 930.836 1035.95ZM941.129 1044.22C938.303 1044.22 936.665 1042.43 936.665 1039.41C936.665 1036.35 938.303 1034.59 941.129 1034.59C943.955 1034.59 945.575 1036.33 945.593 1039.41C945.593 1042.43 943.955 1044.22 941.129 1044.22ZM941.129 1042.85C942.911 1042.85 943.757 1041.71 943.757 1039.41C943.757 1037.09 942.893 1035.95 941.129 1035.95C939.347 1035.95 938.483 1037.11 938.483 1039.41C938.483 1041.73 939.347 1042.85 941.129 1042.85ZM950.983 1044.22C948.481 1044.22 947.059 1043.24 946.861 1041.3H948.535C948.697 1042.4 949.543 1042.92 951.001 1042.92C952.459 1042.92 953.071 1042.4 953.071 1041.52C953.071 1040.74 952.657 1040.42 951.397 1040.15L949.921 1039.84C947.977 1039.45 947.239 1038.58 947.239 1037.25C947.239 1035.5 948.679 1034.59 950.749 1034.59C952.783 1034.59 954.223 1035.49 954.457 1037.32H952.837C952.639 1036.4 951.991 1035.88 950.749 1035.88C949.561 1035.88 948.895 1036.33 948.895 1037.07C948.895 1037.68 949.165 1038.04 950.389 1038.29L952.153 1038.65C954.043 1039.03 954.817 1039.88 954.817 1041.35C954.817 1043.15 953.467 1044.22 950.983 1044.22ZM959.499 1044C957.699 1044 957.069 1043.37 957.069 1041.79V1036.06H955.719V1034.8H957.069V1032.1H958.851V1034.8H960.813V1036.06H958.851V1041.64C958.851 1042.42 959.103 1042.65 959.931 1042.65H960.813V1044H959.499ZM966.453 1047.74C963.825 1047.74 962.637 1046.92 962.439 1044.95H964.149C964.311 1046.02 964.977 1046.38 966.399 1046.38C968.199 1046.38 968.901 1045.76 968.901 1044.2V1042.27C968.307 1043.32 967.245 1043.82 965.931 1043.82C963.681 1043.82 962.079 1042.22 962.079 1039.21C962.079 1036.17 963.735 1034.59 966.003 1034.59C967.317 1034.59 968.343 1035.07 968.919 1036.1V1034.8H970.683V1044.22C970.683 1046.56 969.333 1047.74 966.453 1047.74ZM966.417 1042.47C968.037 1042.47 968.901 1041.44 968.901 1039.21C968.901 1036.94 968.019 1035.94 966.417 1035.94C964.761 1035.94 963.879 1036.94 963.879 1039.18C963.879 1041.43 964.761 1042.47 966.417 1042.47ZM973.276 1044V1034.8H975.022V1036.28C975.4 1035.22 976.138 1034.73 977.434 1034.73H978.298V1036.28H977.182C975.634 1036.28 975.058 1036.89 975.058 1038.96V1044H973.276ZM983.532 1044.22C980.67 1044.22 979.05 1042.38 979.05 1039.41C979.05 1036.44 980.67 1034.59 983.496 1034.59C986.43 1034.59 987.78 1036.57 987.78 1039.09V1039.7H980.85C980.922 1041.89 981.894 1042.85 983.532 1042.85C984.81 1042.85 985.548 1042.42 985.908 1041.37H987.636C987.168 1043.28 985.71 1044.22 983.532 1044.22ZM983.496 1035.94C982.056 1035.94 981.12 1036.69 980.904 1038.47H985.98C985.872 1036.8 985.062 1035.94 983.496 1035.94ZM993.139 1044.22C990.637 1044.22 989.215 1043.24 989.017 1041.3H990.691C990.853 1042.4 991.699 1042.92 993.157 1042.92C994.615 1042.92 995.227 1042.4 995.227 1041.52C995.227 1040.74 994.813 1040.42 993.553 1040.15L992.077 1039.84C990.133 1039.45 989.395 1038.58 989.395 1037.25C989.395 1035.5 990.835 1034.59 992.905 1034.59C994.939 1034.59 996.379 1035.49 996.613 1037.32H994.993C994.795 1036.4 994.147 1035.88 992.905 1035.88C991.717 1035.88 991.051 1036.33 991.051 1037.07C991.051 1037.68 991.321 1038.04 992.545 1038.29L994.309 1038.65C996.199 1039.03 996.973 1039.88 996.973 1041.35C996.973 1043.15 995.623 1044.22 993.139 1044.22ZM1007.04 1044.22C1004.52 1044.22 1003.04 1042.43 1003.04 1039.37C1003.04 1036.33 1004.53 1034.59 1007.04 1034.59C1008.4 1034.59 1009.45 1035.16 1010.02 1036.31V1031.4H1011.79V1044H1010.04V1042.45C1009.48 1043.6 1008.46 1044.22 1007.04 1044.22ZM1007.41 1042.85C1009.09 1042.85 1010.02 1041.73 1010.02 1039.43C1010.02 1037.09 1009.07 1035.95 1007.41 1035.95C1005.81 1035.95 1004.86 1037.02 1004.86 1039.43C1004.86 1041.86 1005.81 1042.85 1007.41 1042.85ZM1018.27 1044.22C1015.44 1044.22 1013.8 1042.43 1013.8 1039.41C1013.8 1036.35 1015.44 1034.59 1018.27 1034.59C1021.09 1034.59 1022.71 1036.33 1022.73 1039.41C1022.73 1042.43 1021.09 1044.22 1018.27 1044.22ZM1018.27 1042.85C1020.05 1042.85 1020.89 1041.71 1020.89 1039.41C1020.89 1037.09 1020.03 1035.95 1018.27 1035.95C1016.48 1035.95 1015.62 1037.11 1015.62 1039.41C1015.62 1041.73 1016.48 1042.85 1018.27 1042.85ZM1028.62 1044.22C1025.85 1044.22 1024.19 1042.45 1024.19 1039.41C1024.19 1036.31 1025.87 1034.59 1028.62 1034.59C1031.02 1034.59 1032.44 1035.61 1032.82 1037.83H1031.03C1030.75 1036.48 1030.01 1035.95 1028.64 1035.95C1026.93 1035.95 1026.01 1037.05 1026.01 1039.41C1026.01 1041.77 1026.95 1042.85 1028.64 1042.85C1030.06 1042.85 1030.76 1042.27 1031.05 1040.9H1032.82C1032.46 1043.05 1031.09 1044.22 1028.62 1044.22ZM1040.72 1044L1036.52 1039.14V1044H1034.74V1031.4H1036.52V1039.03L1040.52 1034.8H1042.61L1038.5 1039.03L1042.99 1044H1040.72ZM1047.67 1044.22C1044.81 1044.22 1043.19 1042.38 1043.19 1039.41C1043.19 1036.44 1044.81 1034.59 1047.63 1034.59C1050.57 1034.59 1051.92 1036.57 1051.92 1039.09V1039.7H1044.99C1045.06 1041.89 1046.03 1042.85 1047.67 1042.85C1048.95 1042.85 1049.68 1042.42 1050.04 1041.37H1051.77C1051.3 1043.28 1049.85 1044.22 1047.67 1044.22ZM1047.63 1035.94C1046.19 1035.94 1045.26 1036.69 1045.04 1038.47H1050.12C1050.01 1036.8 1049.2 1035.94 1047.63 1035.94ZM1053.91 1044V1034.8H1055.66V1036.28C1056.03 1035.22 1056.77 1034.73 1058.07 1034.73H1058.93V1036.28H1057.82C1056.27 1036.28 1055.69 1036.89 1055.69 1038.96V1044H1053.91ZM1064.87 1044V1034.8H1066.65V1044H1064.87ZM1064.85 1033.24V1031.4H1066.67V1033.24H1064.85ZM1069.25 1044V1034.8H1071.01V1036.03C1071.43 1035.09 1072.33 1034.59 1073.52 1034.59C1074.81 1034.59 1075.68 1035.22 1076.02 1036.22C1076.5 1035.13 1077.42 1034.59 1078.79 1034.59C1080.72 1034.59 1081.89 1035.76 1081.89 1037.97V1044H1080.1V1037.99C1080.1 1036.55 1079.53 1035.97 1078.34 1035.97C1077.13 1035.97 1076.45 1036.64 1076.45 1038.29V1044H1074.69V1038.08C1074.69 1036.57 1074.11 1035.97 1072.96 1035.97C1071.73 1035.97 1071.03 1036.66 1071.03 1038.29V1044H1069.25ZM1086.98 1044.22C1084.97 1044.22 1083.76 1043.19 1083.76 1041.43C1083.76 1039.75 1084.64 1038.91 1086.53 1038.62L1088.28 1038.33C1089.59 1038.11 1089.92 1037.84 1089.92 1037.2C1089.92 1036.39 1089.41 1035.9 1088.01 1035.9C1086.53 1035.9 1085.94 1036.37 1085.83 1037.38H1084.16C1084.34 1035.47 1085.72 1034.59 1088.04 1034.59C1090.55 1034.59 1091.66 1035.54 1091.66 1037.52V1042.15C1091.66 1042.56 1091.82 1042.72 1092.22 1042.72H1092.58V1044.04C1092.29 1044.07 1092.04 1044.09 1091.7 1044.09C1090.74 1044.09 1090.17 1043.73 1090.04 1042.76C1089.47 1043.77 1088.37 1044.22 1086.98 1044.22ZM1087.41 1042.9C1088.73 1042.9 1089.93 1042.25 1089.93 1040.72V1038.98C1089.63 1039.16 1089.2 1039.3 1088.4 1039.46L1087.09 1039.73C1085.88 1039.99 1085.52 1040.49 1085.52 1041.32C1085.52 1042.31 1086.19 1042.9 1087.41 1042.9ZM1098.19 1047.74C1095.57 1047.74 1094.38 1046.92 1094.18 1044.95H1095.89C1096.05 1046.02 1096.72 1046.38 1098.14 1046.38C1099.94 1046.38 1100.64 1045.76 1100.64 1044.2V1042.27C1100.05 1043.32 1098.99 1043.82 1097.67 1043.82C1095.42 1043.82 1093.82 1042.22 1093.82 1039.21C1093.82 1036.17 1095.48 1034.59 1097.74 1034.59C1099.06 1034.59 1100.08 1035.07 1100.66 1036.1V1034.8H1102.42V1044.22C1102.42 1046.56 1101.07 1047.74 1098.19 1047.74ZM1098.16 1042.47C1099.78 1042.47 1100.64 1041.44 1100.64 1039.21C1100.64 1036.94 1099.76 1035.94 1098.16 1035.94C1096.5 1035.94 1095.62 1036.94 1095.62 1039.18C1095.62 1041.43 1096.5 1042.47 1098.16 1042.47ZM1108.92 1044.22C1106.06 1044.22 1104.44 1042.38 1104.44 1039.41C1104.44 1036.44 1106.06 1034.59 1108.89 1034.59C1111.82 1034.59 1113.17 1036.57 1113.17 1039.09V1039.7H1106.24C1106.31 1041.89 1107.28 1042.85 1108.92 1042.85C1110.2 1042.85 1110.94 1042.42 1111.3 1041.37H1113.03C1112.56 1043.28 1111.1 1044.22 1108.92 1044.22ZM1108.89 1035.94C1107.45 1035.94 1106.51 1036.69 1106.29 1038.47H1111.37C1111.26 1036.8 1110.45 1035.94 1108.89 1035.94Z" fill="black"/>
<path d="M911.666 560.316L911.666 949" stroke="black"/>
</g>
<defs>
<linearGradient id="paint0_linear_150_372" x1="1.56163e-06" y1="532.022" x2="2183" y2="532.017" gradientUnits="userSpaceOnUse">
<stop offset="0.0769231" stop-color="#1923A8"/>
<stop offset="0.331731" stop-color="#CCCDDD"/>
</linearGradient>
<linearGradient id="paint1_linear_150_372" x1="139.194" y1="540.263" x2="2772.14" y2="540.257" gradientUnits="userSpaceOnUse">
<stop offset="0.0288462" stop-color="#1923A8"/>
<stop offset="0.3125" stop-color="#CCCDDD"/>
</linearGradient>
<linearGradient id="paint2_linear_150_372" x1="6.92201e-08" y1="547.526" x2="2183" y2="547.521" gradientUnits="userSpaceOnUse">
<stop offset="0.0451558" stop-color="#1923A8"/>
<stop offset="0.250962" stop-color="#CCCDDD"/>
</linearGradient>
<clipPath id="clip0_150_372">
<rect width="1920" height="1080" fill="white"/>
</clipPath>
</defs>
</svg>
