<svg width="1920" height="1080" viewBox="0 0 1920 1080" fill="none" xmlns="http://www.w3.org/2000/svg">
<g clip-path="url(#clip0_436_500)">
<rect width="1920" height="1080" fill="#F1EFE8"/>
<path d="M-996.973 540C-996.973 540 -140.921 540 94.5273 540C329.975 540 472.686 425.431 640.277 425.431C807.869 425.431 1621.07 425.431 1621.07 425.431C1820.69 425.431 2041.09 510 2252.44 510H2624.71" stroke="#ABE0BC" stroke-width="180"/>
<path d="M-996.973 540C-996.973 540 -140.921 540 94.5273 540C329.975 540 472.686 654.569 640.277 654.569C807.869 654.569 1621.07 654.569 1621.07 654.569C1820.69 654.569 2041.09 580 2252.44 580H2624.71" stroke="#ABE0BC" stroke-width="180"/>
</g>
<defs>
<clipPath id="clip0_436_500">
<rect width="1920" height="1080" fill="white"/>
</clipPath>
</defs>
</svg>
