<svg width="1920" height="1080" viewBox="0 0 1920 1080" fill="none" xmlns="http://www.w3.org/2000/svg">
<g clip-path="url(#clip0_436_500)">
<rect width="1920" height="1080" fill="#F1EFE8"/>
<path d="M-996.973 540C-996.973 540 -140.921 540 94.5273 540C329.975 540 472.686 465 640.277 465C807.869 465 1621.07 465 1621.07 465C1820.69 465 2041.09 540 2252.44 540H2624.71" stroke="url(#paint0_linear_436_500)" stroke-width="180"/>
<path d="M-996.973 540C-996.973 540 -140.921 540 94.5273 540C329.975 540 472.686 615 640.277 615C807.869 615 1621.07 615 1621.07 615C1820.69 615 2041.09 540 2252.44 540H2624.71" stroke="url(#paint1_linear_436_500)" stroke-width="180"/>
</g>
<defs>
<linearGradient id="paint0_linear_436_500" x1="813.796" y1="594.36" x2="813.796" y2="368.095" gradientUnits="userSpaceOnUse">
<stop stop-color="#E7E5DD" stop-opacity="0"/>
<stop offset="0.100565" stop-color="#E9F3CD" stop-opacity="0.5"/>
<stop offset="0.390351" stop-color="#D9DECA"/>
<stop offset="0.614035" stop-color="#D9DECA"/>
<stop offset="0.9" stop-color="#E9F3CD" stop-opacity="0.5"/>
<stop offset="1" stop-color="#E7E5DD" stop-opacity="0"/>
</linearGradient>
<linearGradient id="paint1_linear_436_500" x1="813.796" y1="485.64" x2="813.796" y2="711.905" gradientUnits="userSpaceOnUse">
<stop stop-color="#E7E5DD" stop-opacity="0"/>
<stop offset="0.100565" stop-color="#E9F3CD" stop-opacity="0.5"/>
<stop offset="0.390351" stop-color="#D9DECA"/>
<stop offset="0.614035" stop-color="#D9DECA"/>
<stop offset="0.9" stop-color="#E9F3CD" stop-opacity="0.5"/>
<stop offset="1" stop-color="#E7E5DD" stop-opacity="0"/>
</linearGradient>
<clipPath id="clip0_436_500">
<rect width="1920" height="1080" fill="white"/>
</clipPath>
</defs>
</svg>
