<svg width="10287" height="1080" viewBox="0 0 10287 1080" fill="none" xmlns="http://www.w3.org/2000/svg">
<g clip-path="url(#clip0_483_8)">
<rect width="10287" height="1080" fill="#F1EFE8"/>
<path opacity="0.69" d="M8299.64 521L10576.9 521" stroke="url(#paint0_linear_483_8)" stroke-width="180"/>
<g filter="url(#filter0_f_483_8)">
<path d="M3803.59 521C4284.6 521 4574.52 341 5026.39 341L7093 341" stroke="url(#paint1_linear_483_8)" stroke-width="180"/>
</g>
<g filter="url(#filter1_f_483_8)">
<path d="M9291.41 521C8810.4 521 8520.48 341 8068.61 341L6002 341" stroke="url(#paint2_linear_483_8)" stroke-width="180"/>
</g>
<path d="M-1405.13 540H2227.88" stroke="url(#paint3_linear_483_8)" stroke-width="180"/>
<mask id="mask0_483_8" style="mask-type:alpha" maskUnits="userSpaceOnUse" x="595" y="469" width="3634" height="180">
<path d="M595.867 559H4228.88" stroke="#BA9925" stroke-width="180"/>
</mask>
<g mask="url(#mask0_483_8)">
<g opacity="0.5" filter="url(#filter2_f_483_8)">
<rect x="2340" y="266.685" width="1256.49" height="238.733" rx="119.367" transform="rotate(-2.18609 2340 266.685)" fill="#DE4D0E"/>
</g>
</g>
<path d="M595.867 546H4228.88" stroke="url(#paint4_linear_483_8)" stroke-width="180"/>
<path d="M4244 -107.508L4244 1225.02" stroke="#F1EFE8"/>
<path d="M4544 -107.508L4544 1225.02" stroke="#F1EFE8"/>
<path d="M4844 -107.508L4844 1225.02" stroke="#F1EFE8"/>
<path d="M5144 -107.508L5144 1225.02" stroke="#F1EFE8"/>
<path d="M5444 -107.508L5444 1225.02" stroke="#F1EFE8"/>
<path d="M5744 -107.508L5744 1225.02" stroke="#F1EFE8"/>
<path d="M6044 -107.508L6044 1225.02" stroke="#F1EFE8"/>
<g filter="url(#filter3_f_483_8)">
<path d="M596.094 545C596.094 545 1286.44 545 1687.59 545C2168.6 545 2458.52 365 2910.39 365L4067.17 365" stroke="#DE4D0E" stroke-width="11"/>
</g>
<g filter="url(#filter4_f_483_8)">
<path d="M596.094 545C596.094 545 1286.44 545 1687.59 545C2168.6 545 2458.52 365 2910.39 365L4067.17 365" stroke="#DE4D0E" stroke-width="11"/>
</g>
<path d="M4060 365L6579.08 365" stroke="#DE4D0E" stroke-width="11"/>
<path d="M2712 546H9291" stroke="url(#paint5_linear_483_8)" stroke-width="180"/>
<g opacity="0.7">
<path d="M4599.73 108.055L4599.73 572.945" stroke="#F1EFE8"/>
<path d="M4826.17 172.337L4826.17 508.664" stroke="#F1EFE8"/>
<path d="M5052.62 172.337L5052.62 508.664" stroke="#F1EFE8"/>
<path d="M5279.06 172.337L5279.06 508.664" stroke="#F1EFE8"/>
<path d="M5505.5 172.337L5505.5 508.664" stroke="#F1EFE8"/>
<path d="M5731.95 172.337L5731.95 508.664" stroke="#F1EFE8"/>
<path d="M5958.39 172.337L5958.39 508.664" stroke="#F1EFE8"/>
<path d="M6184.84 172.337L6184.84 508.664" stroke="#F1EFE8"/>
<path d="M6411.28 172.337L6411.28 508.664" stroke="#F1EFE8"/>
<path d="M6637.73 172.337L6637.73 508.664" stroke="#F1EFE8"/>
</g>
<path d="M2464.73 165.5H6665.23" stroke="black"/>
<path d="M4482.6 122.192C4478.9 122.192 4477.4 120.576 4477.4 116.4C4477.4 112.208 4478.9 110.608 4482.6 110.608C4486.29 110.608 4487.8 112.224 4487.8 116.4C4487.8 120.592 4486.29 122.192 4482.6 122.192ZM4482.6 120.864C4485.24 120.864 4486.13 119.856 4486.13 116.4C4486.13 112.928 4485.22 111.936 4482.6 111.936C4479.96 111.936 4479.06 112.944 4479.06 116.4C4479.06 119.872 4479.96 120.864 4482.6 120.864ZM4496.64 113.824V122H4495.07V120.832C4494.64 121.744 4493.76 122.192 4492.56 122.192C4490.75 122.192 4489.61 121.024 4489.61 119.024V113.824H4491.2V118.832C4491.2 120.32 4491.79 120.96 4493.05 120.96C4494.38 120.96 4495.05 120.256 4495.05 118.592V113.824H4496.64ZM4501.44 122C4499.84 122 4499.28 121.44 4499.28 120.032V114.944H4498.08V113.824H4499.28V111.424H4500.87V113.824H4502.61V114.944H4500.87V119.904C4500.87 120.592 4501.09 120.8 4501.83 120.8H4502.61V122H4501.44ZM4512.04 122.192C4509.52 122.192 4508.07 120.608 4508.07 117.92C4508.07 115.2 4509.52 113.632 4512.04 113.632C4514.55 113.632 4515.99 115.184 4516 117.92C4516 120.608 4514.55 122.192 4512.04 122.192ZM4512.04 120.976C4513.62 120.976 4514.37 119.968 4514.37 117.92C4514.37 115.856 4513.6 114.848 4512.04 114.848C4510.45 114.848 4509.68 115.872 4509.68 117.92C4509.68 119.984 4510.45 120.976 4512.04 120.976ZM4518.12 112.784C4518.12 111.408 4518.75 110.8 4520.3 110.8H4521.44V111.984H4520.56C4519.9 111.984 4519.69 112.16 4519.69 112.928V113.824H4521.44V114.944H4519.69V122H4518.12V114.944H4516.89V113.824H4518.12V112.784ZM4529.61 122.192C4527.39 122.192 4526.13 121.328 4525.95 119.6H4527.44C4527.58 120.576 4528.33 121.04 4529.63 121.04C4530.93 121.04 4531.47 120.576 4531.47 119.792C4531.47 119.104 4531.1 118.816 4529.98 118.576L4528.67 118.304C4526.94 117.952 4526.29 117.184 4526.29 116C4526.29 114.448 4527.57 113.632 4529.41 113.632C4531.21 113.632 4532.49 114.432 4532.7 116.064H4531.26C4531.09 115.248 4530.51 114.784 4529.41 114.784C4528.35 114.784 4527.76 115.184 4527.76 115.84C4527.76 116.384 4528 116.704 4529.09 116.928L4530.65 117.248C4532.33 117.584 4533.02 118.336 4533.02 119.648C4533.02 121.248 4531.82 122.192 4529.61 122.192ZM4534.37 125.024V123.792H4535.2C4535.76 123.792 4536.16 123.584 4536.43 122.88L4536.75 122.016L4533.63 113.824H4535.27L4537.52 120.192L4539.89 113.824H4541.47L4537.67 123.456C4537.19 124.672 4536.47 125.024 4535.35 125.024H4534.37ZM4542.8 122V113.824H4544.37V114.992C4544.8 114.096 4545.7 113.632 4546.88 113.632C4548.69 113.632 4549.83 114.8 4549.83 116.8V122H4548.24V116.992C4548.24 115.504 4547.65 114.864 4546.39 114.864C4545.04 114.864 4544.39 115.568 4544.39 117.232V122H4542.8ZM4555.48 122.192C4553.02 122.192 4551.54 120.624 4551.54 117.92C4551.54 115.168 4553.03 113.632 4555.48 113.632C4557.61 113.632 4558.87 114.544 4559.21 116.512H4557.62C4557.37 115.312 4556.71 114.848 4555.5 114.848C4553.98 114.848 4553.16 115.824 4553.16 117.92C4553.16 120.016 4553.99 120.976 4555.5 120.976C4556.76 120.976 4557.38 120.464 4557.64 119.248H4559.21C4558.89 121.152 4557.67 122.192 4555.48 122.192ZM4567.61 122C4566.01 122 4565.45 121.44 4565.45 120.032V114.944H4564.25V113.824H4565.45V111.424H4567.03V113.824H4568.77V114.944H4567.03V119.904C4567.03 120.592 4567.25 120.8 4567.99 120.8H4568.77V122H4567.61ZM4570.55 122V113.824H4572.13V122H4570.55ZM4570.53 112.432V110.8H4572.15V112.432H4570.53ZM4577.88 122.192C4575.42 122.192 4573.95 120.624 4573.95 117.92C4573.95 115.168 4575.44 113.632 4577.88 113.632C4580.01 113.632 4581.28 114.544 4581.61 116.512H4580.03C4579.77 115.312 4579.12 114.848 4577.9 114.848C4576.38 114.848 4575.56 115.824 4575.56 117.92C4575.56 120.016 4576.4 120.976 4577.9 120.976C4579.16 120.976 4579.79 120.464 4580.04 119.248H4581.61C4581.29 121.152 4580.08 122.192 4577.88 122.192ZM4588.64 122L4584.91 117.68V122H4583.32V110.8H4584.91V117.584L4588.46 113.824H4590.32L4586.67 117.584L4590.65 122H4588.64ZM4598.65 122.192C4596.43 122.192 4595.16 121.328 4594.99 119.6H4596.48C4596.62 120.576 4597.37 121.04 4598.67 121.04C4599.96 121.04 4600.51 120.576 4600.51 119.792C4600.51 119.104 4600.14 118.816 4599.02 118.576L4597.71 118.304C4595.98 117.952 4595.32 117.184 4595.32 116C4595.32 114.448 4596.6 113.632 4598.44 113.632C4600.25 113.632 4601.53 114.432 4601.74 116.064H4600.3C4600.12 115.248 4599.55 114.784 4598.44 114.784C4597.39 114.784 4596.8 115.184 4596.8 115.84C4596.8 116.384 4597.04 116.704 4598.12 116.928L4599.69 117.248C4601.37 117.584 4602.06 118.336 4602.06 119.648C4602.06 121.248 4600.86 122.192 4598.65 122.192ZM4607.98 113.632C4610.22 113.632 4611.53 115.216 4611.53 117.936C4611.53 120.64 4610.22 122.192 4608 122.192C4606.76 122.192 4605.85 121.696 4605.34 120.656V125.024H4603.76V113.824H4605.32V115.168C4605.84 114.144 4606.73 113.632 4607.98 113.632ZM4607.64 114.848C4606.17 114.848 4605.34 115.84 4605.34 117.888C4605.34 119.968 4606.17 120.976 4607.64 120.976C4609.07 120.976 4609.92 120.032 4609.92 117.888C4609.92 115.728 4609.07 114.848 4607.64 114.848ZM4615.66 122.192C4613.87 122.192 4612.79 121.28 4612.79 119.712C4612.79 118.224 4613.58 117.472 4615.26 117.216L4616.81 116.96C4617.98 116.768 4618.27 116.528 4618.27 115.952C4618.27 115.232 4617.82 114.8 4616.57 114.8C4615.26 114.8 4614.73 115.216 4614.63 116.112H4613.15C4613.31 114.416 4614.54 113.632 4616.6 113.632C4618.83 113.632 4619.82 114.48 4619.82 116.24V120.352C4619.82 120.72 4619.96 120.864 4620.31 120.864H4620.63V122.032C4620.38 122.064 4620.15 122.08 4619.85 122.08C4619 122.08 4618.49 121.76 4618.38 120.896C4617.87 121.792 4616.89 122.192 4615.66 122.192ZM4616.04 121.024C4617.21 121.024 4618.28 120.448 4618.28 119.088V117.536C4618.01 117.696 4617.63 117.824 4616.92 117.968L4615.75 118.208C4614.68 118.432 4614.36 118.88 4614.36 119.616C4614.36 120.496 4614.95 121.024 4616.04 121.024ZM4625.67 122.192C4623.21 122.192 4621.74 120.624 4621.74 117.92C4621.74 115.168 4623.22 113.632 4625.67 113.632C4627.8 113.632 4629.06 114.544 4629.4 116.512H4627.82C4627.56 115.312 4626.9 114.848 4625.69 114.848C4624.17 114.848 4623.35 115.824 4623.35 117.92C4623.35 120.016 4624.18 120.976 4625.69 120.976C4626.95 120.976 4627.58 120.464 4627.83 119.248H4629.4C4629.08 121.152 4627.86 122.192 4625.67 122.192ZM4631.11 122V113.824H4632.7V122H4631.11ZM4631.1 112.432V110.8H4632.71V112.432H4631.1ZM4635.01 122V113.824H4636.57V114.992C4637.01 114.096 4637.9 113.632 4639.09 113.632C4640.89 113.632 4642.03 114.8 4642.03 116.8V122H4640.45V116.992C4640.45 115.504 4639.85 114.864 4638.59 114.864C4637.25 114.864 4636.59 115.568 4636.59 117.232V122H4635.01ZM4647.64 125.328C4645.3 125.328 4644.24 124.592 4644.07 122.848H4645.59C4645.73 123.792 4646.32 124.112 4647.59 124.112C4649.19 124.112 4649.81 123.568 4649.81 122.176V120.464C4649.28 121.392 4648.34 121.84 4647.17 121.84C4645.17 121.84 4643.75 120.416 4643.75 117.744C4643.75 115.04 4645.22 113.632 4647.24 113.632C4648.4 113.632 4649.32 114.064 4649.83 114.976V113.824H4651.4V122.192C4651.4 124.272 4650.2 125.328 4647.64 125.328ZM4647.6 120.64C4649.04 120.64 4649.81 119.728 4649.81 117.744C4649.81 115.728 4649.03 114.832 4647.6 114.832C4646.13 114.832 4645.35 115.728 4645.35 117.712C4645.35 119.712 4646.13 120.64 4647.6 120.64Z" fill="black"/>
<path d="M1056.88 713V701.8H1058.49V713H1056.88ZM1060.88 713V704.824H1062.45V705.992C1062.88 705.096 1063.78 704.632 1064.96 704.632C1066.77 704.632 1067.9 705.8 1067.9 707.8V713H1066.32V707.992C1066.32 706.504 1065.73 705.864 1064.46 705.864C1063.12 705.864 1062.46 706.568 1062.46 708.232V713H1060.88ZM1077.3 713.192C1075.08 713.192 1073.81 712.328 1073.64 710.6H1075.13C1075.27 711.576 1076.02 712.04 1077.32 712.04C1078.61 712.04 1079.16 711.576 1079.16 710.792C1079.16 710.104 1078.79 709.816 1077.67 709.576L1076.36 709.304C1074.63 708.952 1073.97 708.184 1073.97 707C1073.97 705.448 1075.25 704.632 1077.09 704.632C1078.9 704.632 1080.18 705.432 1080.39 707.064H1078.95C1078.77 706.248 1078.2 705.784 1077.09 705.784C1076.04 705.784 1075.45 706.184 1075.45 706.84C1075.45 707.384 1075.69 707.704 1076.77 707.928L1078.34 708.248C1080.02 708.584 1080.71 709.336 1080.71 710.648C1080.71 712.248 1079.51 713.192 1077.3 713.192ZM1082.06 716.024V714.792H1082.89C1083.45 714.792 1083.85 714.584 1084.12 713.88L1084.44 713.016L1081.32 704.824H1082.96L1085.21 711.192L1087.58 704.824H1089.16L1085.36 714.456C1084.88 715.672 1084.16 716.024 1083.04 716.024H1082.06ZM1090.49 713V704.824H1092.06V705.992C1092.49 705.096 1093.39 704.632 1094.57 704.632C1096.38 704.632 1097.51 705.8 1097.51 707.8V713H1095.93V707.992C1095.93 706.504 1095.34 705.864 1094.07 705.864C1092.73 705.864 1092.07 706.568 1092.07 708.232V713H1090.49ZM1103.17 713.192C1100.7 713.192 1099.23 711.624 1099.23 708.92C1099.23 706.168 1100.72 704.632 1103.17 704.632C1105.3 704.632 1106.56 705.544 1106.9 707.512H1105.31C1105.06 706.312 1104.4 705.848 1103.18 705.848C1101.66 705.848 1100.85 706.824 1100.85 708.92C1100.85 711.016 1101.68 711.976 1103.18 711.976C1104.45 711.976 1105.07 711.464 1105.33 710.248H1106.9C1106.58 712.152 1105.36 713.192 1103.17 713.192ZM1115.29 713C1113.69 713 1113.13 712.44 1113.13 711.032V705.944H1111.93V704.824H1113.13V702.424H1114.72V704.824H1116.46V705.944H1114.72V710.904C1114.72 711.592 1114.94 711.8 1115.68 711.8H1116.46V713H1115.29ZM1118.24 713V704.824H1119.82V713H1118.24ZM1118.22 703.432V701.8H1119.84V703.432H1118.22ZM1125.57 713.192C1123.11 713.192 1121.64 711.624 1121.64 708.92C1121.64 706.168 1123.12 704.632 1125.57 704.632C1127.7 704.632 1128.96 705.544 1129.3 707.512H1127.72C1127.46 706.312 1126.8 705.848 1125.59 705.848C1124.07 705.848 1123.25 706.824 1123.25 708.92C1123.25 711.016 1124.08 711.976 1125.59 711.976C1126.85 711.976 1127.48 711.464 1127.73 710.248H1129.3C1128.98 712.152 1127.76 713.192 1125.57 713.192ZM1136.32 713L1132.6 708.68V713H1131.01V701.8H1132.6V708.584L1136.15 704.824H1138L1134.36 708.584L1138.34 713H1136.32ZM1146.34 713.192C1144.12 713.192 1142.85 712.328 1142.68 710.6H1144.16C1144.31 711.576 1145.06 712.04 1146.36 712.04C1147.65 712.04 1148.2 711.576 1148.2 710.792C1148.2 710.104 1147.83 709.816 1146.71 709.576L1145.4 709.304C1143.67 708.952 1143.01 708.184 1143.01 707C1143.01 705.448 1144.29 704.632 1146.13 704.632C1147.94 704.632 1149.22 705.432 1149.43 707.064H1147.99C1147.81 706.248 1147.24 705.784 1146.13 705.784C1145.08 705.784 1144.48 706.184 1144.48 706.84C1144.48 707.384 1144.72 707.704 1145.81 707.928L1147.38 708.248C1149.06 708.584 1149.75 709.336 1149.75 710.648C1149.75 712.248 1148.55 713.192 1146.34 713.192ZM1155.67 704.632C1157.91 704.632 1159.22 706.216 1159.22 708.936C1159.22 711.64 1157.91 713.192 1155.68 713.192C1154.45 713.192 1153.54 712.696 1153.03 711.656V716.024H1151.44V704.824H1153.01V706.168C1153.52 705.144 1154.42 704.632 1155.67 704.632ZM1155.33 705.848C1153.86 705.848 1153.03 706.84 1153.03 708.888C1153.03 710.968 1153.86 711.976 1155.33 711.976C1156.76 711.976 1157.6 711.032 1157.6 708.888C1157.6 706.728 1156.76 705.848 1155.33 705.848ZM1163.35 713.192C1161.55 713.192 1160.48 712.28 1160.48 710.712C1160.48 709.224 1161.27 708.472 1162.95 708.216L1164.5 707.96C1165.67 707.768 1165.95 707.528 1165.95 706.952C1165.95 706.232 1165.51 705.8 1164.26 705.8C1162.95 705.8 1162.42 706.216 1162.32 707.112H1160.83C1160.99 705.416 1162.23 704.632 1164.29 704.632C1166.51 704.632 1167.51 705.48 1167.51 707.24V711.352C1167.51 711.72 1167.65 711.864 1168 711.864H1168.32V713.032C1168.07 713.064 1167.84 713.08 1167.54 713.08C1166.69 713.08 1166.18 712.76 1166.07 711.896C1165.55 712.792 1164.58 713.192 1163.35 713.192ZM1163.73 712.024C1164.9 712.024 1165.97 711.448 1165.97 710.088V708.536C1165.7 708.696 1165.31 708.824 1164.61 708.968L1163.44 709.208C1162.37 709.432 1162.05 709.88 1162.05 710.616C1162.05 711.496 1162.64 712.024 1163.73 712.024ZM1173.36 713.192C1170.9 713.192 1169.43 711.624 1169.43 708.92C1169.43 706.168 1170.91 704.632 1173.36 704.632C1175.49 704.632 1176.75 705.544 1177.09 707.512H1175.51C1175.25 706.312 1174.59 705.848 1173.38 705.848C1171.86 705.848 1171.04 706.824 1171.04 708.92C1171.04 711.016 1171.87 711.976 1173.38 711.976C1174.64 711.976 1175.27 711.464 1175.52 710.248H1177.09C1176.77 712.152 1175.55 713.192 1173.36 713.192ZM1178.8 713V704.824H1180.38V713H1178.8ZM1178.78 703.432V701.8H1180.4V703.432H1178.78ZM1182.69 713V704.824H1184.26V705.992C1184.69 705.096 1185.59 704.632 1186.77 704.632C1188.58 704.632 1189.72 705.8 1189.72 707.8V713H1188.13V707.992C1188.13 706.504 1187.54 705.864 1186.28 705.864C1184.93 705.864 1184.28 706.568 1184.28 708.232V713H1182.69ZM1195.32 716.328C1192.99 716.328 1191.93 715.592 1191.76 713.848H1193.28C1193.42 714.792 1194.01 715.112 1195.28 715.112C1196.88 715.112 1197.5 714.568 1197.5 713.176V711.464C1196.97 712.392 1196.03 712.84 1194.86 712.84C1192.86 712.84 1191.44 711.416 1191.44 708.744C1191.44 706.04 1192.91 704.632 1194.92 704.632C1196.09 704.632 1197 705.064 1197.52 705.976V704.824H1199.08V713.192C1199.08 715.272 1197.88 716.328 1195.32 716.328ZM1195.29 711.64C1196.73 711.64 1197.5 710.728 1197.5 708.744C1197.5 706.728 1196.72 705.832 1195.29 705.832C1193.82 705.832 1193.04 706.728 1193.04 708.712C1193.04 710.712 1193.82 711.64 1195.29 711.64Z" fill="black"/>
<path d="M8457.88 729V717.8H8459.49V729H8457.88ZM8461.88 729V720.824H8463.45V721.992C8463.88 721.096 8464.78 720.632 8465.96 720.632C8467.77 720.632 8468.9 721.8 8468.9 723.8V729H8467.32V723.992C8467.32 722.504 8466.73 721.864 8465.46 721.864C8464.12 721.864 8463.46 722.568 8463.46 724.232V729H8461.88ZM8478.3 729.192C8476.08 729.192 8474.81 728.328 8474.64 726.6H8476.13C8476.27 727.576 8477.02 728.04 8478.32 728.04C8479.61 728.04 8480.16 727.576 8480.16 726.792C8480.16 726.104 8479.79 725.816 8478.67 725.576L8477.36 725.304C8475.63 724.952 8474.97 724.184 8474.97 723C8474.97 721.448 8476.25 720.632 8478.09 720.632C8479.9 720.632 8481.18 721.432 8481.39 723.064H8479.95C8479.77 722.248 8479.2 721.784 8478.09 721.784C8477.04 721.784 8476.45 722.184 8476.45 722.84C8476.45 723.384 8476.69 723.704 8477.77 723.928L8479.34 724.248C8481.02 724.584 8481.71 725.336 8481.71 726.648C8481.71 728.248 8480.51 729.192 8478.3 729.192ZM8483.06 732.024V730.792H8483.89C8484.45 730.792 8484.85 730.584 8485.12 729.88L8485.44 729.016L8482.32 720.824H8483.96L8486.21 727.192L8488.58 720.824H8490.16L8486.36 730.456C8485.88 731.672 8485.16 732.024 8484.04 732.024H8483.06ZM8491.49 729V720.824H8493.06V721.992C8493.49 721.096 8494.39 720.632 8495.57 720.632C8497.38 720.632 8498.51 721.8 8498.51 723.8V729H8496.93V723.992C8496.93 722.504 8496.34 721.864 8495.07 721.864C8493.73 721.864 8493.07 722.568 8493.07 724.232V729H8491.49ZM8504.17 729.192C8501.7 729.192 8500.23 727.624 8500.23 724.92C8500.23 722.168 8501.72 720.632 8504.17 720.632C8506.3 720.632 8507.56 721.544 8507.9 723.512H8506.31C8506.06 722.312 8505.4 721.848 8504.18 721.848C8502.66 721.848 8501.85 722.824 8501.85 724.92C8501.85 727.016 8502.68 727.976 8504.18 727.976C8505.45 727.976 8506.07 727.464 8506.33 726.248H8507.9C8507.58 728.152 8506.36 729.192 8504.17 729.192ZM8516.29 729C8514.69 729 8514.13 728.44 8514.13 727.032V721.944H8512.93V720.824H8514.13V718.424H8515.72V720.824H8517.46V721.944H8515.72V726.904C8515.72 727.592 8515.94 727.8 8516.68 727.8H8517.46V729H8516.29ZM8519.24 729V720.824H8520.82V729H8519.24ZM8519.22 719.432V717.8H8520.84V719.432H8519.22ZM8526.57 729.192C8524.11 729.192 8522.64 727.624 8522.64 724.92C8522.64 722.168 8524.12 720.632 8526.57 720.632C8528.7 720.632 8529.96 721.544 8530.3 723.512H8528.72C8528.46 722.312 8527.8 721.848 8526.59 721.848C8525.07 721.848 8524.25 722.824 8524.25 724.92C8524.25 727.016 8525.08 727.976 8526.59 727.976C8527.85 727.976 8528.48 727.464 8528.73 726.248H8530.3C8529.98 728.152 8528.76 729.192 8526.57 729.192ZM8537.32 729L8533.6 724.68V729H8532.01V717.8H8533.6V724.584L8537.15 720.824H8539L8535.36 724.584L8539.34 729H8537.32ZM8547.34 729.192C8545.12 729.192 8543.85 728.328 8543.68 726.6H8545.16C8545.31 727.576 8546.06 728.04 8547.36 728.04C8548.65 728.04 8549.2 727.576 8549.2 726.792C8549.2 726.104 8548.83 725.816 8547.71 725.576L8546.4 725.304C8544.67 724.952 8544.01 724.184 8544.01 723C8544.01 721.448 8545.29 720.632 8547.13 720.632C8548.94 720.632 8550.22 721.432 8550.43 723.064H8548.99C8548.81 722.248 8548.24 721.784 8547.13 721.784C8546.08 721.784 8545.48 722.184 8545.48 722.84C8545.48 723.384 8545.72 723.704 8546.81 723.928L8548.38 724.248C8550.06 724.584 8550.75 725.336 8550.75 726.648C8550.75 728.248 8549.55 729.192 8547.34 729.192ZM8556.67 720.632C8558.91 720.632 8560.22 722.216 8560.22 724.936C8560.22 727.64 8558.91 729.192 8556.68 729.192C8555.45 729.192 8554.54 728.696 8554.03 727.656V732.024H8552.44V720.824H8554.01V722.168C8554.52 721.144 8555.42 720.632 8556.67 720.632ZM8556.33 721.848C8554.86 721.848 8554.03 722.84 8554.03 724.888C8554.03 726.968 8554.86 727.976 8556.33 727.976C8557.76 727.976 8558.6 727.032 8558.6 724.888C8558.6 722.728 8557.76 721.848 8556.33 721.848ZM8564.35 729.192C8562.55 729.192 8561.48 728.28 8561.48 726.712C8561.48 725.224 8562.27 724.472 8563.95 724.216L8565.5 723.96C8566.67 723.768 8566.95 723.528 8566.95 722.952C8566.95 722.232 8566.51 721.8 8565.26 721.8C8563.95 721.8 8563.42 722.216 8563.32 723.112H8561.83C8561.99 721.416 8563.23 720.632 8565.29 720.632C8567.51 720.632 8568.51 721.48 8568.51 723.24V727.352C8568.51 727.72 8568.65 727.864 8569 727.864H8569.32V729.032C8569.07 729.064 8568.84 729.08 8568.54 729.08C8567.69 729.08 8567.18 728.76 8567.07 727.896C8566.55 728.792 8565.58 729.192 8564.35 729.192ZM8564.73 728.024C8565.9 728.024 8566.97 727.448 8566.97 726.088V724.536C8566.7 724.696 8566.31 724.824 8565.61 724.968L8564.44 725.208C8563.37 725.432 8563.05 725.88 8563.05 726.616C8563.05 727.496 8563.64 728.024 8564.73 728.024ZM8574.36 729.192C8571.9 729.192 8570.43 727.624 8570.43 724.92C8570.43 722.168 8571.91 720.632 8574.36 720.632C8576.49 720.632 8577.75 721.544 8578.09 723.512H8576.51C8576.25 722.312 8575.59 721.848 8574.38 721.848C8572.86 721.848 8572.04 722.824 8572.04 724.92C8572.04 727.016 8572.87 727.976 8574.38 727.976C8575.64 727.976 8576.27 727.464 8576.52 726.248H8578.09C8577.77 728.152 8576.55 729.192 8574.36 729.192ZM8579.8 729V720.824H8581.38V729H8579.8ZM8579.78 719.432V717.8H8581.4V719.432H8579.78ZM8583.69 729V720.824H8585.26V721.992C8585.69 721.096 8586.59 720.632 8587.77 720.632C8589.58 720.632 8590.72 721.8 8590.72 723.8V729H8589.13V723.992C8589.13 722.504 8588.54 721.864 8587.28 721.864C8585.93 721.864 8585.28 722.568 8585.28 724.232V729H8583.69ZM8596.32 732.328C8593.99 732.328 8592.93 731.592 8592.76 729.848H8594.28C8594.42 730.792 8595.01 731.112 8596.28 731.112C8597.88 731.112 8598.5 730.568 8598.5 729.176V727.464C8597.97 728.392 8597.03 728.84 8595.86 728.84C8593.86 728.84 8592.44 727.416 8592.44 724.744C8592.44 722.04 8593.91 720.632 8595.92 720.632C8597.09 720.632 8598 721.064 8598.52 721.976V720.824H8600.08V729.192C8600.08 731.272 8598.88 732.328 8596.32 732.328ZM8596.29 727.64C8597.73 727.64 8598.5 726.728 8598.5 724.744C8598.5 722.728 8597.72 721.832 8596.29 721.832C8594.82 721.832 8594.04 722.728 8594.04 724.712C8594.04 726.712 8594.82 727.64 8596.29 727.64Z" fill="black"/>
<path d="M37.7266 755H2219.23" stroke="black"/>
<path d="M6832.73 771H10225.7" stroke="black"/>
</g>
<defs>
<filter id="filter0_f_483_8" x="3703.59" y="151" width="3489.41" height="560" filterUnits="userSpaceOnUse" color-interpolation-filters="sRGB">
<feFlood flood-opacity="0" result="BackgroundImageFix"/>
<feBlend mode="normal" in="SourceGraphic" in2="BackgroundImageFix" result="shape"/>
<feGaussianBlur stdDeviation="50" result="effect1_foregroundBlur_483_8"/>
</filter>
<filter id="filter1_f_483_8" x="5902" y="151" width="3489.41" height="560" filterUnits="userSpaceOnUse" color-interpolation-filters="sRGB">
<feFlood flood-opacity="0" result="BackgroundImageFix"/>
<feBlend mode="normal" in="SourceGraphic" in2="BackgroundImageFix" result="shape"/>
<feGaussianBlur stdDeviation="50" result="effect1_foregroundBlur_483_8"/>
</filter>
<filter id="filter2_f_483_8" x="2244.46" y="123.221" width="1455.75" height="477.559" filterUnits="userSpaceOnUse" color-interpolation-filters="sRGB">
<feFlood flood-opacity="0" result="BackgroundImageFix"/>
<feBlend mode="normal" in="SourceGraphic" in2="BackgroundImageFix" result="shape"/>
<feGaussianBlur stdDeviation="50" result="effect1_foregroundBlur_483_8"/>
</filter>
<filter id="filter3_f_483_8" x="556.094" y="319.5" width="3551.08" height="271" filterUnits="userSpaceOnUse" color-interpolation-filters="sRGB">
<feFlood flood-opacity="0" result="BackgroundImageFix"/>
<feBlend mode="normal" in="SourceGraphic" in2="BackgroundImageFix" result="shape"/>
<feGaussianBlur stdDeviation="20" result="effect1_foregroundBlur_483_8"/>
</filter>
<filter id="filter4_f_483_8" x="556.094" y="319.5" width="3551.08" height="271" filterUnits="userSpaceOnUse" color-interpolation-filters="sRGB">
<feFlood flood-opacity="0" result="BackgroundImageFix"/>
<feBlend mode="normal" in="SourceGraphic" in2="BackgroundImageFix" result="shape"/>
<feGaussianBlur stdDeviation="20" result="effect1_foregroundBlur_483_8"/>
</filter>
<linearGradient id="paint0_linear_483_8" x1="8299.64" y1="522.003" x2="10603.8" y2="522.003" gradientUnits="userSpaceOnUse">
<stop offset="0.0451558" stop-color="#1923A8"/>
<stop offset="0.250962" stop-color="#CCCDDD"/>
</linearGradient>
<linearGradient id="paint1_linear_483_8" x1="4452.28" y1="588.261" x2="4452.28" y2="228.775" gradientUnits="userSpaceOnUse">
<stop stop-color="#C9C6BC" stop-opacity="0"/>
<stop offset="0.100565" stop-color="#5D96F4"/>
<stop offset="0.4" stop-color="#1923A8"/>
<stop offset="0.6" stop-color="#1923A8"/>
<stop offset="0.9" stop-color="#5D96F4"/>
<stop offset="1" stop-color="#C9C6BC" stop-opacity="0"/>
</linearGradient>
<linearGradient id="paint2_linear_483_8" x1="8642.72" y1="588.261" x2="8642.72" y2="228.775" gradientUnits="userSpaceOnUse">
<stop stop-color="#C9C6BC" stop-opacity="0"/>
<stop offset="0.100565" stop-color="#5D96F4"/>
<stop offset="0.4" stop-color="#1923A8"/>
<stop offset="0.6" stop-color="#1923A8"/>
<stop offset="0.9" stop-color="#5D96F4"/>
<stop offset="1" stop-color="#C9C6BC" stop-opacity="0"/>
</linearGradient>
<linearGradient id="paint3_linear_483_8" x1="411.307" y1="450.675" x2="411.307" y2="636.693" gradientUnits="userSpaceOnUse">
<stop stop-color="#E7E5DD" stop-opacity="0"/>
<stop offset="0.100565" stop-color="#E9F3CD" stop-opacity="0.5"/>
<stop offset="0.390351" stop-color="#D9DECA"/>
<stop offset="0.614035" stop-color="#D9DECA"/>
<stop offset="0.9" stop-color="#E9F3CD" stop-opacity="0.5"/>
<stop offset="1" stop-color="#E7E5DD" stop-opacity="0"/>
</linearGradient>
<linearGradient id="paint4_linear_483_8" x1="2412.31" y1="456.675" x2="2412.31" y2="642.693" gradientUnits="userSpaceOnUse">
<stop stop-color="#E7E5DD" stop-opacity="0"/>
<stop offset="0.100565" stop-color="#E9F3CD" stop-opacity="0.5"/>
<stop offset="0.390351" stop-color="#D9DECA"/>
<stop offset="0.614035" stop-color="#D9DECA"/>
<stop offset="0.9" stop-color="#E9F3CD" stop-opacity="0.5"/>
<stop offset="1" stop-color="#E7E5DD" stop-opacity="0"/>
</linearGradient>
<linearGradient id="paint5_linear_483_8" x1="6001.38" y1="456.675" x2="6001.38" y2="642.693" gradientUnits="userSpaceOnUse">
<stop stop-color="#E7E5DD" stop-opacity="0"/>
<stop offset="0.100565" stop-color="#E9F3CD" stop-opacity="0.5"/>
<stop offset="0.390351" stop-color="#D9DECA"/>
<stop offset="0.614035" stop-color="#D9DECA"/>
<stop offset="0.9" stop-color="#E9F3CD" stop-opacity="0.5"/>
<stop offset="1" stop-color="#E7E5DD" stop-opacity="0"/>
</linearGradient>
<clipPath id="clip0_483_8">
<rect width="10287" height="1080" fill="white"/>
</clipPath>
</defs>
</svg>
